<svg xmlns="http://www.w3.org/2000/svg" viewBox="0 0 690.92 508.43"><defs><style>.cls-1{fill:#2E3440;}</style></defs><g id="Layer_2" data-name="Layer 2"><g id="Слой_1" data-name="Слой 1"><path class="cls-1" d="M19.61,49.23c-9.89,0-15.77-8.57-16.41-9.56a20.19,20.19,0,0,1-1.58-2.94A19.07,19.07,0,0,1,3.28,18.36,20.6,20.6,0,0,1,20.55,9H325.23a1.06,1.06,0,1,1,0,2.12H20.55a18.49,18.49,0,0,0-15.5,8.42A17,17,0,0,0,3.56,35.88,18.49,18.49,0,0,0,5,38.52c.59.89,5.89,8.76,14.84,8.59C25.52,47,32.2,44,33.94,38.18c1.14-3.75.48-10-3.68-12.06a8.46,8.46,0,0,0-6.44,0,1.05,1.05,0,0,1-1.36-.62,1.07,1.07,0,0,1,.63-1.36,10.47,10.47,0,0,1,8.09,0c5,2.41,6.34,9.45,4.79,14.58-2,6.73-9.66,10.34-16.13,10.43Z"/><path class="cls-1" d="M671.31,49.23h-.23c-6.48-.09-14.1-3.7-16.13-10.44-1.55-5.12-.16-12.16,4.79-14.57a10.47,10.47,0,0,1,8.09,0,1.06,1.06,0,1,1-.74,2,8.43,8.43,0,0,0-6.43,0c-4.17,2-4.82,8.31-3.69,12.06,1.74,5.77,8.43,8.86,14.14,8.93h.2c8.78,0,14.05-7.72,14.63-8.6a17.58,17.58,0,0,0,1.42-2.64,17,17,0,0,0-1.49-16.36,18.5,18.5,0,0,0-15.5-8.42h-305a1.06,1.06,0,0,1,0-2.12h305a20.6,20.6,0,0,1,17.27,9.38,19.1,19.1,0,0,1,1.66,18.37,20.24,20.24,0,0,1-1.59,2.94C687.07,40.66,681.2,49.23,671.31,49.23Z"/><path class="cls-1" d="M670.37,500.35h-305a1.06,1.06,0,0,1,0-2.11h305a18.5,18.5,0,0,0,15.5-8.42,17,17,0,0,0,1.49-16.36,17.58,17.58,0,0,0-1.42-2.64c-.58-.88-5.85-8.6-14.63-8.6h-.2c-5.71.07-12.4,3.16-14.14,8.93-1.13,3.75-.48,10,3.69,12.06a8.43,8.43,0,0,0,6.43,0,1.06,1.06,0,0,1,.74,2,10.47,10.47,0,0,1-8.09,0c-5-2.41-6.34-9.45-4.79-14.58,2-6.73,9.65-10.34,16.13-10.43h.23c9.9,0,15.76,8.57,16.4,9.56a20.24,20.24,0,0,1,1.59,2.94A19.1,19.1,0,0,1,687.64,491,20.59,20.59,0,0,1,670.37,500.35Z"/><path class="cls-1" d="M325.23,500.35H20.55A20.59,20.59,0,0,1,3.28,491a19.07,19.07,0,0,1-1.66-18.37,20.19,20.19,0,0,1,1.58-2.94c.64-1,6.51-9.56,16.41-9.56h.23c6.47.09,14.09,3.7,16.13,10.43,1.55,5.13.16,12.17-4.79,14.58a10.47,10.47,0,0,1-8.09,0,1.07,1.07,0,0,1-.63-1.36,1.05,1.05,0,0,1,1.36-.62,8.46,8.46,0,0,0,6.44,0c4.16-2,4.82-8.31,3.68-12.06-1.74-5.77-8.42-8.86-14.13-8.93-9-.14-14.25,7.7-14.84,8.59a18.49,18.49,0,0,0-1.41,2.64,17,17,0,0,0,1.49,16.36,18.49,18.49,0,0,0,15.5,8.42H325.23a1.06,1.06,0,1,1,0,2.11Z"/><path class="cls-1" d="M9.52,455.9a1.05,1.05,0,0,1-1-1.06V53.45a1.06,1.06,0,1,1,2.11,0V454.84A1.05,1.05,0,0,1,9.52,455.9Z"/><path class="cls-1" d="M681.61,455.9a1.06,1.06,0,0,1-1.06-1.06V53.45a1.06,1.06,0,1,1,2.12,0V454.84A1.06,1.06,0,0,1,681.61,455.9Z"/><path class="cls-1" d="M345.32,20a10,10,0,1,1,10-10A10,10,0,0,1,345.32,20Zm0-17.91a7.9,7.9,0,1,0,7.9,7.9A7.9,7.9,0,0,0,345.32,2.12Z"/><path class="cls-1" d="M345.32,508.43a10,10,0,1,1,10-10A10,10,0,0,1,345.32,508.43Zm0-17.92a7.91,7.91,0,1,0,7.9,7.9A7.91,7.91,0,0,0,345.32,490.51Z"/></g></g></svg>