<svg xmlns="http://www.w3.org/2000/svg" viewBox="0 0 692.22 491.37"><defs><style>.cls-1{fill:#2E3440;}</style></defs><g id="Layer_2" data-name="Layer 2"><g id="Слой_1" data-name="Слой 1"><path class="cls-1" d="M45.11,46H45c-.75-.06-18.51-1.62-30.64-13.75S.7,2.33.64,1.58A1.08,1.08,0,0,1,1,.75,1.1,1.1,0,0,1,1.78.44C2.53.51,20.29,2.07,32.42,14.2h0C44.54,26.32,46.11,44.08,46.17,44.83a1.09,1.09,0,0,1-.31.84A1.06,1.06,0,0,1,45.11,46ZM2.91,2.71c.6,4.29,3.24,18.28,13,28s23.73,12.38,28,13c-.6-4.29-3.24-18.28-13-28S7.19,3.31,2.91,2.71Z"/><path class="cls-1" d="M24.46,55.78C12,55.78,2.12,47.49,1.71,47.13a1,1,0,0,1-.38-.8,1.06,1.06,0,0,1,.38-.81c.41-.35,10.31-8.65,22.75-8.65s22.33,8.3,22.75,8.65a1.05,1.05,0,0,1,.37.81,1,1,0,0,1-.37.8C46.79,47.49,36.89,55.78,24.46,55.78ZM4.12,46.33c2.8,2.06,10.92,7.34,20.34,7.34S42,48.39,44.8,46.33C42,44.27,33.88,39,24.46,39S6.92,44.27,4.12,46.33Z"/><path class="cls-1" d="M46.52,47.39a1,1,0,0,1-.8-.38c-.35-.41-8.65-10.32-8.65-22.75s8.3-22.34,8.65-22.75a1,1,0,0,1,.8-.37h0a1.05,1.05,0,0,1,.81.37C47.68,1.92,56,11.83,56,24.26S47.68,46.6,47.33,47A1.06,1.06,0,0,1,46.52,47.39Zm0-43.47c-2.05,2.81-7.34,10.92-7.34,20.34S44.47,41.8,46.52,44.6c2.06-2.8,7.35-10.92,7.35-20.34S48.58,6.73,46.52,3.92Z"/><path class="cls-1" d="M647.49,46a1.06,1.06,0,0,1-1-1.15c.06-.75,1.63-18.51,13.75-30.63S690.08.51,690.83.44a1.1,1.1,0,0,1,.83.31,1.08,1.08,0,0,1,.31.83c-.06.75-1.63,18.51-13.75,30.64h0C666.09,44.35,648.33,45.91,647.58,46ZM689.7,2.71c-4.28.6-18.28,3.25-28,13s-12.38,23.73-13,28c4.29-.6,18.29-3.25,28-13S689.1,7,689.7,2.71ZM677.47,31.47h0Z"/><path class="cls-1" d="M646.08,47.39h0a1,1,0,0,1-.8-.38c-.35-.41-8.65-10.32-8.65-22.75s8.3-22.34,8.65-22.75a1.1,1.1,0,0,1,1.61,0c.35.41,8.65,10.32,8.65,22.75S647.24,46.6,646.89,47A1.06,1.06,0,0,1,646.08,47.39Zm0-43.47c-2.05,2.81-7.34,10.92-7.34,20.34S644,41.8,646.08,44.6c2.06-2.8,7.35-10.92,7.35-20.34S648.14,6.73,646.08,3.92Z"/><path class="cls-1" d="M668.15,55.78c-12.43,0-22.34-8.29-22.75-8.65a1,1,0,0,1-.37-.8,1.05,1.05,0,0,1,.37-.81c.41-.35,10.32-8.65,22.75-8.65s22.34,8.3,22.75,8.65a1.05,1.05,0,0,1,.37.81,1,1,0,0,1-.37.8C690.49,47.49,680.58,55.78,668.15,55.78Zm-20.34-9.45c2.81,2.06,10.92,7.34,20.34,7.34s17.54-5.28,20.34-7.34c-2.8-2.06-10.92-7.35-20.34-7.35S650.62,44.27,647.81,46.33Z"/><path class="cls-1" d="M690.91,490.93h-.08c-.75-.07-18.51-1.63-30.64-13.76h0c-12.12-12.12-13.69-29.88-13.75-30.63a1,1,0,0,1,.31-.83,1.06,1.06,0,0,1,.83-.31c.75.06,18.51,1.62,30.64,13.75S691.91,489,692,489.79a1.08,1.08,0,0,1-.31.83A1.06,1.06,0,0,1,690.91,490.93Zm-29.22-15.25c9.75,9.75,23.73,12.38,28,13-.6-4.28-3.24-18.28-13-28s-23.73-12.38-28-13c.61,4.29,3.25,18.28,13,28Z"/><path class="cls-1" d="M668.15,454.5c-12.43,0-22.34-8.3-22.75-8.65A1.05,1.05,0,0,1,645,445a1,1,0,0,1,.37-.8c.41-.36,10.32-8.65,22.75-8.65s22.34,8.29,22.75,8.65a1,1,0,0,1,.37.8,1.05,1.05,0,0,1-.37.81C690.49,446.2,680.58,454.5,668.15,454.5ZM647.81,445c2.8,2.06,10.92,7.35,20.34,7.35s17.54-5.29,20.34-7.35c-2.8-2.06-10.92-7.34-20.34-7.34S650.61,443,647.81,445Z"/><path class="cls-1" d="M646.08,490.23h0a1,1,0,0,1-.8-.37c-.35-.41-8.65-10.32-8.65-22.75s8.3-22.34,8.65-22.75a1.1,1.1,0,0,1,1.61,0c.35.41,8.65,10.32,8.65,22.75s-8.3,22.34-8.65,22.75A1.05,1.05,0,0,1,646.08,490.23Zm0-43.46c-2.05,2.8-7.34,10.92-7.34,20.34s5.29,17.53,7.34,20.34c2.06-2.81,7.35-10.92,7.35-20.34S648.14,449.57,646.08,446.77Z"/><path class="cls-1" d="M1.7,490.93a1.06,1.06,0,0,1-.75-.31,1.08,1.08,0,0,1-.31-.83c.06-.75,1.63-18.51,13.75-30.64h0C26.52,447,44.28,445.46,45,445.4a1.07,1.07,0,0,1,1.14,1.14c-.06.75-1.63,18.51-13.75,30.63S2.53,490.86,1.78,490.93Zm14.19-30.29c-9.75,9.76-12.39,23.74-13,28,4.28-.6,18.28-3.25,28-13s12.38-23.73,13-28c-4.28.6-18.28,3.25-28,13Z"/><path class="cls-1" d="M46.52,490.23a1,1,0,0,1-.8-.37c-.35-.41-8.65-10.32-8.65-22.75s8.3-22.34,8.65-22.75a1,1,0,0,1,.8-.37h0a1.05,1.05,0,0,1,.81.37c.35.41,8.65,10.32,8.65,22.75s-8.3,22.34-8.65,22.75A1.05,1.05,0,0,1,46.52,490.23Zm0-43.46c-2.05,2.8-7.34,10.92-7.34,20.34s5.29,17.53,7.34,20.34c2.06-2.81,7.35-10.92,7.35-20.34S48.58,449.57,46.52,446.77Z"/><path class="cls-1" d="M24.46,454.5c-12.44,0-22.34-8.3-22.75-8.65a1.06,1.06,0,0,1-.38-.81,1,1,0,0,1,.38-.8c.41-.36,10.31-8.65,22.75-8.65s22.33,8.29,22.75,8.65a1,1,0,0,1,.37.8,1.05,1.05,0,0,1-.37.81C46.79,446.2,36.89,454.5,24.46,454.5ZM4.12,445c2.8,2.06,10.92,7.35,20.34,7.35S42,447.1,44.8,445C42,443,33.88,437.7,24.46,437.7S6.92,443,4.12,445Z"/><path class="cls-1" d="M616.14,491.37H76.08v-2.2A74.27,74.27,0,0,0,1.89,415H0V75.68H1.89A74.26,74.26,0,0,0,76.08,1.5V0H616.14V1.5a74.26,74.26,0,0,0,74.19,74.18h1.89V415h-1.89a74.27,74.27,0,0,0-74.19,74.18Zm-537.07-3H613.15A77.27,77.27,0,0,1,689.22,412V78.67A77.27,77.27,0,0,1,613.16,3H79.06A77.27,77.27,0,0,1,3,78.67V412A77.28,77.28,0,0,1,79.07,488.37Z"/></g></g></svg>