<svg width="440" height="106" viewBox="0 0 440 106" fill="none" xmlns="http://www.w3.org/2000/svg">
<path d="M20.5366 0.884796C20.8438 0.884796 21.0742 1.0128 21.2278 1.2688C21.4326 1.4736 21.535 1.6784 21.535 1.8832V2.1904C18.207 2.1904 15.3398 3.16319 12.9334 5.10879C9.5542 7.87359 7.8646 11.2016 7.8646 15.0928C7.8646 16.7824 8.223 18.472 8.9398 20.1616C10.0662 22.9264 12.1398 25.0512 15.1606 26.536C16.3894 21.9792 18.9238 18.088 22.7638 14.8624C26.655 11.5856 31.4166 9.9472 37.0486 9.9472C41.2982 9.9472 44.0118 11.3808 45.1894 14.248C45.5478 15.1184 45.727 16.0144 45.727 16.936C45.727 18.8304 44.959 20.8272 43.423 22.9264C39.6342 27.944 33.567 30.4528 25.2214 30.4528C22.6614 30.4528 20.4342 30.2224 18.5398 29.7616C18.3862 30.7344 18.3094 31.7584 18.3094 32.8336C18.3094 33.9088 18.4886 34.984 18.847 36.0592C21.9702 34.9328 25.2726 34.3696 28.7542 34.3696C32.287 34.3696 34.4374 35.2656 35.2054 37.0576C35.359 37.4672 35.4358 37.8512 35.4358 38.2096C35.4358 39.2848 34.6166 40.36 32.9782 41.4352C31.3398 42.5104 28.8054 43.048 25.375 43.048C21.9446 43.048 19.1798 41.8704 17.0806 39.5152C12.5238 42.4336 9.17021 46.7344 7.01981 52.4176C5.58621 56.2064 4.86941 59.8928 4.86941 63.4768C4.86941 65.2688 5.04861 67.0096 5.40701 68.6992C6.48221 73.9216 8.991 77.4288 12.9334 79.2208C12.9334 79.0672 12.9334 78.9136 12.9334 78.76C12.9334 73.9984 13.7014 69.3392 15.2374 64.7824C16.8246 60.2256 19.3078 56.3088 22.687 53.032C26.0662 49.704 29.9574 48.04 34.3606 48.04C38.7638 48.04 41.6054 50.0368 42.8854 54.0304C43.3462 55.464 43.5766 56.9488 43.5766 58.4848C43.5766 61.3008 42.8086 64.3728 41.2726 67.7008C38.6102 73.384 34.591 77.5056 29.215 80.0656C25.9382 81.6016 22.4054 82.3696 18.6166 82.3696C18.0022 82.3696 17.183 82.3184 16.159 82.216C16.3126 86.4144 17.2598 89.8192 19.0006 92.4304C20.7414 95.0416 23.2502 96.3472 26.527 96.3472C26.3222 97.2176 25.6822 97.6528 24.607 97.6528C21.1766 97.6528 18.463 96.168 16.4662 93.1984C14.5206 90.2288 13.3942 86.3888 13.087 81.6784C9.40061 80.7568 6.43101 78.9392 4.17821 76.2256C1.41341 72.9488 0.0310059 68.776 0.0310059 63.7072C0.0310059 61.096 0.415006 58.2032 1.18301 55.0288C1.95101 51.8032 3.6406 48.5264 6.2518 45.1984C8.863 41.8192 12.0118 39.208 15.6982 37.3648C14.879 35.624 14.4694 33.9856 14.4694 32.4496C14.4694 30.8624 14.5462 29.5312 14.6998 28.456C12.3958 27.3808 10.527 25.9472 9.09341 24.1552C7.14781 21.6464 6.17501 18.856 6.17501 15.784C6.17501 12.3536 7.14781 9.25599 9.09341 6.49119C10.3222 4.85279 11.935 3.52159 13.9318 2.49759C15.9286 1.4224 18.1302 0.884796 20.5366 0.884796ZM34.975 49.8832C31.5446 49.8832 28.3446 51.496 25.375 54.7216C22.4566 57.896 20.2038 61.7872 18.6166 66.3952C17.0806 71.0032 16.2614 75.5856 16.159 80.1424C16.8758 80.296 17.6438 80.3728 18.463 80.3728C25.9382 80.3728 31.903 77.48 36.3574 71.6944C39.6342 67.4448 41.2726 63.1184 41.2726 58.7152C41.2726 54.312 39.9926 51.5472 37.4326 50.4208C36.7158 50.0624 35.8966 49.8832 34.975 49.8832ZM25.1446 28.5328C31.0838 28.5328 35.743 26.6896 39.1222 23.0032C41.119 20.8528 42.1174 18.7536 42.1174 16.7056C42.1174 16.2448 42.0918 15.8096 42.0406 15.4C41.4262 12.9936 39.583 11.7648 36.511 11.7136C32.3126 11.7136 28.575 13.352 25.2982 16.6288C22.0726 19.9056 19.9478 23.6688 18.9238 27.9184C20.8182 28.328 22.8918 28.5328 25.1446 28.5328ZM28.7542 36.0592C25.5798 36.0592 22.5846 36.6992 19.7686 37.9792C21.151 40.1296 23.455 41.2048 26.6806 41.2048C29.9574 41.2048 32.0566 40.488 32.9782 39.0544C33.183 38.696 33.2854 38.3888 33.2854 38.1328C33.2854 37.4672 32.8246 36.9552 31.903 36.5968C31.0326 36.2384 29.983 36.0592 28.7542 36.0592Z" fill="black"/>
<path d="M52.1449 73C50.7113 73 49.9945 71.8992 49.9945 69.6976C49.9945 68.52 51.4281 59.944 54.2953 43.9696C54.4489 42.8944 54.9097 42.3568 55.6777 42.3568C56.5993 42.3568 57.2905 43.0224 57.7513 44.3536C58.0073 45.0704 58.1353 45.864 58.1353 46.7344C58.1353 47.5536 58.0329 48.4496 57.8281 49.4224L56.6761 55.2592H57.1369C61.6425 45.1216 65.9945 40.0528 70.1929 40.0528C71.6265 40.0528 72.7529 40.5648 73.5721 41.5888C74.4425 42.6128 74.8777 43.8416 74.8777 45.2752C74.8777 47.9376 74.4681 51.2656 73.6489 55.2592H73.9561C78.3081 45.7872 82.5833 41.0512 86.7817 41.0512C88.1641 41.0512 89.2905 41.5632 90.1609 42.5872C91.0313 43.6112 91.4665 44.968 91.4665 46.6576C91.4665 48.3472 90.8009 51.9312 89.4697 57.4096C88.1897 62.888 87.5497 66.7536 87.5497 69.0064C87.5497 72.3344 88.1641 73.9984 89.3929 73.9984C89.3929 74.3568 89.1625 74.7152 88.7017 75.0736C88.2409 75.432 87.7033 75.6112 87.0889 75.6112C84.1193 75.6112 82.6345 73.2816 82.6345 68.6224C82.6345 65.704 83.3769 61.5056 84.8617 56.0272C86.3465 50.4976 87.0889 46.9648 87.0889 45.4288C87.0889 43.8416 86.5769 43.048 85.5529 43.048C83.6585 43.048 81.4313 45.352 78.8713 49.96C76.3625 54.5168 74.3401 58.8944 72.8041 63.0928C71.3193 67.2912 70.4489 70.0048 70.1929 71.2336C69.9369 72.4112 69.4761 73 68.8105 73C67.3769 73 66.6601 71.8992 66.6601 69.6976C66.6601 68.8784 67.0953 65.9856 67.9657 61.0192C69.6553 51.9056 70.5001 46.4784 70.5001 44.7376C70.5001 42.9456 69.9881 42.0496 68.9641 42.0496C67.5817 42.0496 65.9689 43.4832 64.1257 46.3504C62.2825 49.1664 60.6185 52.4432 59.1337 56.1808C55.9081 64.0656 54.0137 69.16 53.4505 71.464C53.2457 72.488 52.8105 73 52.1449 73Z" fill="black"/>
<path d="M108.858 26.9968C110.036 26.9968 110.625 27.7904 110.625 29.3776C110.625 30.9648 109.857 32.2448 108.321 33.2176C107.553 33.7296 106.887 33.9856 106.324 33.9856C105.505 33.9856 105.018 33.7296 104.865 33.2176L104.788 32.9872C105.249 32.9872 105.581 32.5008 105.786 31.528C105.991 30.504 106.298 29.5056 106.708 28.5328C107.169 27.5088 107.885 26.9968 108.858 26.9968ZM103.943 71.1568C105.274 71.1568 107.143 69.3904 109.549 65.8576C111.956 62.3248 114.029 58.792 115.77 55.2592L118.381 49.96H120.455C120.148 50.5744 119.738 51.4192 119.226 52.4944C118.765 53.5184 117.818 55.3872 116.385 58.1008C114.951 60.7632 113.569 63.1184 112.237 65.1664C110.957 67.2144 109.498 69.0832 107.86 70.7728C106.273 72.4112 104.89 73.2304 103.713 73.2304C99.9239 73.2304 98.0295 70.7728 98.0295 65.8576C98.0295 62.1712 99.0791 56.1808 101.178 47.8864C101.383 47.016 101.537 46.3504 101.639 45.8896C101.793 45.4288 101.946 44.84 102.1 44.1232C102.253 43.3552 102.407 42.664 102.561 42.0496C102.817 40.9744 103.277 40.4368 103.943 40.4368C104.865 40.4368 105.53 41.1024 105.94 42.4336C106.145 43.048 106.247 43.7904 106.247 44.6608C106.247 45.5312 106.145 46.4528 105.94 47.4256C105.735 48.3472 105.402 49.7296 104.941 51.5728C104.481 53.416 104.122 54.9264 103.866 56.104C103.61 57.2816 103.329 58.7152 103.021 60.4048C102.458 63.2208 102.177 65.7296 102.177 67.9312C102.177 70.0816 102.765 71.1568 103.943 71.1568Z" fill="black"/>
<path d="M135.085 24.8464C136.928 20.0336 137.85 16.7568 137.85 15.016C137.85 13.2752 137.414 12.3536 136.544 12.2512C134.138 12.2512 131.629 16.1168 129.018 23.848C126.458 31.528 124.435 39.5152 122.95 47.8096C121.517 56.0528 120.8 61.8896 120.8 65.32C120.8 71.1056 122.234 73.9984 125.101 73.9984C125.101 74.3568 124.87 74.7152 124.41 75.0736C123.949 75.432 123.411 75.6112 122.797 75.6112C118.598 75.6112 116.499 71.848 116.499 64.3216C116.499 61.5568 117.011 57.3328 118.035 51.6496C119.059 45.9152 120.39 39.9248 122.029 33.6784C123.667 27.432 125.792 22.0048 128.403 17.3968C131.014 12.7376 133.677 10.408 136.39 10.408C138.541 10.408 139.616 11.7648 139.616 14.4784C139.616 16.5264 138.976 19.3936 137.696 23.08C135.238 30.248 131.706 37.416 127.098 44.584C125.869 46.4784 124.768 48.0144 123.795 49.192C123.539 49.4992 123.411 49.3968 123.411 48.8848C123.36 47.912 123.59 47.0672 124.102 46.3504C128.301 40.0528 131.962 32.8848 135.085 24.8464Z" fill="black"/>
<path d="M144.671 26.9968C145.848 26.9968 146.437 27.7904 146.437 29.3776C146.437 30.9648 145.669 32.2448 144.133 33.2176C143.365 33.7296 142.7 33.9856 142.136 33.9856C141.317 33.9856 140.831 33.7296 140.677 33.2176L140.6 32.9872C141.061 32.9872 141.394 32.5008 141.599 31.528C141.804 30.504 142.111 29.5056 142.52 28.5328C142.981 27.5088 143.698 26.9968 144.671 26.9968ZM139.756 71.1568C141.087 71.1568 142.956 69.3904 145.362 65.8576C147.768 62.3248 149.842 58.792 151.583 55.2592L154.194 49.96H156.268C155.96 50.5744 155.551 51.4192 155.039 52.4944C154.578 53.5184 153.631 55.3872 152.197 58.1008C150.764 60.7632 149.381 63.1184 148.05 65.1664C146.77 67.2144 145.311 69.0832 143.672 70.7728C142.085 72.4112 140.703 73.2304 139.525 73.2304C135.736 73.2304 133.842 70.7728 133.842 65.8576C133.842 62.1712 134.892 56.1808 136.991 47.8864C137.196 47.016 137.349 46.3504 137.452 45.8896C137.605 45.4288 137.759 44.84 137.912 44.1232C138.066 43.3552 138.22 42.664 138.373 42.0496C138.629 40.9744 139.09 40.4368 139.756 40.4368C140.677 40.4368 141.343 41.1024 141.752 42.4336C141.957 43.048 142.06 43.7904 142.06 44.6608C142.06 45.5312 141.957 46.4528 141.752 47.4256C141.548 48.3472 141.215 49.7296 140.754 51.5728C140.293 53.416 139.935 54.9264 139.679 56.104C139.423 57.2816 139.141 58.7152 138.834 60.4048C138.271 63.2208 137.989 65.7296 137.989 67.9312C137.989 70.0816 138.578 71.1568 139.756 71.1568Z" fill="black"/>
<path d="M155.998 61.7872C155.998 67.9824 158.2 71.08 162.603 71.08C164.241 71.08 165.957 70.3632 167.749 68.9296C169.592 67.4448 171.256 65.6784 172.741 63.6304C176.017 58.92 178.321 55.08 179.653 52.1104L180.651 49.96H182.725C181.854 52.008 180.574 54.5424 178.885 57.5632C177.195 60.5328 175.582 63.0416 174.046 65.0896C172.51 67.1376 170.693 69.0064 168.593 70.696C166.494 72.3344 164.497 73.1536 162.603 73.1536C155.025 73.1536 151.237 68.904 151.237 60.4048C151.237 56.4624 152.389 52.52 154.693 48.5776C157.867 43.0992 161.784 40.36 166.443 40.36C169.72 40.36 171.358 42.152 171.358 45.736C171.358 48.3984 170.334 51.1632 168.286 54.0304C165.419 57.9216 162.065 59.8928 158.225 59.944C157.662 59.944 157.304 59.688 157.15 59.176L157.073 58.8688C159.736 58.8688 162.27 57.128 164.677 53.6464C167.134 50.1136 168.363 47.1696 168.363 44.8144C168.363 43.2272 167.749 42.4336 166.52 42.4336C163.806 42.4336 161.272 44.8144 158.917 49.576C156.971 53.6208 155.998 57.6912 155.998 61.7872Z" fill="black"/>
<path d="M208.971 73.9216C207.281 70.7472 206.437 67.0096 206.437 62.7088C206.437 58.7152 207.102 55.1568 208.434 52.0336C209.816 48.8592 211.301 46.3248 212.888 44.4304C214.526 42.4848 216.497 40.9488 218.801 39.8224C221.157 38.6448 223.64 38.056 226.251 38.056C229.937 38.056 232.881 39.1056 235.083 41.2048L245.144 32.7568C244.939 30.9648 244.837 29.1984 244.837 27.4576C244.837 16.0912 247.832 10.408 253.822 10.408C255.358 10.408 256.562 10.9456 257.432 12.0208C258.302 13.096 258.789 14.4784 258.891 16.168C258.942 18.6256 258.149 21.0832 256.51 23.5408C254.923 25.9984 252.568 28.6864 249.445 31.6048C251.032 42.2032 251.826 49.4224 251.826 53.2624C251.826 57.0512 251.339 60.7376 250.366 64.3216C249.394 67.8544 247.909 71.08 245.912 73.9984C243.915 76.9168 241.176 79.1952 237.694 80.8336C234.213 82.472 230.168 83.2912 225.56 83.2912C218.955 83.2912 213.963 81.0384 210.584 76.5328C209.662 79.7584 209.202 83.4192 209.202 87.5152C209.202 91.6624 210.277 95.3744 212.427 98.6512C214.629 101.979 217.445 103.643 220.875 103.643C221.131 103.643 221.259 103.899 221.259 104.411C221.31 104.923 221.182 105.179 220.875 105.179C216.83 105.179 213.502 103.259 210.891 99.4192C208.28 95.6304 206.974 91.4064 206.974 86.7472C206.974 82.088 207.64 77.8128 208.971 73.9216ZM236.389 42.664C237.822 44.6096 238.539 46.8112 238.539 49.2688C238.539 51.6752 238.155 53.8512 237.387 55.7968C236.67 57.6912 235.365 59.3808 233.47 60.8656C231.627 62.2992 229.477 63.016 227.019 63.016C226.507 63.016 226.097 62.888 225.79 62.632C225.534 62.376 225.355 61.9664 225.253 61.4032C227.454 61.4032 229.477 60.3792 231.32 58.3312C233.982 55.464 235.314 52.2384 235.314 48.6544C235.314 47.1696 235.032 45.736 234.469 44.3536C228.734 49.2688 223.896 54.0816 219.954 58.792C216.011 63.5024 213.118 68.6224 211.275 74.152C214.194 78.8624 218.776 81.2176 225.022 81.2176C228.862 81.2176 232.216 80.3984 235.083 78.76C238.001 77.1728 240.28 74.9968 241.918 72.232C245.144 66.8048 246.757 60.2256 246.757 52.4944C246.757 50.6 246.296 44.84 245.374 35.2144L236.389 42.664ZM233.317 42.7408C231.678 41 229.426 40.1296 226.558 40.1296C223.691 40.1296 221.105 40.8208 218.801 42.2032C214.552 44.7632 211.506 49.064 209.662 55.1056C208.843 57.6656 208.434 60.3024 208.434 63.016C208.434 66.0368 208.92 68.8272 209.893 71.3872C213.425 62.5296 221.234 52.9808 233.317 42.7408ZM248.754 23.5408C248.754 24.9232 248.882 26.7664 249.138 29.0704C254.206 24.104 256.741 19.9056 256.741 16.4752C256.741 13.8128 255.768 12.4816 253.822 12.4816C250.443 12.4816 248.754 16.168 248.754 23.5408Z" fill="black"/>
<path d="M264.885 73.0768C260.84 73.0768 258.818 70.0304 258.818 63.9376C258.818 60.4048 259.739 56.5392 261.582 52.3408C264.142 46.6576 267.394 42.9456 271.336 41.2048C272.718 40.6416 274.101 40.36 275.483 40.36C276.917 40.36 278.043 40.7696 278.862 41.5888C279.682 42.408 280.091 43.3296 280.091 44.3536C280.091 44.8144 279.835 45.0448 279.323 45.0448C278.862 44.9936 278.632 44.7376 278.632 44.2768C278.632 43.816 278.376 43.4064 277.864 43.048C277.403 42.6384 276.712 42.4336 275.79 42.4336C272.565 42.4336 269.646 45.3264 267.035 51.112C264.578 56.488 263.349 61.5824 263.349 66.3952C263.349 69.3648 263.989 70.8496 265.269 70.8496C266.6 70.8496 268.187 69.7488 270.03 67.5472C271.925 65.2944 273.666 62.6832 275.253 59.7136C278.683 53.4672 280.706 49.448 281.32 47.656C281.934 45.864 282.6 44.968 283.317 44.968C284.597 44.968 285.237 46.0432 285.237 48.1936C285.237 48.8592 285.16 49.6272 285.006 50.4976C283.317 58.6896 282.395 63.4256 282.242 64.7056C282.139 65.9856 282.088 66.9072 282.088 67.4704C282.088 69.928 282.677 71.1568 283.854 71.1568C285.186 71.1568 287.054 69.3904 289.461 65.8576C291.867 62.3248 293.941 58.792 295.682 55.2592L298.293 49.96H300.366C300.059 50.5744 299.65 51.4192 299.138 52.4944C298.677 53.5184 297.73 55.3872 296.296 58.1008C294.862 60.7632 293.48 63.1184 292.149 65.1664C290.869 67.2144 289.41 69.0832 287.771 70.7728C286.184 72.4112 284.802 73.2304 283.624 73.2304C279.835 73.2304 277.941 70.4656 277.941 64.936C277.941 63.0928 278.146 60.9424 278.555 58.4848H278.018C272.795 68.2128 268.418 73.0768 264.885 73.0768Z" fill="black"/>
<path d="M297.02 73C295.586 73 294.87 71.8992 294.87 69.6976C294.87 68.52 296.303 59.944 299.17 43.9696C299.324 42.8944 299.785 42.3568 300.553 42.3568C301.474 42.3568 302.166 43.0224 302.626 44.3536C302.882 45.0704 303.01 45.864 303.01 46.7344C303.01 47.5536 302.908 48.4496 302.703 49.4224L301.474 55.5664H301.935C306.543 45.224 310.946 40.0528 315.145 40.0528C316.783 40.0528 318.037 40.5648 318.908 41.5888C319.778 42.5616 320.214 43.9184 320.214 45.6592C320.214 47.4 319.522 51.1632 318.14 56.9488C316.757 62.7344 316.066 66.7536 316.066 69.0064C316.066 72.3344 316.681 73.9984 317.91 73.9984C317.91 74.3568 317.679 74.7152 317.218 75.0736C316.757 75.432 316.22 75.6112 315.605 75.6112C312.636 75.6112 311.151 73.2816 311.151 68.6224C311.151 65.7552 311.919 61.4288 313.455 55.6432C315.042 49.8064 315.836 46.0944 315.836 44.5072C315.836 42.8688 315.196 42.0496 313.916 42.0496C312.073 42.0496 309.846 44.456 307.234 49.2688C304.674 54.0816 302.601 58.6896 301.014 63.0928C299.478 67.4448 298.582 70.184 298.326 71.3104C298.121 72.4368 297.685 73 297.02 73Z" fill="black"/>
<path d="M331.234 62.0944C331.234 68.0848 333.307 71.08 337.455 71.08C339.093 71.08 340.808 70.3632 342.6 68.9296C344.443 67.4448 346.107 65.6784 347.592 63.6304C350.869 58.92 353.173 55.08 354.504 52.1104L355.503 49.96H357.576C356.706 52.008 355.426 54.5424 353.736 57.5632C352.047 60.5328 350.434 63.0416 348.898 65.0896C347.362 67.1376 345.544 69.0064 343.445 70.696C341.346 72.3344 339.349 73.1536 337.455 73.1536C332.13 73.1536 328.751 70.7216 327.317 65.8576C326.856 64.3216 326.626 62.4016 326.626 60.0976C326.626 57.7424 327.343 54.8752 328.776 51.496C330.875 46.4784 333.743 43.0992 337.378 41.3584C338.811 40.6928 340.219 40.36 341.602 40.36C343.035 40.36 344.162 40.744 344.981 41.512C345.954 42.4336 346.44 43.5088 346.44 44.7376C346.44 45.9152 346.312 47.016 346.056 48.04C345.8 49.064 345.263 49.9856 344.443 50.8048C343.675 51.5728 342.805 51.9568 341.832 51.9568C341.423 51.9568 341.115 51.6752 340.911 51.112C341.32 51.112 341.858 50.3952 342.523 48.9616C343.24 47.4768 343.599 46.0176 343.599 44.584C343.599 43.1504 342.984 42.4336 341.755 42.4336C339.093 42.4336 336.661 44.6608 334.459 49.1152C332.309 53.5696 331.234 57.896 331.234 62.0944Z" fill="black"/>
<path d="M370.89 10.408C373.194 10.408 374.346 11.944 374.346 15.016C374.346 15.784 374.269 16.68 374.116 17.704C373.348 22.568 371.325 27.5856 368.048 32.7568C365.693 36.4944 363.466 38.8496 361.367 39.8224C360.343 45.352 359.447 50.3696 358.679 54.8752H359.216C363.517 45.3008 367.869 40.5136 372.272 40.5136C373.86 40.5136 375.088 41 375.959 41.9728C376.88 42.9456 377.341 44.2768 377.341 45.9664C377.341 47.656 376.676 51.368 375.344 57.1024C374.013 62.7856 373.348 66.7536 373.348 69.0064C373.348 72.3344 373.962 73.9984 375.191 73.9984C375.191 74.3568 374.96 74.7152 374.5 75.0736C374.039 75.432 373.501 75.6112 372.887 75.6112C369.917 75.6112 368.432 73.2816 368.432 68.6224C368.432 65.7552 369.175 61.5056 370.66 55.8736C372.196 50.1904 372.964 46.5296 372.964 44.8912C372.964 43.2528 372.324 42.4336 371.044 42.4336C369.559 42.4336 367.92 43.688 366.128 46.1968C364.336 48.7056 362.672 51.9056 361.136 55.7968C358.576 62.0432 356.656 67.2656 355.376 71.464C355.069 72.488 354.634 73 354.071 73C353.149 73 352.458 72.4368 351.997 71.3104C351.741 70.696 351.613 70.056 351.613 69.3904C351.613 68.6736 351.818 67.3936 352.228 65.5504C352.637 63.656 353.328 60.3536 354.301 55.6432C355.223 50.9328 356.016 47.0416 356.682 43.9696C357.348 40.8464 358.116 37.3648 358.986 33.5248C359.856 29.6336 360.676 26.4848 361.444 24.0784C362.263 21.6208 363.184 19.2656 364.208 17.0128C366.154 12.6096 368.381 10.408 370.89 10.408ZM372.58 15.1696C372.58 13.5312 372.119 12.5328 371.197 12.1744C368.176 12.1744 365.053 20.6224 361.828 37.5184C363.876 36.0848 366 33.2176 368.202 28.9168C371.12 23.1312 372.58 18.5488 372.58 15.1696Z" fill="black"/>
<path d="M388.873 61.7872C388.873 67.9824 391.075 71.08 395.478 71.08C397.116 71.08 398.832 70.3632 400.624 68.9296C402.467 67.4448 404.131 65.6784 405.616 63.6304C408.892 58.92 411.196 55.08 412.528 52.1104L413.526 49.96H415.6C414.729 52.008 413.449 54.5424 411.76 57.5632C410.07 60.5328 408.457 63.0416 406.921 65.0896C405.385 67.1376 403.568 69.0064 401.468 70.696C399.369 72.3344 397.372 73.1536 395.478 73.1536C387.9 73.1536 384.112 68.904 384.112 60.4048C384.112 56.4624 385.264 52.52 387.568 48.5776C390.742 43.0992 394.659 40.36 399.318 40.36C402.595 40.36 404.233 42.152 404.233 45.736C404.233 48.3984 403.209 51.1632 401.161 54.0304C398.294 57.9216 394.94 59.8928 391.1 59.944C390.537 59.944 390.179 59.688 390.025 59.176L389.948 58.8688C392.611 58.8688 395.145 57.128 397.552 53.6464C400.009 50.1136 401.238 47.1696 401.238 44.8144C401.238 43.2272 400.624 42.4336 399.395 42.4336C396.681 42.4336 394.147 44.8144 391.792 49.576C389.846 53.6208 388.873 57.6912 388.873 61.7872Z" fill="black"/>
<path d="M415.788 69.2368C414.764 69.2368 413.792 69.8768 412.87 71.1568C411.897 72.3856 411.027 73 410.259 73C409.491 73 409.107 72.8208 409.107 72.4624C409.107 72.3088 409.158 72.1808 409.26 72.0784C416.172 63.3744 423.187 55.2592 430.304 47.7328C428.768 48.1424 427.232 48.3472 425.696 48.3472C421.241 48.3472 418.451 47.0416 417.324 44.4304C417.068 43.7648 416.94 43.048 416.94 42.28C416.94 41.4608 417.299 40.6416 418.016 39.8224C418.784 38.952 419.628 38.5168 420.55 38.5168C421.472 38.5168 422.137 38.696 422.547 39.0544C423.008 39.3616 423.315 39.848 423.468 40.5136C422.7 40.5136 422.214 40.9488 422.009 41.8192C421.958 42.0752 421.932 42.3056 421.932 42.5104C421.932 43.5344 422.649 44.328 424.083 44.8912C425.004 45.2496 426.361 45.4288 428.153 45.4288C429.996 45.4288 431.788 45.096 433.529 44.4304C436.345 41.7168 438.163 40.36 438.982 40.36C439.392 40.36 439.596 40.5136 439.596 40.8208C439.596 41.128 439.212 41.8192 438.444 42.8944C437.676 43.9696 436.217 45.096 434.067 46.2736C430.278 50.472 424.288 57.4352 416.096 67.1632C416.3 67.112 416.71 67.0864 417.324 67.0864C417.99 67.0864 419.347 67.5728 421.395 68.5456C423.494 69.5184 425.363 70.0048 427.001 70.0048C429.971 70.0048 431.968 68.8016 432.992 66.3952C433.299 65.6272 433.452 64.9104 433.452 64.2448C433.452 63.528 433.273 62.9392 432.915 62.4784C432.556 62.0176 432.121 61.7872 431.609 61.7872C431.712 61.1216 432.096 60.7888 432.761 60.7888C434.656 60.7888 435.603 62.2736 435.603 65.2432C435.603 67.3936 434.784 69.5184 433.145 71.6176C431.507 73.7168 429.203 74.7664 426.233 74.7664C424.8 74.7664 423.52 74.4592 422.393 73.8448C421.267 73.2816 420.422 72.6672 419.859 72.0016C418.22 70.1584 416.864 69.2368 415.788 69.2368Z" fill="black"/>
</svg>
