<svg xmlns="http://www.w3.org/2000/svg" viewBox="0 0 21350 285" width="21350" height="285"><g fill="none" stroke="#2e3440" stroke-width="3"><path d="M83.28 234.22c-24.5-24.5-37.99-57.07-37.99-91.72s13.49-67.22 37.99-91.72S140.35 12.79 175 12.79s67.22 13.49 91.72 37.99 37.99 57.07 37.99 91.72-13.49 67.22-37.99 91.72-57.07 37.99-91.72 37.99-67.22-13.49-91.72-37.99zM61.5 142.5C61.5 205.08 112.42 256 175 256s113.5-50.92 113.5-113.5S237.58 29 175 29 61.5 79.92 61.5 142.5z" stroke-dasharray="0,815.2362191865923" stroke-dashoffset="815.236219"/><path d="M166.89 191.14c0-20.46 7.97-39.7 22.44-54.17 9.06-9.06 14.04-21.1 14.04-33.9 0-14.02-11.4-25.43-25.42-25.43h-1.85c-14.02 0-25.42 11.41-25.42 25.43v2.95c0 4.48-3.63 8.11-8.11 8.11-4.48 0-8.11-3.63-8.11-8.11v-2.95c0-22.96 18.68-41.64 41.64-41.64h1.85c22.96 0 41.64 18.68 41.64 41.64 0 17.14-6.67 33.25-18.79 45.37-11.41 11.4-17.69 26.57-17.69 42.7 0 4.48-3.63 8.11-8.11 8.11-4.48 0-8.11-3.63-8.11-8.11z" stroke-dasharray="0,466.9355703618599" stroke-dashoffset="466.93557"/><path d="M166.9 223.57c0-4.48 3.63-8.11 8.11-8.11 4.48 0 8.11 3.63 8.11 8.11 0 4.48-3.63 8.11-8.11 8.11-4.48 0-8.11-3.63-8.11-8.11z" stroke-dasharray="0,50.965467766438415" stroke-dashoffset="50.965468"/></g><g fill="none" stroke="#2e3440" stroke-width="3"><path d="M433.28 234.22c-24.5-24.5-37.99-57.07-37.99-91.72s13.49-67.22 37.99-91.72S490.35 12.79 525 12.79s67.22 13.49 91.72 37.99 37.99 57.07 37.99 91.72-13.49 67.22-37.99 91.72-57.07 37.99-91.72 37.99-67.22-13.49-91.72-37.99zM411.5 142.5c0 62.58 50.92 113.5 113.5 113.5s113.5-50.92 113.5-113.5S587.58 29 525 29 411.5 79.92 411.5 142.5z" stroke-dasharray="0.4875935999666573,814.7486255866256" stroke-dashoffset="815.236219"/><path d="M516.89 191.14c0-20.46 7.97-39.7 22.44-54.17 9.06-9.06 14.04-21.1 14.04-33.9 0-14.02-11.4-25.43-25.42-25.43h-1.85c-14.02 0-25.42 11.41-25.42 25.43v2.95c0 4.48-3.63 8.11-8.11 8.11-4.48 0-8.11-3.63-8.11-8.11v-2.95c0-22.96 18.68-41.64 41.64-41.64h1.85c22.96 0 41.64 18.68 41.64 41.64 0 17.14-6.67 33.25-18.79 45.37-11.41 11.4-17.69 26.57-17.69 42.7 0 4.48-3.63 8.11-8.11 8.11-4.48 0-8.11-3.63-8.11-8.11z" stroke-dasharray="0.2792746327345316,466.65629572912536" stroke-dashoffset="466.93557"/><path d="M516.9 223.57c0-4.48 3.63-8.11 8.11-8.11 4.48 0 8.11 3.63 8.11 8.11 0 4.48-3.63 8.11-8.11 8.11-4.48 0-8.11-3.63-8.11-8.11z" stroke-dasharray="0.03048249736379112,50.93498526907462" stroke-dashoffset="50.965468"/></g><g fill="none" stroke="#2e3440" stroke-width="3"><path d="M783.28 234.22c-24.5-24.5-37.99-57.07-37.99-91.72s13.49-67.22 37.99-91.72S840.35 12.79 875 12.79s67.22 13.49 91.72 37.99 37.99 57.07 37.99 91.72-13.49 67.22-37.99 91.72-57.07 37.99-91.72 37.99-67.22-13.49-91.72-37.99zM761.5 142.5c0 62.58 50.92 113.5 113.5 113.5s113.5-50.92 113.5-113.5S937.58 29 875 29 761.5 79.92 761.5 142.5z" stroke-dasharray="2.018091478122495,813.2181277084698" stroke-dashoffset="815.236219"/><path d="M866.89 191.14c0-20.46 7.97-39.7 22.44-54.17 9.06-9.06 14.04-21.1 14.04-33.9 0-14.02-11.4-25.43-25.42-25.43h-1.85c-14.02 0-25.42 11.41-25.42 25.43v2.95c0 4.48-3.63 8.11-8.11 8.11-4.48 0-8.11-3.63-8.11-8.11v-2.95c0-22.96 18.68-41.64 41.64-41.64h1.85c22.96 0 41.64 18.68 41.64 41.64 0 17.14-6.67 33.25-18.79 45.37-11.41 11.4-17.69 26.57-17.69 42.7 0 4.48-3.63 8.11-8.11 8.11-4.48 0-8.11-3.63-8.11-8.11z" stroke-dasharray="1.1558842372334013,465.7796861246265" stroke-dashoffset="466.93557"/><path d="M866.9 223.57c0-4.48 3.63-8.11 8.11-8.11 4.48 0 8.11 3.63 8.11 8.11 0 4.48-3.63 8.11-8.11 8.11-4.48 0-8.11-3.63-8.11-8.11z" stroke-dasharray="0.12616340363360984,50.8393043628048" stroke-dashoffset="50.965468"/></g><g fill="none" stroke="#2e3440" stroke-width="3"><path d="M1133.28 234.22c-24.5-24.5-37.99-57.07-37.99-91.72s13.49-67.22 37.99-91.72 57.07-37.99 91.72-37.99 67.22 13.49 91.72 37.99 37.99 57.07 37.99 91.72-13.49 67.22-37.99 91.72-57.07 37.99-91.72 37.99-67.22-13.49-91.72-37.99zm-21.78-91.72c0 62.58 50.92 113.5 113.5 113.5s113.5-50.92 113.5-113.5S1287.58 29 1225 29s-113.5 50.92-113.5 113.5z" stroke-dasharray="4.704086006467337,810.532133180125" stroke-dashoffset="815.236219"/><path d="M1216.89 191.14c0-20.46 7.97-39.7 22.44-54.17 9.06-9.06 14.04-21.1 14.04-33.9 0-14.02-11.4-25.43-25.42-25.43h-1.85c-14.02 0-25.42 11.41-25.42 25.43v2.95c0 4.48-3.63 8.11-8.11 8.11-4.48 0-8.11-3.63-8.11-8.11v-2.95c0-22.96 18.68-41.64 41.64-41.64h1.85c22.96 0 41.64 18.68 41.64 41.64 0 17.14-6.67 33.25-18.79 45.37-11.41 11.4-17.69 26.57-17.69 42.7 0 4.48-3.63 8.11-8.11 8.11-4.48 0-8.11-3.63-8.11-8.11z" stroke-dasharray="2.6943173411169687,464.24125302074293" stroke-dashoffset="466.93557"/><path d="M1216.9 223.57c0-4.48 3.63-8.11 8.11-8.11 4.48 0 8.11 3.63 8.11 8.11 0 4.48-3.63 8.11-8.11 8.11-4.48 0-8.11-3.63-8.11-8.11z" stroke-dasharray="0.29408156567476024,50.671386200763656" stroke-dashoffset="50.965468"/></g><g fill="none" stroke="#2e3440" stroke-width="3"><path d="M1483.28 234.22c-24.5-24.5-37.99-57.07-37.99-91.72s13.49-67.22 37.99-91.72 57.07-37.99 91.72-37.99 67.22 13.49 91.72 37.99 37.99 57.07 37.99 91.72-13.49 67.22-37.99 91.72-57.07 37.99-91.72 37.99-67.22-13.49-91.72-37.99zm-21.78-91.72c0 62.58 50.92 113.5 113.5 113.5s113.5-50.92 113.5-113.5S1637.58 29 1575 29s-113.5 50.92-113.5 113.5z" stroke-dasharray="8.674728758992213,806.5614904276" stroke-dashoffset="815.236219"/><path d="M1566.89 191.14c0-20.46 7.97-39.7 22.44-54.17 9.06-9.06 14.04-21.1 14.04-33.9 0-14.02-11.4-25.43-25.42-25.43h-1.85c-14.02 0-25.42 11.41-25.42 25.43v2.95c0 4.48-3.63 8.11-8.11 8.11-4.48 0-8.11-3.63-8.11-8.11v-2.95c0-22.96 18.68-41.64 41.64-41.64h1.85c22.96 0 41.64 18.68 41.64 41.64 0 17.14-6.67 33.25-18.79 45.37-11.41 11.4-17.69 26.57-17.69 42.7 0 4.48-3.63 8.11-8.11 8.11-4.48 0-8.11-3.63-8.11-8.11z" stroke-dasharray="4.968546938279942,461.9670234235799" stroke-dashoffset="466.93557"/><path d="M1566.9 223.57c0-4.48 3.63-8.11 8.11-8.11 4.48 0 8.11 3.63 8.11 8.11 0 4.48-3.63 8.11-8.11 8.11-4.48 0-8.11-3.63-8.11-8.11z" stroke-dasharray="0.5423110486800181,50.423156717758395" stroke-dashoffset="50.965468"/></g><g fill="none" stroke="#2e3440" stroke-width="3"><path d="M1833.28 234.22c-24.5-24.5-37.99-57.07-37.99-91.72s13.49-67.22 37.99-91.72 57.07-37.99 91.72-37.99 67.22 13.49 91.72 37.99 37.99 57.07 37.99 91.72-13.49 67.22-37.99 91.72-57.07 37.99-91.72 37.99-67.22-13.49-91.72-37.99zm-21.78-91.72c0 62.58 50.92 113.5 113.5 113.5s113.5-50.92 113.5-113.5S1987.58 29 1925 29s-113.5 50.92-113.5 113.5z" stroke-dasharray="14.078238231554558,801.1579809550377" stroke-dashoffset="815.236219"/><path d="M1916.89 191.14c0-20.46 7.97-39.7 22.44-54.17 9.06-9.06 14.04-21.1 14.04-33.9 0-14.02-11.4-25.43-25.42-25.43h-1.85c-14.02 0-25.42 11.41-25.42 25.43v2.95c0 4.48-3.63 8.11-8.11 8.11-4.48 0-8.11-3.63-8.11-8.11v-2.95c0-22.96 18.68-41.64 41.64-41.64h1.85c22.96 0 41.64 18.68 41.64 41.64 0 17.14-6.67 33.25-18.79 45.37-11.41 11.4-17.69 26.57-17.69 42.7 0 4.48-3.63 8.11-8.11 8.11-4.48 0-8.11-3.63-8.11-8.11z" stroke-dasharray="8.063466813213912,458.87210354864595" stroke-dashoffset="466.93557"/><path d="M1916.9 223.57c0-4.48 3.63-8.11 8.11-8.11 4.48 0 8.11 3.63 8.11 8.11 0 4.48-3.63 8.11-8.11 8.11-4.48 0-8.11-3.63-8.11-8.11z" stroke-dasharray="0.8801179092784045,50.08534985716001" stroke-dashoffset="50.965468"/></g><g fill="none" stroke="#2e3440" stroke-width="3"><path d="M2183.28 234.22c-24.5-24.5-37.99-57.07-37.99-91.72s13.49-67.22 37.99-91.72 57.07-37.99 91.72-37.99 67.22 13.49 91.72 37.99 37.99 57.07 37.99 91.72-13.49 67.22-37.99 91.72-57.07 37.99-91.72 37.99-67.22-13.49-91.72-37.99zm-21.78-91.72c0 62.58 50.92 113.5 113.5 113.5s113.5-50.92 113.5-113.5S2337.58 29 2275 29s-113.5 50.92-113.5 113.5z" stroke-dasharray="21.084466476842064,794.1517527097502" stroke-dashoffset="815.236219"/><path d="M2266.89 191.14c0-20.46 7.97-39.7 22.44-54.17 9.06-9.06 14.04-21.1 14.04-33.9 0-14.02-11.4-25.43-25.42-25.43h-1.85c-14.02 0-25.42 11.41-25.42 25.43v2.95c0 4.48-3.63 8.11-8.11 8.11-4.48 0-8.11-3.63-8.11-8.11v-2.95c0-22.96 18.68-41.64 41.64-41.64h1.85c22.96 0 41.64 18.68 41.64 41.64 0 17.14-6.67 33.25-18.79 45.37-11.41 11.4-17.69 26.57-17.69 42.7 0 4.48-3.63 8.11-8.11 8.11-4.48 0-8.11-3.63-8.11-8.11z" stroke-dasharray="12.076361609599202,454.8592087522607" stroke-dashoffset="466.93557"/><path d="M2266.9 223.57c0-4.48 3.63-8.11 8.11-8.11 4.48 0 8.11 3.63 8.11 8.11 0 4.48-3.63 8.11-8.11 8.11-4.48 0-8.11-3.63-8.11-8.11z" stroke-dasharray="1.3181206517912256,49.64734711464719" stroke-dashoffset="50.965468"/></g><g fill="none" stroke="#2e3440" stroke-width="3"><path d="M2533.28 234.22c-24.5-24.5-37.99-57.07-37.99-91.72s13.49-67.22 37.99-91.72 57.07-37.99 91.72-37.99 67.22 13.49 91.72 37.99 37.99 57.07 37.99 91.72-13.49 67.22-37.99 91.72-57.07 37.99-91.72 37.99-67.22-13.49-91.72-37.99zm-21.78-91.72c0 62.58 50.92 113.5 113.5 113.5s113.5-50.92 113.5-113.5S2687.58 29 2625 29s-113.5 50.92-113.5 113.5z" stroke-dasharray="29.887183092882356,785.3490360937099" stroke-dashoffset="815.236219"/><path d="M2616.89 191.14c0-20.46 7.97-39.7 22.44-54.17 9.06-9.06 14.04-21.1 14.04-33.9 0-14.02-11.4-25.43-25.42-25.43h-1.85c-14.02 0-25.42 11.41-25.42 25.43v2.95c0 4.48-3.63 8.11-8.11 8.11-4.48 0-8.11-3.63-8.11-8.11v-2.95c0-22.96 18.68-41.64 41.64-41.64h1.85c22.96 0 41.64 18.68 41.64 41.64 0 17.14-6.67 33.25-18.79 45.37-11.41 11.4-17.69 26.57-17.69 42.7 0 4.48-3.63 8.11-8.11 8.11-4.48 0-8.11-3.63-8.11-8.11z" stroke-dasharray="17.118215010010776,449.81735535184913" stroke-dashoffset="466.93557"/><path d="M2616.9 223.57c0-4.48 3.63-8.11 8.11-8.11 4.48 0 8.11 3.63 8.11 8.11 0 4.48-3.63 8.11-8.11 8.11-4.48 0-8.11-3.63-8.11-8.11z" stroke-dasharray="1.8684330145068098,49.0970347519316" stroke-dashoffset="50.965468"/></g><g fill="none" stroke="#2e3440" stroke-width="3"><path d="M2883.28 234.22c-24.5-24.5-37.99-57.07-37.99-91.72s13.49-67.22 37.99-91.72 57.07-37.99 91.72-37.99 67.22 13.49 91.72 37.99 37.99 57.07 37.99 91.72-13.49 67.22-37.99 91.72-57.07 37.99-91.72 37.99-67.22-13.49-91.72-37.99zm-21.78-91.72c0 62.58 50.92 113.5 113.5 113.5s113.5-50.92 113.5-113.5S3037.58 29 2975 29s-113.5 50.92-113.5 113.5z" stroke-dasharray="40.70540228483658,774.5308169017557" stroke-dashoffset="815.236219"/><path d="M2966.89 191.14c0-20.46 7.97-39.7 22.44-54.17 9.06-9.06 14.04-21.1 14.04-33.9 0-14.02-11.4-25.43-25.42-25.43h-1.85c-14.02 0-25.42 11.41-25.42 25.43v2.95c0 4.48-3.63 8.11-8.11 8.11-4.48 0-8.11-3.63-8.11-8.11v-2.95c0-22.96 18.68-41.64 41.64-41.64h1.85c22.96 0 41.64 18.68 41.64 41.64 0 17.14-6.67 33.25-18.79 45.37-11.41 11.4-17.69 26.57-17.69 42.7 0 4.48-3.63 8.11-8.11 8.11-4.48 0-8.11-3.63-8.11-8.11z" stroke-dasharray="23.314469825252974,443.6211005366069" stroke-dashoffset="466.93557"/><path d="M2966.9 223.57c0-4.48 3.63-8.11 8.11-8.11 4.48 0 8.11 3.63 8.11 8.11 0 4.48-3.63 8.11-8.11 8.11-4.48 0-8.11-3.63-8.11-8.11z" stroke-dasharray="2.544746932536516,48.420720833901896" stroke-dashoffset="50.965468"/></g><g fill="none" stroke="#2e3440" stroke-width="3"><path d="M3233.28 234.22c-24.5-24.5-37.99-57.07-37.99-91.72s13.49-67.22 37.99-91.72 57.07-37.99 91.72-37.99 67.22 13.49 91.72 37.99 37.99 57.07 37.99 91.72-13.49 67.22-37.99 91.72-57.07 37.99-91.72 37.99-67.22-13.49-91.72-37.99zm-21.78-91.72c0 62.58 50.92 113.5 113.5 113.5s113.5-50.92 113.5-113.5S3387.58 29 3325 29s-113.5 50.92-113.5 113.5z" stroke-dasharray="53.78251281594955,761.4537063706427" stroke-dashoffset="815.236219"/><path d="M3316.89 191.14c0-20.46 7.97-39.7 22.44-54.17 9.06-9.06 14.04-21.1 14.04-33.9 0-14.02-11.4-25.43-25.42-25.43h-1.85c-14.02 0-25.42 11.41-25.42 25.43v2.95c0 4.48-3.63 8.11-8.11 8.11-4.48 0-8.11-3.63-8.11-8.11v-2.95c0-22.96 18.68-41.64 41.64-41.64h1.85c22.96 0 41.64 18.68 41.64 41.64 0 17.14-6.67 33.25-18.79 45.37-11.41 11.4-17.69 26.57-17.69 42.7 0 4.48-3.63 8.11-8.11 8.11-4.48 0-8.11-3.63-8.11-8.11z" stroke-dasharray="30.804529664133526,436.1310406977264" stroke-dashoffset="466.93557"/><path d="M3316.9 223.57c0-4.48 3.63-8.11 8.11-8.11 4.48 0 8.11 3.63 8.11 8.11 0 4.48-3.63 8.11-8.11 8.11-4.48 0-8.11-3.63-8.11-8.11z" stroke-dasharray="3.3622781456572683,47.60318962078115" stroke-dashoffset="50.965468"/></g><g fill="none" stroke="#2e3440" stroke-width="3"><path d="M3583.28 234.22c-24.5-24.5-37.99-57.07-37.99-91.72s13.49-67.22 37.99-91.72 57.07-37.99 91.72-37.99 67.22 13.49 91.72 37.99 37.99 57.07 37.99 91.72-13.49 67.22-37.99 91.72-57.07 37.99-91.72 37.99-67.22-13.49-91.72-37.99zm-21.78-91.72c0 62.58 50.92 113.5 113.5 113.5s113.5-50.92 113.5-113.5S3737.58 29 3675 29s-113.5 50.92-113.5 113.5z" stroke-dasharray="69.38107105616389,745.8551481304283" stroke-dashoffset="815.236219"/><path d="M3666.89 191.14c0-20.46 7.97-39.7 22.44-54.17 9.06-9.06 14.04-21.1 14.04-33.9 0-14.02-11.4-25.43-25.42-25.43h-1.85c-14.02 0-25.42 11.41-25.42 25.43v2.95c0 4.48-3.63 8.11-8.11 8.11-4.48 0-8.11-3.63-8.11-8.11v-2.95c0-22.96 18.68-41.64 41.64-41.64h1.85c22.96 0 41.64 18.68 41.64 41.64 0 17.14-6.67 33.25-18.79 45.37-11.41 11.4-17.69 26.57-17.69 42.7 0 4.48-3.63 8.11-8.11 8.11-4.48 0-8.11-3.63-8.11-8.11z" stroke-dasharray="39.73877659440897,427.1967937674509" stroke-dashoffset="466.93557"/><path d="M3666.9 223.57c0-4.48 3.63-8.11 8.11-8.11 4.48 0 8.11 3.63 8.11 8.11 0 4.48-3.63 8.11-8.11 8.11-4.48 0-8.11-3.63-8.11-8.11z" stroke-dasharray="4.337440679514953,46.62802708692346" stroke-dashoffset="50.965468"/></g><g fill="none" stroke="#2e3440" stroke-width="3"><path d="M3933.28 234.22c-24.5-24.5-37.99-57.07-37.99-91.72s13.49-67.22 37.99-91.72 57.07-37.99 91.72-37.99 67.22 13.49 91.72 37.99 37.99 57.07 37.99 91.72-13.49 67.22-37.99 91.72-57.07 37.99-91.72 37.99-67.22-13.49-91.72-37.99zm-21.78-91.72c0 62.58 50.92 113.5 113.5 113.5s113.5-50.92 113.5-113.5S4087.58 29 4025 29s-113.5 50.92-113.5 113.5z" stroke-dasharray="87.7698423955421,727.4663767910502" stroke-dashoffset="815.236219"/><path d="M4016.89 191.14c0-20.46 7.97-39.7 22.44-54.17 9.06-9.06 14.04-21.1 14.04-33.9 0-14.02-11.4-25.43-25.42-25.43h-1.85c-14.02 0-25.42 11.41-25.42 25.43v2.95c0 4.48-3.63 8.11-8.11 8.11-4.48 0-8.11-3.63-8.11-8.11v-2.95c0-22.96 18.68-41.64 41.64-41.64h1.85c22.96 0 41.64 18.68 41.64 41.64 0 17.14-6.67 33.25-18.79 45.37-11.41 11.4-17.69 26.57-17.69 42.7 0 4.48-3.63 8.11-8.11 8.11-4.48 0-8.11-3.63-8.11-8.11z" stroke-dasharray="50.271148968852174,416.66442139300773" stroke-dashoffset="466.93557"/><path d="M4016.9 223.57c0-4.48 3.63-8.11 8.11-8.11 4.48 0 8.11 3.63 8.11 8.11 0 4.48-3.63 8.11-8.11 8.11-4.48 0-8.11-3.63-8.11-8.11z" stroke-dasharray="5.487036724078058,45.478431042360356" stroke-dashoffset="50.965468"/></g><g fill="none" stroke="#2e3440" stroke-width="3"><path d="M4283.28 234.22c-24.5-24.5-37.99-57.07-37.99-91.72s13.49-67.22 37.99-91.72 57.07-37.99 91.72-37.99 67.22 13.49 91.72 37.99 37.99 57.07 37.99 91.72-13.49 67.22-37.99 91.72-57.07 37.99-91.72 37.99-67.22-13.49-91.72-37.99zm-21.78-91.72c0 62.58 50.92 113.5 113.5 113.5s113.5-50.92 113.5-113.5S4437.58 29 4375 29s-113.5 50.92-113.5 113.5z" stroke-dasharray="109.19826248528463,706.0379567013076" stroke-dashoffset="815.236219"/><path d="M4366.89 191.14c0-20.46 7.97-39.7 22.44-54.17 9.06-9.06 14.04-21.1 14.04-33.9 0-14.02-11.4-25.43-25.42-25.43h-1.85c-14.02 0-25.42 11.41-25.42 25.43v2.95c0 4.48-3.63 8.11-8.11 8.11-4.48 0-8.11-3.63-8.11-8.11v-2.95c0-22.96 18.68-41.64 41.64-41.64h1.85c22.96 0 41.64 18.68 41.64 41.64 0 17.14-6.67 33.25-18.79 45.37-11.41 11.4-17.69 26.57-17.69 42.7 0 4.48-3.63 8.11-8.11 8.11-4.48 0-8.11-3.63-8.11-8.11z" stroke-dasharray="62.544513818295094,404.3910565435648" stroke-dashoffset="466.93557"/><path d="M4366.9 223.57c0-4.48 3.63-8.11 8.11-8.11 4.48 0 8.11 3.63 8.11 8.11 0 4.48-3.63 8.11-8.11 8.11-4.48 0-8.11-3.63-8.11-8.11z" stroke-dasharray="6.826660047559851,44.13880771887856" stroke-dashoffset="50.965468"/></g><g fill="none" stroke="#2e3440" stroke-width="3"><path d="M4633.28 234.22c-24.5-24.5-37.99-57.07-37.99-91.72s13.49-67.22 37.99-91.72 57.07-37.99 91.72-37.99 67.22 13.49 91.72 37.99 37.99 57.07 37.99 91.72-13.49 67.22-37.99 91.72-57.07 37.99-91.72 37.99-67.22-13.49-91.72-37.99zm-21.78-91.72c0 62.58 50.92 113.5 113.5 113.5s113.5-50.92 113.5-113.5S4787.58 29 4725 29s-113.5 50.92-113.5 113.5z" stroke-dasharray="133.85293160128748,681.3832875853047" stroke-dashoffset="815.236219"/><path d="M4716.89 191.14c0-20.46 7.97-39.7 22.44-54.17 9.06-9.06 14.04-21.1 14.04-33.9 0-14.02-11.4-25.43-25.42-25.43h-1.85c-14.02 0-25.42 11.41-25.42 25.43v2.95c0 4.48-3.63 8.11-8.11 8.11-4.48 0-8.11-3.63-8.11-8.11v-2.95c0-22.96 18.68-41.64 41.64-41.64h1.85c22.96 0 41.64 18.68 41.64 41.64 0 17.14-6.67 33.25-18.79 45.37-11.41 11.4-17.69 26.57-17.69 42.7 0 4.48-3.63 8.11-8.11 8.11-4.48 0-8.11-3.63-8.11-8.11z" stroke-dasharray="76.66574851668723,390.26982184517266" stroke-dashoffset="466.93557"/><path d="M4716.9 223.57c0-4.48 3.63-8.11 8.11-8.11 4.48 0 8.11 3.63 8.11 8.11 0 4.48-3.63 8.11-8.11 8.11-4.48 0-8.11-3.63-8.11-8.11z" stroke-dasharray="8.367976189496684,42.59749157694173" stroke-dashoffset="50.965468"/></g><g fill="none" stroke="#2e3440" stroke-width="3"><path d="M4983.28 234.22c-24.5-24.5-37.99-57.07-37.99-91.72s13.49-67.22 37.99-91.72 57.07-37.99 91.72-37.99 67.22 13.49 91.72 37.99 37.99 57.07 37.99 91.72-13.49 67.22-37.99 91.72-57.07 37.99-91.72 37.99-67.22-13.49-91.72-37.99zm-21.78-91.72c0 62.58 50.92 113.5 113.5 113.5s113.5-50.92 113.5-113.5S5137.58 29 5075 29s-113.5 50.92-113.5 113.5z" stroke-dasharray="161.7934590294358,653.4427601571564" stroke-dashoffset="815.236219"/><path d="M5066.89 191.14c0-20.46 7.97-39.7 22.44-54.17 9.06-9.06 14.04-21.1 14.04-33.9 0-14.02-11.4-25.43-25.42-25.43h-1.85c-14.02 0-25.42 11.41-25.42 25.43v2.95c0 4.48-3.63 8.11-8.11 8.11-4.48 0-8.11-3.63-8.11-8.11v-2.95c0-22.96 18.68-41.64 41.64-41.64h1.85c22.96 0 41.64 18.68 41.64 41.64 0 17.14-6.67 33.25-18.79 45.37-11.41 11.4-17.69 26.57-17.69 42.7 0 4.48-3.63 8.11-8.11 8.11-4.48 0-8.11-3.63-8.11-8.11z" stroke-dasharray="92.66899494247876,374.2665754193811" stroke-dashoffset="466.93557"/><path d="M5066.9 223.57c0-4.48 3.63-8.11 8.11-8.11 4.48 0 8.11 3.63 8.11 8.11 0 4.48-3.63 8.11-8.11 8.11-4.48 0-8.11-3.63-8.11-8.11z" stroke-dasharray="10.114711695725038,40.85075607071337" stroke-dashoffset="50.965468"/></g><g fill="none" stroke="#2e3440" stroke-width="3"><path d="M5333.28 234.22c-24.5-24.5-37.99-57.07-37.99-91.72s13.49-67.22 37.99-91.72 57.07-37.99 91.72-37.99 67.22 13.49 91.72 37.99 37.99 57.07 37.99 91.72-13.49 67.22-37.99 91.72-57.07 37.99-91.72 37.99-67.22-13.49-91.72-37.99zm-21.78-91.72c0 62.58 50.92 113.5 113.5 113.5s113.5-50.92 113.5-113.5S5487.58 29 5425 29s-113.5 50.92-113.5 113.5z" stroke-dasharray="192.87458525508958,622.3616339315028" stroke-dashoffset="815.236219"/><path d="M5416.89 191.14c0-20.46 7.97-39.7 22.44-54.17 9.06-9.06 14.04-21.1 14.04-33.9 0-14.02-11.4-25.43-25.42-25.43h-1.85c-14.02 0-25.42 11.41-25.42 25.43v2.95c0 4.48-3.63 8.11-8.11 8.11-4.48 0-8.11-3.63-8.11-8.11v-2.95c0-22.96 18.68-41.64 41.64-41.64h1.85c22.96 0 41.64 18.68 41.64 41.64 0 17.14-6.67 33.25-18.79 45.37-11.41 11.4-17.69 26.57-17.69 42.7 0 4.48-3.63 8.11-8.11 8.11-4.48 0-8.11-3.63-8.11-8.11z" stroke-dasharray="110.47105410043046,356.4645162614294" stroke-dashoffset="466.93557"/><path d="M5416.9 223.57c0-4.48 3.63-8.11 8.11-8.11 4.48 0 8.11 3.63 8.11 8.11 0 4.48-3.63 8.11-8.11 8.11-4.48 0-8.11-3.63-8.11-8.11z" stroke-dasharray="12.05778549386746,38.90768227257096" stroke-dashoffset="50.965468"/></g><g fill="none" stroke="#2e3440" stroke-width="3"><path d="M5683.28 234.22c-24.5-24.5-37.99-57.07-37.99-91.72s13.49-67.22 37.99-91.72 57.07-37.99 91.72-37.99 67.22 13.49 91.72 37.99 37.99 57.07 37.99 91.72-13.49 67.22-37.99 91.72-57.07 37.99-91.72 37.99-67.22-13.49-91.72-37.99zm-21.78-91.72c0 62.58 50.92 113.5 113.5 113.5s113.5-50.92 113.5-113.5S5837.58 29 5775 29s-113.5 50.92-113.5 113.5z" stroke-dasharray="226.6793144381505,588.5569047484419" stroke-dashoffset="815.236219"/><path d="M5766.89 191.14c0-20.46 7.97-39.7 22.44-54.17 9.06-9.06 14.04-21.1 14.04-33.9 0-14.02-11.4-25.43-25.42-25.43h-1.85c-14.02 0-25.42 11.41-25.42 25.43v2.95c0 4.48-3.63 8.11-8.11 8.11-4.48 0-8.11-3.63-8.11-8.11v-2.95c0-22.96 18.68-41.64 41.64-41.64h1.85c22.96 0 41.64 18.68 41.64 41.64 0 17.14-6.67 33.25-18.79 45.37-11.41 11.4-17.69 26.57-17.69 42.7 0 4.48-3.63 8.11-8.11 8.11-4.48 0-8.11-3.63-8.11-8.11z" stroke-dasharray="129.83308700638992,337.10248335547004" stroke-dashoffset="466.93557"/><path d="M5766.9 223.57c0-4.48 3.63-8.11 8.11-8.11 4.48 0 8.11 3.63 8.11 8.11 0 4.48-3.63 8.11-8.11 8.11-4.48 0-8.11-3.63-8.11-8.11z" stroke-dasharray="14.17112858999668,36.79433917644174" stroke-dashoffset="50.965468"/></g><g fill="none" stroke="#2e3440" stroke-width="3"><path d="M6033.28 234.22c-24.5-24.5-37.99-57.07-37.99-91.72s13.49-67.22 37.99-91.72 57.07-37.99 91.72-37.99 67.22 13.49 91.72 37.99 37.99 57.07 37.99 91.72-13.49 67.22-37.99 91.72-57.07 37.99-91.72 37.99-67.22-13.49-91.72-37.99zm-21.78-91.72c0 62.58 50.92 113.5 113.5 113.5s113.5-50.92 113.5-113.5S6187.58 29 6125 29s-113.5 50.92-113.5 113.5z" stroke-dasharray="262.5044513145505,552.7317678720418" stroke-dashoffset="815.236219"/><path d="M6116.89 191.14c0-20.46 7.97-39.7 22.44-54.17 9.06-9.06 14.04-21.1 14.04-33.9 0-14.02-11.4-25.43-25.42-25.43h-1.85c-14.02 0-25.42 11.41-25.42 25.43v2.95c0 4.48-3.63 8.11-8.11 8.11-4.48 0-8.11-3.63-8.11-8.11v-2.95c0-22.96 18.68-41.64 41.64-41.64h1.85c22.96 0 41.64 18.68 41.64 41.64 0 17.14-6.67 33.25-18.79 45.37-11.41 11.4-17.69 26.57-17.69 42.7 0 4.48-3.63 8.11-8.11 8.11-4.48 0-8.11-3.63-8.11-8.11z" stroke-dasharray="150.35233078749184,316.58323957436806" stroke-dashoffset="466.93557"/><path d="M6116.9 223.57c0-4.48 3.63-8.11 8.11-8.11 4.48 0 8.11 3.63 8.11 8.11 0 4.48-3.63 8.11-8.11 8.11-4.48 0-8.11-3.63-8.11-8.11z" stroke-dasharray="16.410779890725394,34.55468787571302" stroke-dashoffset="50.965468"/></g><g fill="none" stroke="#2e3440" stroke-width="3"><path d="M6383.28 234.22c-24.5-24.5-37.99-57.07-37.99-91.72s13.49-67.22 37.99-91.72 57.07-37.99 91.72-37.99 67.22 13.49 91.72 37.99 37.99 57.07 37.99 91.72-13.49 67.22-37.99 91.72-57.07 37.99-91.72 37.99-67.22-13.49-91.72-37.99zm-21.78-91.72c0 62.58 50.92 113.5 113.5 113.5s113.5-50.92 113.5-113.5S6537.58 29 6475 29s-113.5 50.92-113.5 113.5z" stroke-dasharray="299.43276454653284,515.8034546400595" stroke-dashoffset="815.236219"/><path d="M6466.89 191.14c0-20.46 7.97-39.7 22.44-54.17 9.06-9.06 14.04-21.1 14.04-33.9 0-14.02-11.4-25.43-25.42-25.43h-1.85c-14.02 0-25.42 11.41-25.42 25.43v2.95c0 4.48-3.63 8.11-8.11 8.11-4.48 0-8.11-3.63-8.11-8.11v-2.95c0-22.96 18.68-41.64 41.64-41.64h1.85c22.96 0 41.64 18.68 41.64 41.64 0 17.14-6.67 33.25-18.79 45.37-11.41 11.4-17.69 26.57-17.69 42.7 0 4.48-3.63 8.11-8.11 8.11-4.48 0-8.11-3.63-8.11-8.11z" stroke-dasharray="171.50343103998253,295.4321393218774" stroke-dashoffset="466.93557"/><path d="M6466.9 223.57c0-4.48 3.63-8.11 8.11-8.11 4.48 0 8.11 3.63 8.11 8.11 0 4.48-3.63 8.11-8.11 8.11-4.48 0-8.11-3.63-8.11-8.11z" stroke-dasharray="18.71939758140084,32.246070185037574" stroke-dashoffset="50.965468"/></g><g fill="none" stroke="#2e3440" stroke-width="3"><path d="M6733.28 234.22c-24.5-24.5-37.99-57.07-37.99-91.72s13.49-67.22 37.99-91.72 57.07-37.99 91.72-37.99 67.22 13.49 91.72 37.99 37.99 57.07 37.99 91.72-13.49 67.22-37.99 91.72-57.07 37.99-91.72 37.99-67.22-13.49-91.72-37.99zm-21.78-91.72c0 62.58 50.92 113.5 113.5 113.5s113.5-50.92 113.5-113.5S6887.58 29 6825 29s-113.5 50.92-113.5 113.5z" stroke-dasharray="336.4818313300002,478.7543878565921" stroke-dashoffset="815.236219"/><path d="M6816.89 191.14c0-20.46 7.97-39.7 22.44-54.17 9.06-9.06 14.04-21.1 14.04-33.9 0-14.02-11.4-25.43-25.42-25.43h-1.85c-14.02 0-25.42 11.41-25.42 25.43v2.95c0 4.48-3.63 8.11-8.11 8.11-4.48 0-8.11-3.63-8.11-8.11v-2.95c0-22.96 18.68-41.64 41.64-41.64h1.85c22.96 0 41.64 18.68 41.64 41.64 0 17.14-6.67 33.25-18.79 45.37-11.41 11.4-17.69 26.57-17.69 42.7 0 4.48-3.63 8.11-8.11 8.11-4.48 0-8.11-3.63-8.11-8.11z" stroke-dasharray="192.72369422599957,274.2118761358603" stroke-dashoffset="466.93557"/><path d="M6816.9 223.57c0-4.48 3.63-8.11 8.11-8.11 4.48 0 8.11 3.63 8.11 8.11 0 4.48-3.63 8.11-8.11 8.11-4.48 0-8.11-3.63-8.11-8.11z" stroke-dasharray="21.035564324842905,29.929903441595506" stroke-dashoffset="50.965468"/></g><g fill="none" stroke="#2e3440" stroke-width="3"><path d="M7083.28 234.22c-24.5-24.5-37.99-57.07-37.99-91.72s13.49-67.22 37.99-91.72 57.07-37.99 91.72-37.99 67.22 13.49 91.72 37.99 37.99 57.07 37.99 91.72-13.49 67.22-37.99 91.72-57.07 37.99-91.72 37.99-67.22-13.49-91.72-37.99zm-21.78-91.72c0 62.58 50.92 113.5 113.5 113.5s113.5-50.92 113.5-113.5S7237.58 29 7175 29s-113.5 50.92-113.5 113.5z" stroke-dasharray="372.76817958479774,442.46803960179454" stroke-dashoffset="815.236219"/><path d="M7166.89 191.14c0-20.46 7.97-39.7 22.44-54.17 9.06-9.06 14.04-21.1 14.04-33.9 0-14.02-11.4-25.43-25.42-25.43h-1.85c-14.02 0-25.42 11.41-25.42 25.43v2.95c0 4.48-3.63 8.11-8.11 8.11-4.48 0-8.11-3.63-8.11-8.11v-2.95c0-22.96 18.68-41.64 41.64-41.64h1.85c22.96 0 41.64 18.68 41.64 41.64 0 17.14-6.67 33.25-18.79 45.37-11.41 11.4-17.69 26.57-17.69 42.7 0 4.48-3.63 8.11-8.11 8.11-4.48 0-8.11-3.63-8.11-8.11z" stroke-dasharray="213.50710193034365,253.42846843151625" stroke-dashoffset="466.93557"/><path d="M7166.9 223.57c0-4.48 3.63-8.11 8.11-8.11 4.48 0 8.11 3.63 8.11 8.11 0 4.48-3.63 8.11-8.11 8.11-4.48 0-8.11-3.63-8.11-8.11z" stroke-dasharray="23.30404880678465,27.661418959653766" stroke-dashoffset="50.965468"/></g><g fill="none" stroke="#2e3440" stroke-width="3"><path d="M7433.28 234.22c-24.5-24.5-37.99-57.07-37.99-91.72s13.49-67.22 37.99-91.72 57.07-37.99 91.72-37.99 67.22 13.49 91.72 37.99 37.99 57.07 37.99 91.72-13.49 67.22-37.99 91.72-57.07 37.99-91.72 37.99-67.22-13.49-91.72-37.99zm-21.78-91.72c0 62.58 50.92 113.5 113.5 113.5s113.5-50.92 113.5-113.5S7587.58 29 7525 29s-113.5 50.92-113.5 113.5z" stroke-dasharray="407.618109593296,407.61810959329625" stroke-dashoffset="815.236219"/><path d="M7516.89 191.14c0-20.46 7.97-39.7 22.44-54.17 9.06-9.06 14.04-21.1 14.04-33.9 0-14.02-11.4-25.43-25.42-25.43h-1.85c-14.02 0-25.42 11.41-25.42 25.43v2.95c0 4.48-3.63 8.11-8.11 8.11-4.48 0-8.11-3.63-8.11-8.11v-2.95c0-22.96 18.68-41.64 41.64-41.64h1.85c22.96 0 41.64 18.68 41.64 41.64 0 17.14-6.67 33.25-18.79 45.37-11.41 11.4-17.69 26.57-17.69 42.7 0 4.48-3.63 8.11-8.11 8.11-4.48 0-8.11-3.63-8.11-8.11z" stroke-dasharray="233.4677851809299,233.46778518093" stroke-dashoffset="466.93557"/><path d="M7516.9 223.57c0-4.48 3.63-8.11 8.11-8.11 4.48 0 8.11 3.63 8.11 8.11 0 4.48-3.63 8.11-8.11 8.11-4.48 0-8.11-3.63-8.11-8.11z" stroke-dasharray="25.4827338832192,25.482733883219215" stroke-dashoffset="50.965468"/></g><g fill="none" stroke="#2e3440" stroke-width="3"><path d="M7783.28 234.22c-24.5-24.5-37.99-57.07-37.99-91.72s13.49-67.22 37.99-91.72 57.07-37.99 91.72-37.99 67.22 13.49 91.72 37.99 37.99 57.07 37.99 91.72-13.49 67.22-37.99 91.72-57.07 37.99-91.72 37.99-67.22-13.49-91.72-37.99zm-21.78-91.72c0 62.58 50.92 113.5 113.5 113.5s113.5-50.92 113.5-113.5S7937.58 29 7875 29s-113.5 50.92-113.5 113.5z" stroke-dasharray="440.5988154207622,374.6374037658301" stroke-dashoffset="815.236219"/><path d="M7866.89 191.14c0-20.46 7.97-39.7 22.44-54.17 9.06-9.06 14.04-21.1 14.04-33.9 0-14.02-11.4-25.43-25.42-25.43h-1.85c-14.02 0-25.42 11.41-25.42 25.43v2.95c0 4.48-3.63 8.11-8.11 8.11-4.48 0-8.11-3.63-8.11-8.11v-2.95c0-22.96 18.68-41.64 41.64-41.64h1.85c22.96 0 41.64 18.68 41.64 41.64 0 17.14-6.67 33.25-18.79 45.37-11.41 11.4-17.69 26.57-17.69 42.7 0 4.48-3.63 8.11-8.11 8.11-4.48 0-8.11-3.63-8.11-8.11z" stroke-dasharray="252.3578495868636,214.5777207749963" stroke-dashoffset="466.93557"/><path d="M7866.9 223.57c0-4.48 3.63-8.11 8.11-8.11 4.48 0 8.11 3.63 8.11 8.11 0 4.48-3.63 8.11-8.11 8.11-4.48 0-8.11-3.63-8.11-8.11z" stroke-dasharray="27.544562173234603,23.420905593203813" stroke-dashoffset="50.965468"/></g><g fill="none" stroke="#2e3440" stroke-width="3"><path d="M8133.28 234.22c-24.5-24.5-37.99-57.07-37.99-91.72s13.49-67.22 37.99-91.72 57.07-37.99 91.72-37.99 67.22 13.49 91.72 37.99 37.99 57.07 37.99 91.72-13.49 67.22-37.99 91.72-57.07 37.99-91.72 37.99-67.22-13.49-91.72-37.99zm-21.78-91.72c0 62.58 50.92 113.5 113.5 113.5s113.5-50.92 113.5-113.5S8287.58 29 8225 29s-113.5 50.92-113.5 113.5z" stroke-dasharray="471.4891242138295,343.7470949727628" stroke-dashoffset="815.236219"/><path d="M8216.89 191.14c0-20.46 7.97-39.7 22.44-54.17 9.06-9.06 14.04-21.1 14.04-33.9 0-14.02-11.4-25.43-25.42-25.43h-1.85c-14.02 0-25.42 11.41-25.42 25.43v2.95c0 4.48-3.63 8.11-8.11 8.11-4.48 0-8.11-3.63-8.11-8.11v-2.95c0-22.96 18.68-41.64 41.64-41.64h1.85c22.96 0 41.64 18.68 41.64 41.64 0 17.14-6.67 33.25-18.79 45.37-11.41 11.4-17.69 26.57-17.69 42.7 0 4.48-3.63 8.11-8.11 8.11-4.48 0-8.11-3.63-8.11-8.11z" stroke-dasharray="270.0506159476814,196.88495441417848" stroke-dashoffset="466.93557"/><path d="M8216.9 223.57c0-4.48 3.63-8.11 8.11-8.11 4.48 0 8.11 3.63 8.11 8.11 0 4.48-3.63 8.11-8.11 8.11-4.48 0-8.11-3.63-8.11-8.11z" stroke-dasharray="29.47570679124386,21.489760975194557" stroke-dashoffset="50.965468"/></g><g fill="none" stroke="#2e3440" stroke-width="3"><path d="M8483.28 234.22c-24.5-24.5-37.99-57.07-37.99-91.72s13.49-67.22 37.99-91.72 57.07-37.99 91.72-37.99 67.22 13.49 91.72 37.99 37.99 57.07 37.99 91.72-13.49 67.22-37.99 91.72-57.07 37.99-91.72 37.99-67.22-13.49-91.72-37.99zm-21.78-91.72c0 62.58 50.92 113.5 113.5 113.5s113.5-50.92 113.5-113.5S8637.58 29 8575 29s-113.5 50.92-113.5 113.5z" stroke-dasharray="500.2246612569811,315.0115579296112" stroke-dashoffset="815.236219"/><path d="M8566.89 191.14c0-20.46 7.97-39.7 22.44-54.17 9.06-9.06 14.04-21.1 14.04-33.9 0-14.02-11.4-25.43-25.42-25.43h-1.85c-14.02 0-25.42 11.41-25.42 25.43v2.95c0 4.48-3.63 8.11-8.11 8.11-4.48 0-8.11-3.63-8.11-8.11v-2.95c0-22.96 18.68-41.64 41.64-41.64h1.85c22.96 0 41.64 18.68 41.64 41.64 0 17.14-6.67 33.25-18.79 45.37-11.41 11.4-17.69 26.57-17.69 42.7 0 4.48-3.63 8.11-8.11 8.11-4.48 0-8.11-3.63-8.11-8.11z" stroke-dasharray="286.5092129323516,180.42635742950827" stroke-dashoffset="466.93557"/><path d="M8566.9 223.57c0-4.48 3.63-8.11 8.11-8.11 4.48 0 8.11 3.63 8.11 8.11 0 4.48-3.63 8.11-8.11 8.11-4.48 0-8.11-3.63-8.11-8.11z" stroke-dasharray="31.272143274874672,19.693324491563743" stroke-dashoffset="50.965468"/></g><g fill="none" stroke="#2e3440" stroke-width="3"><path d="M8833.28 234.22c-24.5-24.5-37.99-57.07-37.99-91.72s13.49-67.22 37.99-91.72 57.07-37.99 91.72-37.99 67.22 13.49 91.72 37.99 37.99 57.07 37.99 91.72-13.49 67.22-37.99 91.72-57.07 37.99-91.72 37.99-67.22-13.49-91.72-37.99zm-21.78-91.72c0 62.58 50.92 113.5 113.5 113.5s113.5-50.92 113.5-113.5S8987.58 29 8925 29s-113.5 50.92-113.5 113.5z" stroke-dasharray="526.8432426147687,288.39297657182357" stroke-dashoffset="815.236219"/><path d="M8916.89 191.14c0-20.46 7.97-39.7 22.44-54.17 9.06-9.06 14.04-21.1 14.04-33.9 0-14.02-11.4-25.43-25.42-25.43h-1.85c-14.02 0-25.42 11.41-25.42 25.43v2.95c0 4.48-3.63 8.11-8.11 8.11-4.48 0-8.11-3.63-8.11-8.11v-2.95c0-22.96 18.68-41.64 41.64-41.64h1.85c22.96 0 41.64 18.68 41.64 41.64 0 17.14-6.67 33.25-18.79 45.37-11.41 11.4-17.69 26.57-17.69 42.7 0 4.48-3.63 8.11-8.11 8.11-4.48 0-8.11-3.63-8.11-8.11z" stroke-dasharray="301.7553001105236,165.18027025133628" stroke-dashoffset="466.93557"/><path d="M8916.9 223.57c0-4.48 3.63-8.11 8.11-8.11 4.48 0 8.11 3.63 8.11 8.11 0 4.48-3.63 8.11-8.11 8.11-4.48 0-8.11-3.63-8.11-8.11z" stroke-dasharray="32.936235740653764,18.029232025784648" stroke-dashoffset="50.965468"/></g><g fill="none" stroke="#2e3440" stroke-width="3"><path d="M9183.28 234.22c-24.5-24.5-37.99-57.07-37.99-91.72s13.49-67.22 37.99-91.72 57.07-37.99 91.72-37.99 67.22 13.49 91.72 37.99 37.99 57.07 37.99 91.72-13.49 67.22-37.99 91.72-57.07 37.99-91.72 37.99-67.22-13.49-91.72-37.99zm-21.78-91.72c0 62.58 50.92 113.5 113.5 113.5s113.5-50.92 113.5-113.5S9337.58 29 9275 29s-113.5 50.92-113.5 113.5z" stroke-dasharray="551.4418670543332,263.794352132259" stroke-dashoffset="815.236219"/><path d="M9266.89 191.14c0-20.46 7.97-39.7 22.44-54.17 9.06-9.06 14.04-21.1 14.04-33.9 0-14.02-11.4-25.43-25.42-25.43h-1.85c-14.02 0-25.42 11.41-25.42 25.43v2.95c0 4.48-3.63 8.11-8.11 8.11-4.48 0-8.11-3.63-8.11-8.11v-2.95c0-22.96 18.68-41.64 41.64-41.64h1.85c22.96 0 41.64 18.68 41.64 41.64 0 17.14-6.67 33.25-18.79 45.37-11.41 11.4-17.69 26.57-17.69 42.7 0 4.48-3.63 8.11-8.11 8.11-4.48 0-8.11-3.63-8.11-8.11z" stroke-dasharray="315.84443459999153,151.09113576186834" stroke-dashoffset="466.93557"/><path d="M9266.9 223.57c0-4.48 3.63-8.11 8.11-8.11 4.48 0 8.11 3.63 8.11 8.11 0 4.48-3.63 8.11-8.11 8.11-4.48 0-8.11-3.63-8.11-8.11z" stroke-dasharray="34.47404818257915,16.491419583859265" stroke-dashoffset="50.965468"/></g><g fill="none" stroke="#2e3440" stroke-width="3"><path d="M9533.28 234.22c-24.5-24.5-37.99-57.07-37.99-91.72s13.49-67.22 37.99-91.72 57.07-37.99 91.72-37.99 67.22 13.49 91.72 37.99 37.99 57.07 37.99 91.72-13.49 67.22-37.99 91.72-57.07 37.99-91.72 37.99-67.22-13.49-91.72-37.99zm-21.78-91.72c0 62.58 50.92 113.5 113.5 113.5s113.5-50.92 113.5-113.5S9687.58 29 9625 29s-113.5 50.92-113.5 113.5z" stroke-dasharray="574.1470124121527,241.0892067744396" stroke-dashoffset="815.236219"/><path d="M9616.89 191.14c0-20.46 7.97-39.7 22.44-54.17 9.06-9.06 14.04-21.1 14.04-33.9 0-14.02-11.4-25.43-25.42-25.43h-1.85c-14.02 0-25.42 11.41-25.42 25.43v2.95c0 4.48-3.63 8.11-8.11 8.11-4.48 0-8.11-3.63-8.11-8.11v-2.95c0-22.96 18.68-41.64 41.64-41.64h1.85c22.96 0 41.64 18.68 41.64 41.64 0 17.14-6.67 33.25-18.79 45.37-11.41 11.4-17.69 26.57-17.69 42.7 0 4.48-3.63 8.11-8.11 8.11-4.48 0-8.11-3.63-8.11-8.11z" stroke-dasharray="328.8490579818874,138.08651237997248" stroke-dashoffset="466.93557"/><path d="M9616.9 223.57c0-4.48 3.63-8.11 8.11-8.11 4.48 0 8.11 3.63 8.11 8.11 0 4.48-3.63 8.11-8.11 8.11-4.48 0-8.11-3.63-8.11-8.11z" stroke-dasharray="35.89348751394353,15.07198025249488" stroke-dashoffset="50.965468"/></g><g fill="none" stroke="#2e3440" stroke-width="3"><path d="M9883.28 234.22c-24.5-24.5-37.99-57.07-37.99-91.72s13.49-67.22 37.99-91.72 57.07-37.99 91.72-37.99 67.22 13.49 91.72 37.99 37.99 57.07 37.99 91.72-13.49 67.22-37.99 91.72-57.07 37.99-91.72 37.99-67.22-13.49-91.72-37.99zm-21.78-91.72c0 62.58 50.92 113.5 113.5 113.5s113.5-50.92 113.5-113.5S10037.58 29 9975 29s-113.5 50.92-113.5 113.5z" stroke-dasharray="595.095857539664,220.14036164692826" stroke-dashoffset="815.236219"/><path d="M9966.89 191.14c0-20.46 7.97-39.7 22.44-54.17 9.06-9.06 14.04-21.1 14.04-33.9 0-14.02-11.4-25.43-25.42-25.43h-1.85c-14.02 0-25.42 11.41-25.42 25.43v2.95c0 4.48-3.63 8.11-8.11 8.11-4.48 0-8.11-3.63-8.11-8.11v-2.95c0-22.96 18.68-41.64 41.64-41.64h1.85c22.96 0 41.64 18.68 41.64 41.64 0 17.14-6.67 33.25-18.79 45.37-11.41 11.4-17.69 26.57-17.69 42.7 0 4.48-3.63 8.11-8.11 8.11-4.48 0-8.11-3.63-8.11-8.11z" stroke-dasharray="340.8477409621365,126.08782939972339" stroke-dashoffset="466.93557"/><path d="M9966.9 223.57c0-4.48 3.63-8.11 8.11-8.11 4.48 0 8.11 3.63 8.11 8.11 0 4.48-3.63 8.11-8.11 8.11-4.48 0-8.11-3.63-8.11-8.11z" stroke-dasharray="37.20312963479479,13.762338131643624" stroke-dashoffset="50.965468"/></g><g fill="none" stroke="#2e3440" stroke-width="3"><path d="M10233.28 234.22c-24.5-24.5-37.99-57.07-37.99-91.72s13.49-67.22 37.99-91.72 57.07-37.99 91.72-37.99 67.22 13.49 91.72 37.99 37.99 57.07 37.99 91.72-13.49 67.22-37.99 91.72-57.07 37.99-91.72 37.99-67.22-13.49-91.72-37.99zm-21.78-91.72c0 62.58 50.92 113.5 113.5 113.5s113.5-50.92 113.5-113.5S10387.58 29 10325 29s-113.5 50.92-113.5 113.5z" stroke-dasharray="614.4252429077035,200.8109762788888" stroke-dashoffset="815.236219"/><path d="M10316.89 191.14c0-20.46 7.97-39.7 22.44-54.17 9.06-9.06 14.04-21.1 14.04-33.9 0-14.02-11.4-25.43-25.42-25.43h-1.85c-14.02 0-25.42 11.41-25.42 25.43v2.95c0 4.48-3.63 8.11-8.11 8.11-4.48 0-8.11-3.63-8.11-8.11v-2.95c0-22.96 18.68-41.64 41.64-41.64h1.85c22.96 0 41.64 18.68 41.64 41.64 0 17.14-6.67 33.25-18.79 45.37-11.41 11.4-17.69 26.57-17.69 42.7 0 4.48-3.63 8.11-8.11 8.11-4.48 0-8.11-3.63-8.11-8.11z" stroke-dasharray="351.9188604354286,115.01670992643132" stroke-dashoffset="466.93557"/><path d="M10316.9 223.57c0-4.48 3.63-8.11 8.11-8.11 4.48 0 8.11 3.63 8.11 8.11 0 4.48-3.63 8.11-8.11 8.11-4.48 0-8.11-3.63-8.11-8.11z" stroke-dasharray="38.411529290912625,12.55393847552579" stroke-dashoffset="50.965468"/></g><g fill="none" stroke="#2e3440" stroke-width="3"><path d="M10583.28 234.22c-24.5-24.5-37.99-57.07-37.99-91.72s13.49-67.22 37.99-91.72 57.07-37.99 91.72-37.99 67.22 13.49 91.72 37.99 37.99 57.07 37.99 91.72-13.49 67.22-37.99 91.72-57.07 37.99-91.72 37.99-67.22-13.49-91.72-37.99zm-21.78-91.72c0 62.58 50.92 113.5 113.5 113.5s113.5-50.92 113.5-113.5S10737.58 29 10675 29s-113.5 50.92-113.5 113.5z" stroke-dasharray="632.2656710217655,182.9705481648268" stroke-dashoffset="815.236219"/><path d="M10666.89 191.14c0-20.46 7.97-39.7 22.44-54.17 9.06-9.06 14.04-21.1 14.04-33.9 0-14.02-11.4-25.43-25.42-25.43h-1.85c-14.02 0-25.42 11.41-25.42 25.43v2.95c0 4.48-3.63 8.11-8.11 8.11-4.48 0-8.11-3.63-8.11-8.11v-2.95c0-22.96 18.68-41.64 41.64-41.64h1.85c22.96 0 41.64 18.68 41.64 41.64 0 17.14-6.67 33.25-18.79 45.37-11.41 11.4-17.69 26.57-17.69 42.7 0 4.48-3.63 8.11-8.11 8.11-4.48 0-8.11-3.63-8.11-8.11z" stroke-dasharray="362.1371631566337,104.79840720522623" stroke-dashoffset="466.93557"/><path d="M10666.9 223.57c0-4.48 3.63-8.11 8.11-8.11 4.48 0 8.11 3.63 8.11 8.11 0 4.48-3.63 8.11-8.11 8.11-4.48 0-8.11-3.63-8.11-8.11z" stroke-dasharray="39.52684500258929,11.438622763849123" stroke-dashoffset="50.965468"/></g><g fill="none" stroke="#2e3440" stroke-width="3"><path d="M10933.28 234.22c-24.5-24.5-37.99-57.07-37.99-91.72s13.49-67.22 37.99-91.72 57.07-37.99 91.72-37.99 67.22 13.49 91.72 37.99 37.99 57.07 37.99 91.72-13.49 67.22-37.99 91.72-57.07 37.99-91.72 37.99-67.22-13.49-91.72-37.99zm-21.78-91.72c0 62.58 50.92 113.5 113.5 113.5s113.5-50.92 113.5-113.5S11087.58 29 11025 29s-113.5 50.92-113.5 113.5z" stroke-dasharray="648.7384106534548,166.49780853313746" stroke-dashoffset="815.236219"/><path d="M11016.89 191.14c0-20.46 7.97-39.7 22.44-54.17 9.06-9.06 14.04-21.1 14.04-33.9 0-14.02-11.4-25.43-25.42-25.43h-1.85c-14.02 0-25.42 11.41-25.42 25.43v2.95c0 4.48-3.63 8.11-8.11 8.11-4.48 0-8.11-3.63-8.11-8.11v-2.95c0-22.96 18.68-41.64 41.64-41.64h1.85c22.96 0 41.64 18.68 41.64 41.64 0 17.14-6.67 33.25-18.79 45.37-11.41 11.4-17.69 26.57-17.69 42.7 0 4.48-3.63 8.11-8.11 8.11-4.48 0-8.11-3.63-8.11-8.11z" stroke-dasharray="371.57210715730594,95.36346320455397" stroke-dashoffset="466.93557"/><path d="M11016.9 223.57c0-4.48 3.63-8.11 8.11-8.11 4.48 0 8.11 3.63 8.11 8.11 0 4.48-3.63 8.11-8.11 8.11-4.48 0-8.11-3.63-8.11-8.11z" stroke-dasharray="40.55665803219371,10.408809734244706" stroke-dashoffset="50.965468"/></g><g fill="none" stroke="#2e3440" stroke-width="3"><path d="M11283.28 234.22c-24.5-24.5-37.99-57.07-37.99-91.72s13.49-67.22 37.99-91.72 57.07-37.99 91.72-37.99 67.22 13.49 91.72 37.99 37.99 57.07 37.99 91.72-13.49 67.22-37.99 91.72-57.07 37.99-91.72 37.99-67.22-13.49-91.72-37.99zm-21.78-91.72c0 62.58 50.92 113.5 113.5 113.5s113.5-50.92 113.5-113.5S11437.58 29 11375 29s-113.5 50.92-113.5 113.5z" stroke-dasharray="663.9544286041145,151.28179058247784" stroke-dashoffset="815.236219"/><path d="M11366.89 191.14c0-20.46 7.97-39.7 22.44-54.17 9.06-9.06 14.04-21.1 14.04-33.9 0-14.02-11.4-25.43-25.42-25.43h-1.85c-14.02 0-25.42 11.41-25.42 25.43v2.95c0 4.48-3.63 8.11-8.11 8.11-4.48 0-8.11-3.63-8.11-8.11v-2.95c0-22.96 18.68-41.64 41.64-41.64h1.85c22.96 0 41.64 18.68 41.64 41.64 0 17.14-6.67 33.25-18.79 45.37-11.41 11.4-17.69 26.57-17.69 42.7 0 4.48-3.63 8.11-8.11 8.11-4.48 0-8.11-3.63-8.11-8.11z" stroke-dasharray="380.28724990147464,86.64832046038526" stroke-dashoffset="466.93557"/><path d="M11366.9 223.57c0-4.48 3.63-8.11 8.11-8.11 4.48 0 8.11 3.63 8.11 8.11 0 4.48-3.63 8.11-8.11 8.11-4.48 0-8.11-3.63-8.11-8.11z" stroke-dasharray="41.507905602096386,9.45756216434203" stroke-dashoffset="50.965468"/></g><g fill="none" stroke="#2e3440" stroke-width="3"><path d="M11633.28 234.22c-24.5-24.5-37.99-57.07-37.99-91.72s13.49-67.22 37.99-91.72 57.07-37.99 91.72-37.99 67.22 13.49 91.72 37.99 37.99 57.07 37.99 91.72-13.49 67.22-37.99 91.72-57.07 37.99-91.72 37.99-67.22-13.49-91.72-37.99zm-21.78-91.72c0 62.58 50.92 113.5 113.5 113.5s113.5-50.92 113.5-113.5S11787.58 29 11725 29s-113.5 50.92-113.5 113.5z" stroke-dasharray="678.0143486829104,137.2218705036819" stroke-dashoffset="815.236219"/><path d="M11716.89 191.14c0-20.46 7.97-39.7 22.44-54.17 9.06-9.06 14.04-21.1 14.04-33.9 0-14.02-11.4-25.43-25.42-25.43h-1.85c-14.02 0-25.42 11.41-25.42 25.43v2.95c0 4.48-3.63 8.11-8.11 8.11-4.48 0-8.11-3.63-8.11-8.11v-2.95c0-22.96 18.68-41.64 41.64-41.64h1.85c22.96 0 41.64 18.68 41.64 41.64 0 17.14-6.67 33.25-18.79 45.37-11.41 11.4-17.69 26.57-17.69 42.7 0 4.48-3.63 8.11-8.11 8.11-4.48 0-8.11-3.63-8.11-8.11z" stroke-dasharray="388.34022478988805,78.59534557197183" stroke-dashoffset="466.93557"/><path d="M11716.9 223.57c0-4.48 3.63-8.11 8.11-8.11 4.48 0 8.11 3.63 8.11 8.11 0 4.48-3.63 8.11-8.11 8.11-4.48 0-8.11-3.63-8.11-8.11z" stroke-dasharray="42.3868783301353,8.57858943630311" stroke-dashoffset="50.965468"/></g><g fill="none" stroke="#2e3440" stroke-width="3"><path d="M11983.28 234.22c-24.5-24.5-37.99-57.07-37.99-91.72s13.49-67.22 37.99-91.72 57.07-37.99 91.72-37.99 67.22 13.49 91.72 37.99 37.99 57.07 37.99 91.72-13.49 67.22-37.99 91.72-57.07 37.99-91.72 37.99-67.22-13.49-91.72-37.99zm-21.78-91.72c0 62.58 50.92 113.5 113.5 113.5s113.5-50.92 113.5-113.5S12137.58 29 12075 29s-113.5 50.92-113.5 113.5z" stroke-dasharray="691.0089527947816,124.22726639181064" stroke-dashoffset="815.236219"/><path d="M12066.89 191.14c0-20.46 7.97-39.7 22.44-54.17 9.06-9.06 14.04-21.1 14.04-33.9 0-14.02-11.4-25.43-25.42-25.43h-1.85c-14.02 0-25.42 11.41-25.42 25.43v2.95c0 4.48-3.63 8.11-8.11 8.11-4.48 0-8.11-3.63-8.11-8.11v-2.95c0-22.96 18.68-41.64 41.64-41.64h1.85c22.96 0 41.64 18.68 41.64 41.64 0 17.14-6.67 33.25-18.79 45.37-11.41 11.4-17.69 26.57-17.69 42.7 0 4.48-3.63 8.11-8.11 8.11-4.48 0-8.11-3.63-8.11-8.11z" stroke-dasharray="395.7830281636847,71.1525421981752" stroke-dashoffset="466.93557"/><path d="M12066.9 223.57c0-4.48 3.63-8.11 8.11-8.11 4.48 0 8.11 3.63 8.11 8.11 0 4.48-3.63 8.11-8.11 8.11-4.48 0-8.11-3.63-8.11-8.11z" stroke-dasharray="43.199251555728736,7.766216210709682" stroke-dashoffset="50.965468"/></g><g fill="none" stroke="#2e3440" stroke-width="3"><path d="M12333.28 234.22c-24.5-24.5-37.99-57.07-37.99-91.72s13.49-67.22 37.99-91.72 57.07-37.99 91.72-37.99 67.22 13.49 91.72 37.99 37.99 57.07 37.99 91.72-13.49 67.22-37.99 91.72-57.07 37.99-91.72 37.99-67.22-13.49-91.72-37.99zm-21.78-91.72c0 62.58 50.92 113.5 113.5 113.5s113.5-50.92 113.5-113.5S12487.58 29 12425 29s-113.5 50.92-113.5 113.5z" stroke-dasharray="703.0199381330424,112.21628105354989" stroke-dashoffset="815.236219"/><path d="M12416.89 191.14c0-20.46 7.97-39.7 22.44-54.17 9.06-9.06 14.04-21.1 14.04-33.9 0-14.02-11.4-25.43-25.42-25.43h-1.85c-14.02 0-25.42 11.41-25.42 25.43v2.95c0 4.48-3.63 8.11-8.11 8.11-4.48 0-8.11-3.63-8.11-8.11v-2.95c0-22.96 18.68-41.64 41.64-41.64h1.85c22.96 0 41.64 18.68 41.64 41.64 0 17.14-6.67 33.25-18.79 45.37-11.41 11.4-17.69 26.57-17.69 42.7 0 4.48-3.63 8.11-8.11 8.11-4.48 0-8.11-3.63-8.11-8.11z" stroke-dasharray="402.66245299483916,64.27311736702075" stroke-dashoffset="466.93557"/><path d="M12416.9 223.57c0-4.48 3.63-8.11 8.11-8.11 4.48 0 8.11 3.63 8.11 8.11 0 4.48-3.63 8.11-8.11 8.11-4.48 0-8.11-3.63-8.11-8.11z" stroke-dasharray="43.9501326766768,7.015335089761614" stroke-dashoffset="50.965468"/></g><g fill="none" stroke="#2e3440" stroke-width="3"><path d="M12683.28 234.22c-24.5-24.5-37.99-57.07-37.99-91.72s13.49-67.22 37.99-91.72 57.07-37.99 91.72-37.99 67.22 13.49 91.72 37.99 37.99 57.07 37.99 91.72-13.49 67.22-37.99 91.72-57.07 37.99-91.72 37.99-67.22-13.49-91.72-37.99zm-21.78-91.72c0 62.58 50.92 113.5 113.5 113.5s113.5-50.92 113.5-113.5S12837.58 29 12775 29s-113.5 50.92-113.5 113.5z" stroke-dasharray="714.1207666310922,101.11545255550007" stroke-dashoffset="815.236219"/><path d="M12766.89 191.14c0-20.46 7.97-39.7 22.44-54.17 9.06-9.06 14.04-21.1 14.04-33.9 0-14.02-11.4-25.43-25.42-25.43h-1.85c-14.02 0-25.42 11.41-25.42 25.43v2.95c0 4.48-3.63 8.11-8.11 8.11-4.48 0-8.11-3.63-8.11-8.11v-2.95c0-22.96 18.68-41.64 41.64-41.64h1.85c22.96 0 41.64 18.68 41.64 41.64 0 17.14-6.67 33.25-18.79 45.37-11.41 11.4-17.69 26.57-17.69 42.7 0 4.48-3.63 8.11-8.11 8.11-4.48 0-8.11-3.63-8.11-8.11z" stroke-dasharray="409.020575419034,57.91499494282591" stroke-dashoffset="466.93557"/><path d="M12766.9 223.57c0-4.48 3.63-8.11 8.11-8.11 4.48 0 8.11 3.63 8.11 8.11 0 4.48-3.63 8.11-8.11 8.11-4.48 0-8.11-3.63-8.11-8.11z" stroke-dasharray="44.644114253651644,6.3213535127867715" stroke-dashoffset="50.965468"/></g><g fill="none" stroke="#2e3440" stroke-width="3"><path d="M13033.28 234.22c-24.5-24.5-37.99-57.07-37.99-91.72s13.49-67.22 37.99-91.72 57.07-37.99 91.72-37.99 67.22 13.49 91.72 37.99 37.99 57.07 37.99 91.72-13.49 67.22-37.99 91.72-57.07 37.99-91.72 37.99-67.22-13.49-91.72-37.99zm-21.78-91.72c0 62.58 50.92 113.5 113.5 113.5s113.5-50.92 113.5-113.5S13187.58 29 13125 29s-113.5 50.92-113.5 113.5z" stroke-dasharray="724.3775162831586,90.85870290343372" stroke-dashoffset="815.236219"/><path d="M13116.89 191.14c0-20.46 7.97-39.7 22.44-54.17 9.06-9.06 14.04-21.1 14.04-33.9 0-14.02-11.4-25.43-25.42-25.43h-1.85c-14.02 0-25.42 11.41-25.42 25.43v2.95c0 4.48-3.63 8.11-8.11 8.11-4.48 0-8.11-3.63-8.11-8.11v-2.95c0-22.96 18.68-41.64 41.64-41.64h1.85c22.96 0 41.64 18.68 41.64 41.64 0 17.14-6.67 33.25-18.79 45.37-11.41 11.4-17.69 26.57-17.69 42.7 0 4.48-3.63 8.11-8.11 8.11-4.48 0-8.11-3.63-8.11-8.11z" stroke-dasharray="414.8952423390402,52.04032802281971" stroke-dashoffset="466.93557"/><path d="M13116.9 223.57c0-4.48 3.63-8.11 8.11-8.11 4.48 0 8.11 3.63 8.11 8.11 0 4.48-3.63 8.11-8.11 8.11-4.48 0-8.11-3.63-8.11-8.11z" stroke-dasharray="45.285327231532314,5.6801405349061" stroke-dashoffset="50.965468"/></g><g fill="none" stroke="#2e3440" stroke-width="3"><path d="M13383.28 234.22c-24.5-24.5-37.99-57.07-37.99-91.72s13.49-67.22 37.99-91.72 57.07-37.99 91.72-37.99 67.22 13.49 91.72 37.99 37.99 57.07 37.99 91.72-13.49 67.22-37.99 91.72-57.07 37.99-91.72 37.99-67.22-13.49-91.72-37.99zm-21.78-91.72c0 62.58 50.92 113.5 113.5 113.5s113.5-50.92 113.5-113.5S13537.58 29 13475 29s-113.5 50.92-113.5 113.5z" stroke-dasharray="733.849687370516,81.38653181607624" stroke-dashoffset="815.236219"/><path d="M13466.89 191.14c0-20.46 7.97-39.7 22.44-54.17 9.06-9.06 14.04-21.1 14.04-33.9 0-14.02-11.4-25.43-25.42-25.43h-1.85c-14.02 0-25.42 11.41-25.42 25.43v2.95c0 4.48-3.63 8.11-8.11 8.11-4.48 0-8.11-3.63-8.11-8.11v-2.95c0-22.96 18.68-41.64 41.64-41.64h1.85c22.96 0 41.64 18.68 41.64 41.64 0 17.14-6.67 33.25-18.79 45.37-11.41 11.4-17.69 26.57-17.69 42.7 0 4.48-3.63 8.11-8.11 8.11-4.48 0-8.11-3.63-8.11-8.11z" stroke-dasharray="420.32053319971044,46.615037162149456" stroke-dashoffset="466.93557"/><path d="M13466.9 223.57c0-4.48 3.63-8.11 8.11-8.11 4.48 0 8.11 3.63 8.11 8.11 0 4.48-3.63 8.11-8.11 8.11-4.48 0-8.11-3.63-8.11-8.11z" stroke-dasharray="45.87749134160164,5.087976424836777" stroke-dashoffset="50.965468"/></g><g fill="none" stroke="#2e3440" stroke-width="3"><path d="M13733.28 234.22c-24.5-24.5-37.99-57.07-37.99-91.72s13.49-67.22 37.99-91.72 57.07-37.99 91.72-37.99 67.22 13.49 91.72 37.99 37.99 57.07 37.99 91.72-13.49 67.22-37.99 91.72-57.07 37.99-91.72 37.99-67.22-13.49-91.72-37.99zm-21.78-91.72c0 62.58 50.92 113.5 113.5 113.5s113.5-50.92 113.5-113.5S13887.58 29 13825 29s-113.5 50.92-113.5 113.5z" stroke-dasharray="742.5909418431714,72.64527734342089" stroke-dashoffset="815.236219"/><path d="M13816.89 191.14c0-20.46 7.97-39.7 22.44-54.17 9.06-9.06 14.04-21.1 14.04-33.9 0-14.02-11.4-25.43-25.42-25.43h-1.85c-14.02 0-25.42 11.41-25.42 25.43v2.95c0 4.48-3.63 8.11-8.11 8.11-4.48 0-8.11-3.63-8.11-8.11v-2.95c0-22.96 18.68-41.64 41.64-41.64h1.85c22.96 0 41.64 18.68 41.64 41.64 0 17.14-6.67 33.25-18.79 45.37-11.41 11.4-17.69 26.57-17.69 42.7 0 4.48-3.63 8.11-8.11 8.11-4.48 0-8.11-3.63-8.11-8.11z" stroke-dasharray="425.3271834770251,41.60838688483482" stroke-dashoffset="466.93557"/><path d="M13816.9 223.57c0-4.48 3.63-8.11 8.11-8.11 4.48 0 8.11 3.63 8.11 8.11 0 4.48-3.63 8.11-8.11 8.11-4.48 0-8.11-3.63-8.11-8.11z" stroke-dasharray="46.423961324876984,4.541506441561432" stroke-dashoffset="50.965468"/></g><g fill="none" stroke="#2e3440" stroke-width="3"><path d="M14083.28 234.22c-24.5-24.5-37.99-57.07-37.99-91.72s13.49-67.22 37.99-91.72 57.07-37.99 91.72-37.99 67.22 13.49 91.72 37.99 37.99 57.07 37.99 91.72-13.49 67.22-37.99 91.72-57.07 37.99-91.72 37.99-67.22-13.49-91.72-37.99zm-21.78-91.72c0 62.58 50.92 113.5 113.5 113.5s113.5-50.92 113.5-113.5S14237.58 29 14175 29s-113.5 50.92-113.5 113.5z" stroke-dasharray="750.649768401517,64.58645078507524" stroke-dashoffset="815.236219"/><path d="M14166.89 191.14c0-20.46 7.97-39.7 22.44-54.17 9.06-9.06 14.04-21.1 14.04-33.9 0-14.02-11.4-25.43-25.42-25.43h-1.85c-14.02 0-25.42 11.41-25.42 25.43v2.95c0 4.48-3.63 8.11-8.11 8.11-4.48 0-8.11-3.63-8.11-8.11v-2.95c0-22.96 18.68-41.64 41.64-41.64h1.85c22.96 0 41.64 18.68 41.64 41.64 0 17.14-6.67 33.25-18.79 45.37-11.41 11.4-17.69 26.57-17.69 42.7 0 4.48-3.63 8.11-8.11 8.11-4.48 0-8.11-3.63-8.11-8.11z" stroke-dasharray="429.94296561097264,36.99260475088727" stroke-dashoffset="466.93557"/><path d="M14166.9 223.57c0-4.48 3.63-8.11 8.11-8.11 4.48 0 8.11 3.63 8.11 8.11 0 4.48-3.63 8.11-8.11 8.11-4.48 0-8.11-3.63-8.11-8.11z" stroke-dasharray="46.92776851048569,4.037699255952722" stroke-dashoffset="50.965468"/></g><g fill="none" stroke="#2e3440" stroke-width="3"><path d="M14433.28 234.22c-24.5-24.5-37.99-57.07-37.99-91.72s13.49-67.22 37.99-91.72 57.07-37.99 91.72-37.99 67.22 13.49 91.72 37.99 37.99 57.07 37.99 91.72-13.49 67.22-37.99 91.72-57.07 37.99-91.72 37.99-67.22-13.49-91.72-37.99zm-21.78-91.72c0 62.58 50.92 113.5 113.5 113.5s113.5-50.92 113.5-113.5S14587.58 29 14525 29s-113.5 50.92-113.5 113.5z" stroke-dasharray="758.0700736368548,57.16614554973749" stroke-dashoffset="815.236219"/><path d="M14516.89 191.14c0-20.46 7.97-39.7 22.44-54.17 9.06-9.06 14.04-21.1 14.04-33.9 0-14.02-11.4-25.43-25.42-25.43h-1.85c-14.02 0-25.42 11.41-25.42 25.43v2.95c0 4.48-3.63 8.11-8.11 8.11-4.48 0-8.11-3.63-8.11-8.11v-2.95c0-22.96 18.68-41.64 41.64-41.64h1.85c22.96 0 41.64 18.68 41.64 41.64 0 17.14-6.67 33.25-18.79 45.37-11.41 11.4-17.69 26.57-17.69 42.7 0 4.48-3.63 8.11-8.11 8.11-4.48 0-8.11-3.63-8.11-8.11z" stroke-dasharray="434.19302758782953,32.74254277403035" stroke-dashoffset="466.93557"/><path d="M14516.9 223.57c0-4.48 3.63-8.11 8.11-8.11 4.48 0 8.11 3.63 8.11 8.11 0 4.48-3.63 8.11-8.11 8.11-4.48 0-8.11-3.63-8.11-8.11z" stroke-dasharray="47.3916577715223,3.5738099949161213" stroke-dashoffset="50.965468"/></g><g fill="none" stroke="#2e3440" stroke-width="3"><path d="M14783.28 234.22c-24.5-24.5-37.99-57.07-37.99-91.72s13.49-67.22 37.99-91.72 57.07-37.99 91.72-37.99 67.22 13.49 91.72 37.99 37.99 57.07 37.99 91.72-13.49 67.22-37.99 91.72-57.07 37.99-91.72 37.99-67.22-13.49-91.72-37.99zm-21.78-91.72c0 62.58 50.92 113.5 113.5 113.5s113.5-50.92 113.5-113.5S14937.58 29 14875 29s-113.5 50.92-113.5 113.5z" stroke-dasharray="764.8917036016475,50.344515584944844" stroke-dashoffset="815.236219"/><path d="M14866.89 191.14c0-20.46 7.97-39.7 22.44-54.17 9.06-9.06 14.04-21.1 14.04-33.9 0-14.02-11.4-25.43-25.42-25.43h-1.85c-14.02 0-25.42 11.41-25.42 25.43v2.95c0 4.48-3.63 8.11-8.11 8.11-4.48 0-8.11-3.63-8.11-8.11v-2.95c0-22.96 18.68-41.64 41.64-41.64h1.85c22.96 0 41.64 18.68 41.64 41.64 0 17.14-6.67 33.25-18.79 45.37-11.41 11.4-17.69 26.57-17.69 42.7 0 4.48-3.63 8.11-8.11 8.11-4.48 0-8.11-3.63-8.11-8.11z" stroke-dasharray="438.1001916752963,28.835378686563615" stroke-dashoffset="466.93557"/><path d="M14866.9 223.57c0-4.48 3.63-8.11 8.11-8.11 4.48 0 8.11 3.63 8.11 8.11 0 4.48-3.63 8.11-8.11 8.11-4.48 0-8.11-3.63-8.11-8.11z" stroke-dasharray="47.81812013163689,3.14734763480153" stroke-dashoffset="50.965468"/></g><g fill="none" stroke="#2e3440" stroke-width="3"><path d="M15133.28 234.22c-24.5-24.5-37.99-57.07-37.99-91.72s13.49-67.22 37.99-91.72 57.07-37.99 91.72-37.99 67.22 13.49 91.72 37.99 37.99 57.07 37.99 91.72-13.49 67.22-37.99 91.72-57.07 37.99-91.72 37.99-67.22-13.49-91.72-37.99zm-21.78-91.72c0 62.58 50.92 113.5 113.5 113.5s113.5-50.92 113.5-113.5S15287.58 29 15225 29s-113.5 50.92-113.5 113.5z" stroke-dasharray="771.1509019952572,44.08531719133506" stroke-dashoffset="815.236219"/><path d="M15216.89 191.14c0-20.46 7.97-39.7 22.44-54.17 9.06-9.06 14.04-21.1 14.04-33.9 0-14.02-11.4-25.43-25.42-25.43h-1.85c-14.02 0-25.42 11.41-25.42 25.43v2.95c0 4.48-3.63 8.11-8.11 8.11-4.48 0-8.11-3.63-8.11-8.11v-2.95c0-22.96 18.68-41.64 41.64-41.64h1.85c22.96 0 41.64 18.68 41.64 41.64 0 17.14-6.67 33.25-18.79 45.37-11.41 11.4-17.69 26.57-17.69 42.7 0 4.48-3.63 8.11-8.11 8.11-4.48 0-8.11-3.63-8.11-8.11z" stroke-dasharray="441.6852168534518,25.25035350840812" stroke-dashoffset="466.93557"/><path d="M15216.9 223.57c0-4.48 3.63-8.11 8.11-8.11 4.48 0 8.11 3.63 8.11 8.11 0 4.48-3.63 8.11-8.11 8.11-4.48 0-8.11-3.63-8.11-8.11z" stroke-dasharray="48.20942140906486,2.756046357373559" stroke-dashoffset="50.965468"/></g><g fill="none" stroke="#2e3440" stroke-width="3"><path d="M15483.28 234.22c-24.5-24.5-37.99-57.07-37.99-91.72s13.49-67.22 37.99-91.72 57.07-37.99 91.72-37.99 67.22 13.49 91.72 37.99 37.99 57.07 37.99 91.72-13.49 67.22-37.99 91.72-57.07 37.99-91.72 37.99-67.22-13.49-91.72-37.99zm-21.78-91.72c0 62.58 50.92 113.5 113.5 113.5s113.5-50.92 113.5-113.5S15637.58 29 15575 29s-113.5 50.92-113.5 113.5z" stroke-dasharray="776.8807117256838,38.355507460908456" stroke-dashoffset="815.236219"/><path d="M15566.89 191.14c0-20.46 7.97-39.7 22.44-54.17 9.06-9.06 14.04-21.1 14.04-33.9 0-14.02-11.4-25.43-25.42-25.43h-1.85c-14.02 0-25.42 11.41-25.42 25.43v2.95c0 4.48-3.63 8.11-8.11 8.11-4.48 0-8.11-3.63-8.11-8.11v-2.95c0-22.96 18.68-41.64 41.64-41.64h1.85c22.96 0 41.64 18.68 41.64 41.64 0 17.14-6.67 33.25-18.79 45.37-11.41 11.4-17.69 26.57-17.69 42.7 0 4.48-3.63 8.11-8.11 8.11-4.48 0-8.11-3.63-8.11-8.11z" stroke-dasharray="444.96702881368475,21.968541548175136" stroke-dashoffset="466.93557"/><path d="M15566.9 223.57c0-4.48 3.63-8.11 8.11-8.11 4.48 0 8.11 3.63 8.11 8.11 0 4.48-3.63 8.11-8.11 8.11-4.48 0-8.11-3.63-8.11-8.11z" stroke-dasharray="48.56762732073945,2.3978404456989657" stroke-dashoffset="50.965468"/></g><g fill="none" stroke="#2e3440" stroke-width="3"><path d="M15833.28 234.22c-24.5-24.5-37.99-57.07-37.99-91.72s13.49-67.22 37.99-91.72 57.07-37.99 91.72-37.99 67.22 13.49 91.72 37.99 37.99 57.07 37.99 91.72-13.49 67.22-37.99 91.72-57.07 37.99-91.72 37.99-67.22-13.49-91.72-37.99zm-21.78-91.72c0 62.58 50.92 113.5 113.5 113.5s113.5-50.92 113.5-113.5S15987.58 29 15925 29s-113.5 50.92-113.5 113.5z" stroke-dasharray="782.111326509007,33.124892677585365" stroke-dashoffset="815.236219"/><path d="M15916.89 191.14c0-20.46 7.97-39.7 22.44-54.17 9.06-9.06 14.04-21.1 14.04-33.9 0-14.02-11.4-25.43-25.42-25.43h-1.85c-14.02 0-25.42 11.41-25.42 25.43v2.95c0 4.48-3.63 8.11-8.11 8.11-4.48 0-8.11-3.63-8.11-8.11v-2.95c0-22.96 18.68-41.64 41.64-41.64h1.85c22.96 0 41.64 18.68 41.64 41.64 0 17.14-6.67 33.25-18.79 45.37-11.41 11.4-17.69 26.57-17.69 42.7 0 4.48-3.63 8.11-8.11 8.11-4.48 0-8.11-3.63-8.11-8.11z" stroke-dasharray="447.9629213411672,18.9726490206927" stroke-dashoffset="466.93557"/><path d="M15916.9 223.57c0-4.48 3.63-8.11 8.11-8.11 4.48 0 8.11 3.63 8.11 8.11 0 4.48-3.63 8.11-8.11 8.11-4.48 0-8.11-3.63-8.11-8.11z" stroke-dasharray="48.894625462951645,2.0708423034867707" stroke-dashoffset="50.965468"/></g><g fill="none" stroke="#2e3440" stroke-width="3"><path d="M16183.28 234.22c-24.5-24.5-37.99-57.07-37.99-91.72s13.49-67.22 37.99-91.72 57.07-37.99 91.72-37.99 67.22 13.49 91.72 37.99 37.99 57.07 37.99 91.72-13.49 67.22-37.99 91.72-57.07 37.99-91.72 37.99-67.22-13.49-91.72-37.99zm-21.78-91.72c0 62.58 50.92 113.5 113.5 113.5s113.5-50.92 113.5-113.5S16337.58 29 16275 29s-113.5 50.92-113.5 113.5z" stroke-dasharray="786.8703987278627,28.365820458729615" stroke-dashoffset="815.236219"/><path d="M16266.89 191.14c0-20.46 7.97-39.7 22.44-54.17 9.06-9.06 14.04-21.1 14.04-33.9 0-14.02-11.4-25.43-25.42-25.43h-1.85c-14.02 0-25.42 11.41-25.42 25.43v2.95c0 4.48-3.63 8.11-8.11 8.11-4.48 0-8.11-3.63-8.11-8.11v-2.95c0-22.96 18.68-41.64 41.64-41.64h1.85c22.96 0 41.64 18.68 41.64 41.64 0 17.14-6.67 33.25-18.79 45.37-11.41 11.4-17.69 26.57-17.69 42.7 0 4.48-3.63 8.11-8.11 8.11-4.48 0-8.11-3.63-8.11-8.11z" stroke-dasharray="450.6887326442051,16.246837717654806" stroke-dashoffset="466.93557"/><path d="M16266.9 223.57c0-4.48 3.63-8.11 8.11-8.11 4.48 0 8.11 3.63 8.11 8.11 0 4.48-3.63 8.11-8.11 8.11-4.48 0-8.11-3.63-8.11-8.11z" stroke-dasharray="49.1921445574912,1.7733232089472157" stroke-dashoffset="50.965468"/></g><g fill="none" stroke="#2e3440" stroke-width="3"><path d="M16533.28 234.22c-24.5-24.5-37.99-57.07-37.99-91.72s13.49-67.22 37.99-91.72 57.07-37.99 91.72-37.99 67.22 13.49 91.72 37.99 37.99 57.07 37.99 91.72-13.49 67.22-37.99 91.72-57.07 37.99-91.72 37.99-67.22-13.49-91.72-37.99zm-21.78-91.72c0 62.58 50.92 113.5 113.5 113.5s113.5-50.92 113.5-113.5S16687.58 29 16625 29s-113.5 50.92-113.5 113.5z" stroke-dasharray="791.1833091800262,24.05291000656608" stroke-dashoffset="815.236219"/><path d="M16616.89 191.14c0-20.46 7.97-39.7 22.44-54.17 9.06-9.06 14.04-21.1 14.04-33.9 0-14.02-11.4-25.43-25.42-25.43h-1.85c-14.02 0-25.42 11.41-25.42 25.43v2.95c0 4.48-3.63 8.11-8.11 8.11-4.48 0-8.11-3.63-8.11-8.11v-2.95c0-22.96 18.68-41.64 41.64-41.64h1.85c22.96 0 41.64 18.68 41.64 41.64 0 17.14-6.67 33.25-18.79 45.37-11.41 11.4-17.69 26.57-17.69 42.7 0 4.48-3.63 8.11-8.11 8.11-4.48 0-8.11-3.63-8.11-8.11z" stroke-dasharray="453.15899985572565,13.77657050613427" stroke-dashoffset="466.93557"/><path d="M16616.9 223.57c0-4.48 3.63-8.11 8.11-8.11 4.48 0 8.11 3.63 8.11 8.11 0 4.48-3.63 8.11-8.11 8.11-4.48 0-8.11-3.63-8.11-8.11z" stroke-dasharray="49.46177131530207,1.5036964511363418" stroke-dashoffset="50.965468"/></g><g fill="none" stroke="#2e3440" stroke-width="3"><path d="M16883.28 234.22c-24.5-24.5-37.99-57.07-37.99-91.72s13.49-67.22 37.99-91.72 57.07-37.99 91.72-37.99 67.22 13.49 91.72 37.99 37.99 57.07 37.99 91.72-13.49 67.22-37.99 91.72-57.07 37.99-91.72 37.99-67.22-13.49-91.72-37.99zm-21.78-91.72c0 62.58 50.92 113.5 113.5 113.5s113.5-50.92 113.5-113.5S17037.58 29 16975 29s-113.5 50.92-113.5 113.5z" stroke-dasharray="795.0734037158436,20.16281547074869" stroke-dashoffset="815.236219"/><path d="M16966.89 191.14c0-20.46 7.97-39.7 22.44-54.17 9.06-9.06 14.04-21.1 14.04-33.9 0-14.02-11.4-25.43-25.42-25.43h-1.85c-14.02 0-25.42 11.41-25.42 25.43v2.95c0 4.48-3.63 8.11-8.11 8.11-4.48 0-8.11-3.63-8.11-8.11v-2.95c0-22.96 18.68-41.64 41.64-41.64h1.85c22.96 0 41.64 18.68 41.64 41.64 0 17.14-6.67 33.25-18.79 45.37-11.41 11.4-17.69 26.57-17.69 42.7 0 4.48-3.63 8.11-8.11 8.11-4.48 0-8.11-3.63-8.11-8.11z" stroke-dasharray="455.38709456998623,11.548475791873663" stroke-dashoffset="466.93557"/><path d="M16966.9 223.57c0-4.48 3.63-8.11 8.11-8.11 4.48 0 8.11 3.63 8.11 8.11 0 4.48-3.63 8.11-8.11 8.11-4.48 0-8.11-3.63-8.11-8.11z" stroke-dasharray="49.70496523015465,1.2605025362837665" stroke-dashoffset="50.965468"/></g><g fill="none" stroke="#2e3440" stroke-width="3"><path d="M17233.28 234.22c-24.5-24.5-37.99-57.07-37.99-91.72s13.49-67.22 37.99-91.72 57.07-37.99 91.72-37.99 67.22 13.49 91.72 37.99 37.99 57.07 37.99 91.72-13.49 67.22-37.99 91.72-57.07 37.99-91.72 37.99-67.22-13.49-91.72-37.99zm-21.78-91.72c0 62.58 50.92 113.5 113.5 113.5s113.5-50.92 113.5-113.5S17387.58 29 17325 29s-113.5 50.92-113.5 113.5z" stroke-dasharray="798.5622011471112,16.674018039481126" stroke-dashoffset="815.236219"/><path d="M17316.89 191.14c0-20.46 7.97-39.7 22.44-54.17 9.06-9.06 14.04-21.1 14.04-33.9 0-14.02-11.4-25.43-25.42-25.43h-1.85c-14.02 0-25.42 11.41-25.42 25.43v2.95c0 4.48-3.63 8.11-8.11 8.11-4.48 0-8.11-3.63-8.11-8.11v-2.95c0-22.96 18.68-41.64 41.64-41.64h1.85c22.96 0 41.64 18.68 41.64 41.64 0 17.14-6.67 33.25-18.79 45.37-11.41 11.4-17.69 26.57-17.69 42.7 0 4.48-3.63 8.11-8.11 8.11-4.48 0-8.11-3.63-8.11-8.11z" stroke-dasharray="457.38534192468705,9.550228437172835" stroke-dashoffset="466.93557"/><path d="M17316.9 223.57c0-4.48 3.63-8.11 8.11-8.11 4.48 0 8.11 3.63 8.11 8.11 0 4.48-3.63 8.11-8.11 8.11-4.48 0-8.11-3.63-8.11-8.11z" stroke-dasharray="49.92307157631811,1.0423961901203078" stroke-dashoffset="50.965468"/></g><g fill="none" stroke="#2e3440" stroke-width="3"><path d="M17583.28 234.22c-24.5-24.5-37.99-57.07-37.99-91.72s13.49-67.22 37.99-91.72 57.07-37.99 91.72-37.99 67.22 13.49 91.72 37.99 37.99 57.07 37.99 91.72-13.49 67.22-37.99 91.72-57.07 37.99-91.72 37.99-67.22-13.49-91.72-37.99zm-21.78-91.72c0 62.58 50.92 113.5 113.5 113.5s113.5-50.92 113.5-113.5S17737.58 29 17675 29s-113.5 50.92-113.5 113.5z" stroke-dasharray="801.6695762390651,13.566642947527178" stroke-dashoffset="815.236219"/><path d="M17666.89 191.14c0-20.46 7.97-39.7 22.44-54.17 9.06-9.06 14.04-21.1 14.04-33.9 0-14.02-11.4-25.43-25.42-25.43h-1.85c-14.02 0-25.42 11.41-25.42 25.43v2.95c0 4.48-3.63 8.11-8.11 8.11-4.48 0-8.11-3.63-8.11-8.11v-2.95c0-22.96 18.68-41.64 41.64-41.64h1.85c22.96 0 41.64 18.68 41.64 41.64 0 17.14-6.67 33.25-18.79 45.37-11.41 11.4-17.69 26.57-17.69 42.7 0 4.48-3.63 8.11-8.11 8.11-4.48 0-8.11-3.63-8.11-8.11z" stroke-dasharray="459.165125411659,7.770444950200872" stroke-dashoffset="466.93557"/><path d="M17666.9 223.57c0-4.48 3.63-8.11 8.11-8.11 4.48 0 8.11 3.63 8.11 8.11 0 4.48-3.63 8.11-8.11 8.11-4.48 0-8.11-3.63-8.11-8.11z" stroke-dasharray="50.11733284852364,0.8481349179147794" stroke-dashoffset="50.965468"/></g><g fill="none" stroke="#2e3440" stroke-width="3"><path d="M17933.28 234.22c-24.5-24.5-37.99-57.07-37.99-91.72s13.49-67.22 37.99-91.72 57.07-37.99 91.72-37.99 67.22 13.49 91.72 37.99 37.99 57.07 37.99 91.72-13.49 67.22-37.99 91.72-57.07 37.99-91.72 37.99-67.22-13.49-91.72-37.99zm-21.78-91.72c0 62.58 50.92 113.5 113.5 113.5s113.5-50.92 113.5-113.5S18087.58 29 18025 29s-113.5 50.92-113.5 113.5z" stroke-dasharray="804.4139210837168,10.822298102875502" stroke-dashoffset="815.236219"/><path d="M18016.89 191.14c0-20.46 7.97-39.7 22.44-54.17 9.06-9.06 14.04-21.1 14.04-33.9 0-14.02-11.4-25.43-25.42-25.43h-1.85c-14.02 0-25.42 11.41-25.42 25.43v2.95c0 4.48-3.63 8.11-8.11 8.11-4.48 0-8.11-3.63-8.11-8.11v-2.95c0-22.96 18.68-41.64 41.64-41.64h1.85c22.96 0 41.64 18.68 41.64 41.64 0 17.14-6.67 33.25-18.79 45.37-11.41 11.4-17.69 26.57-17.69 42.7 0 4.48-3.63 8.11-8.11 8.11-4.48 0-8.11-3.63-8.11-8.11z" stroke-dasharray="460.7369793052282,6.198591056631694" stroke-dashoffset="466.93557"/><path d="M18016.9 223.57c0-4.48 3.63-8.11 8.11-8.11 4.48 0 8.11 3.63 8.11 8.11 0 4.48-3.63 8.11-8.11 8.11-4.48 0-8.11-3.63-8.11-8.11z" stroke-dasharray="50.28889885041158,0.6765689160268362" stroke-dashoffset="50.965468"/></g><g fill="none" stroke="#2e3440" stroke-width="3"><path d="M18283.28 234.22c-24.5-24.5-37.99-57.07-37.99-91.72s13.49-67.22 37.99-91.72 57.07-37.99 91.72-37.99 67.22 13.49 91.72 37.99 37.99 57.07 37.99 91.72-13.49 67.22-37.99 91.72-57.07 37.99-91.72 37.99-67.22-13.49-91.72-37.99zm-21.78-91.72c0 62.58 50.92 113.5 113.5 113.5s113.5-50.92 113.5-113.5S18437.58 29 18375 29s-113.5 50.92-113.5 113.5z" stroke-dasharray="806.8122876996692,8.423931486922982" stroke-dashoffset="815.236219"/><path d="M18366.89 191.14c0-20.46 7.97-39.7 22.44-54.17 9.06-9.06 14.04-21.1 14.04-33.9 0-14.02-11.4-25.43-25.42-25.43h-1.85c-14.02 0-25.42 11.41-25.42 25.43v2.95c0 4.48-3.63 8.11-8.11 8.11-4.48 0-8.11-3.63-8.11-8.11v-2.95c0-22.96 18.68-41.64 41.64-41.64h1.85c22.96 0 41.64 18.68 41.64 41.64 0 17.14-6.67 33.25-18.79 45.37-11.41 11.4-17.69 26.57-17.69 42.7 0 4.48-3.63 8.11-8.11 8.11-4.48 0-8.11-3.63-8.11-8.11z" stroke-dasharray="462.1106703378396,4.824900024020307" stroke-dashoffset="466.93557"/><path d="M18366.9 223.57c0-4.48 3.63-8.11 8.11-8.11 4.48 0 8.11 3.63 8.11 8.11 0 4.48-3.63 8.11-8.11 8.11-4.48 0-8.11-3.63-8.11-8.11z" stroke-dasharray="50.438835609329615,0.5266321571088016" stroke-dashoffset="50.965468"/></g><g fill="none" stroke="#2e3440" stroke-width="3"><path d="M18633.28 234.22c-24.5-24.5-37.99-57.07-37.99-91.72s13.49-67.22 37.99-91.72 57.07-37.99 91.72-37.99 67.22 13.49 91.72 37.99 37.99 57.07 37.99 91.72-13.49 67.22-37.99 91.72-57.07 37.99-91.72 37.99-67.22-13.49-91.72-37.99zm-21.78-91.72c0 62.58 50.92 113.5 113.5 113.5s113.5-50.92 113.5-113.5S18787.58 29 18725 29s-113.5 50.92-113.5 113.5z" stroke-dasharray="808.8805143085688,6.355704878023471" stroke-dashoffset="815.236219"/><path d="M18716.89 191.14c0-20.46 7.97-39.7 22.44-54.17 9.06-9.06 14.04-21.1 14.04-33.9 0-14.02-11.4-25.43-25.42-25.43h-1.85c-14.02 0-25.42 11.41-25.42 25.43v2.95c0 4.48-3.63 8.11-8.11 8.11-4.48 0-8.11-3.63-8.11-8.11v-2.95c0-22.96 18.68-41.64 41.64-41.64h1.85c22.96 0 41.64 18.68 41.64 41.64 0 17.14-6.67 33.25-18.79 45.37-11.41 11.4-17.69 26.57-17.69 42.7 0 4.48-3.63 8.11-8.11 8.11-4.48 0-8.11-3.63-8.11-8.11z" stroke-dasharray="463.29527002629266,3.6403003355672703" stroke-dashoffset="466.93557"/><path d="M18716.9 223.57c0-4.48 3.63-8.11 8.11-8.11 4.48 0 8.11 3.63 8.11 8.11 0 4.48-3.63 8.11-8.11 8.11-4.48 0-8.11-3.63-8.11-8.11z" stroke-dasharray="50.568133270656205,0.39733449578221086" stroke-dashoffset="50.965468"/></g><g fill="none" stroke="#2e3440" stroke-width="3"><path d="M18983.28 234.22c-24.5-24.5-37.99-57.07-37.99-91.72s13.49-67.22 37.99-91.72 57.07-37.99 91.72-37.99 67.22 13.49 91.72 37.99 37.99 57.07 37.99 91.72-13.49 67.22-37.99 91.72-57.07 37.99-91.72 37.99-67.22-13.49-91.72-37.99zm-21.78-91.72c0 62.58 50.92 113.5 113.5 113.5s113.5-50.92 113.5-113.5S19137.58 29 19075 29s-113.5 50.92-113.5 113.5z" stroke-dasharray="810.6333373967852,4.602881789807094" stroke-dashoffset="815.236219"/><path d="M19066.89 191.14c0-20.46 7.97-39.7 22.44-54.17 9.06-9.06 14.04-21.1 14.04-33.9 0-14.02-11.4-25.43-25.42-25.43h-1.85c-14.02 0-25.42 11.41-25.42 25.43v2.95c0 4.48-3.63 8.11-8.11 8.11-4.48 0-8.11-3.63-8.11-8.11v-2.95c0-22.96 18.68-41.64 41.64-41.64h1.85c22.96 0 41.64 18.68 41.64 41.64 0 17.14-6.67 33.25-18.79 45.37-11.41 11.4-17.69 26.57-17.69 42.7 0 4.48-3.63 8.11-8.11 8.11-4.48 0-8.11-3.63-8.11-8.11z" stroke-dasharray="464.2992188563095,2.6363515055504068" stroke-dashoffset="466.93557"/><path d="M19066.9 223.57c0-4.48 3.63-8.11 8.11-8.11 4.48 0 8.11 3.63 8.11 8.11 0 4.48-3.63 8.11-8.11 8.11-4.48 0-8.11-3.63-8.11-8.11z" stroke-dasharray="50.677713103470666,0.287754662967749" stroke-dashoffset="50.965468"/></g><g fill="none" stroke="#2e3440" stroke-width="3"><path d="M19333.28 234.22c-24.5-24.5-37.99-57.07-37.99-91.72s13.49-67.22 37.99-91.72 57.07-37.99 91.72-37.99 67.22 13.49 91.72 37.99 37.99 57.07 37.99 91.72-13.49 67.22-37.99 91.72-57.07 37.99-91.72 37.99-67.22-13.49-91.72-37.99zm-21.78-91.72c0 62.58 50.92 113.5 113.5 113.5s113.5-50.92 113.5-113.5S19487.58 29 19425 29s-113.5 50.92-113.5 113.5z" stroke-dasharray="812.084491377109,3.151727809483337" stroke-dashoffset="815.236219"/><path d="M19416.89 191.14c0-20.46 7.97-39.7 22.44-54.17 9.06-9.06 14.04-21.1 14.04-33.9 0-14.02-11.4-25.43-25.42-25.43h-1.85c-14.02 0-25.42 11.41-25.42 25.43v2.95c0 4.48-3.63 8.11-8.11 8.11-4.48 0-8.11-3.63-8.11-8.11v-2.95c0-22.96 18.68-41.64 41.64-41.64h1.85c22.96 0 41.64 18.68 41.64 41.64 0 17.14-6.67 33.25-18.79 45.37-11.41 11.4-17.69 26.57-17.69 42.7 0 4.48-3.63 8.11-8.11 8.11-4.48 0-8.11-3.63-8.11-8.11z" stroke-dasharray="465.1303833648754,1.805186996984494" stroke-dashoffset="466.93557"/><path d="M19416.9 223.57c0-4.48 3.63-8.11 8.11-8.11 4.48 0 8.11 3.63 8.11 8.11 0 4.48-3.63 8.11-8.11 8.11-4.48 0-8.11-3.63-8.11-8.11z" stroke-dasharray="50.76843373102341,0.19703403541501083" stroke-dashoffset="50.965468"/></g><g fill="none" stroke="#2e3440" stroke-width="3"><path d="M19683.28 234.22c-24.5-24.5-37.99-57.07-37.99-91.72s13.49-67.22 37.99-91.72 57.07-37.99 91.72-37.99 67.22 13.49 91.72 37.99 37.99 57.07 37.99 91.72-13.49 67.22-37.99 91.72-57.07 37.99-91.72 37.99-67.22-13.49-91.72-37.99zm-21.78-91.72c0 62.58 50.92 113.5 113.5 113.5s113.5-50.92 113.5-113.5S19837.58 29 19775 29s-113.5 50.92-113.5 113.5z" stroke-dasharray="813.2467974133435,1.9894217732487411" stroke-dashoffset="815.236219"/><path d="M19766.89 191.14c0-20.46 7.97-39.7 22.44-54.17 9.06-9.06 14.04-21.1 14.04-33.9 0-14.02-11.4-25.43-25.42-25.43h-1.85c-14.02 0-25.42 11.41-25.42 25.43v2.95c0 4.48-3.63 8.11-8.11 8.11-4.48 0-8.11-3.63-8.11-8.11v-2.95c0-22.96 18.68-41.64 41.64-41.64h1.85c22.96 0 41.64 18.68 41.64 41.64 0 17.14-6.67 33.25-18.79 45.37-11.41 11.4-17.69 26.57-17.69 42.7 0 4.48-3.63 8.11-8.11 8.11-4.48 0-8.11-3.63-8.11-8.11z" stroke-dasharray="465.7961070155073,1.1394633463526094" stroke-dashoffset="466.93557"/><path d="M19766.9 223.57c0-4.48 3.63-8.11 8.11-8.11 4.48 0 8.11 3.63 8.11 8.11 0 4.48-3.63 8.11-8.11 8.11-4.48 0-8.11-3.63-8.11-8.11z" stroke-dasharray="50.84109668371159,0.12437108272682472" stroke-dashoffset="50.965468"/></g><g fill="none" stroke="#2e3440" stroke-width="3"><path d="M20033.28 234.22c-24.5-24.5-37.99-57.07-37.99-91.72s13.49-67.22 37.99-91.72 57.07-37.99 91.72-37.99 67.22 13.49 91.72 37.99 37.99 57.07 37.99 91.72-13.49 67.22-37.99 91.72-57.07 37.99-91.72 37.99-67.22-13.49-91.72-37.99zm-21.78-91.72c0 62.58 50.92 113.5 113.5 113.5s113.5-50.92 113.5-113.5S20187.58 29 20125 29s-113.5 50.92-113.5 113.5z" stroke-dasharray="814.1322427551053,1.1039764314870273" stroke-dashoffset="815.236219"/><path d="M20116.89 191.14c0-20.46 7.97-39.7 22.44-54.17 9.06-9.06 14.04-21.1 14.04-33.9 0-14.02-11.4-25.43-25.42-25.43h-1.85c-14.02 0-25.42 11.41-25.42 25.43v2.95c0 4.48-3.63 8.11-8.11 8.11-4.48 0-8.11-3.63-8.11-8.11v-2.95c0-22.96 18.68-41.64 41.64-41.64h1.85c22.96 0 41.64 18.68 41.64 41.64 0 17.14-6.67 33.25-18.79 45.37-11.41 11.4-17.69 26.57-17.69 42.7 0 4.48-3.63 8.11-8.11 8.11-4.48 0-8.11-3.63-8.11-8.11z" stroke-dasharray="466.30325563813875,0.632314723721151" stroke-dashoffset="466.93557"/><path d="M20116.9 223.57c0-4.48 3.63-8.11 8.11-8.11 4.48 0 8.11 3.63 8.11 8.11 0 4.48-3.63 8.11-8.11 8.11-4.48 0-8.11-3.63-8.11-8.11z" stroke-dasharray="50.89645135878911,0.06901640764930474" stroke-dashoffset="50.965468"/></g><g fill="none" stroke="#2e3440" stroke-width="3"><path d="M20383.28 234.22c-24.5-24.5-37.99-57.07-37.99-91.72s13.49-67.22 37.99-91.72 57.07-37.99 91.72-37.99 67.22 13.49 91.72 37.99 37.99 57.07 37.99 91.72-13.49 67.22-37.99 91.72-57.07 37.99-91.72 37.99-67.22-13.49-91.72-37.99zm-21.78-91.72c0 62.58 50.92 113.5 113.5 113.5s113.5-50.92 113.5-113.5S20537.58 29 20475 29s-113.5 50.92-113.5 113.5z" stroke-dasharray="814.7520517458371,0.48416744075519447" stroke-dashoffset="815.236219"/><path d="M20466.89 191.14c0-20.46 7.97-39.7 22.44-54.17 9.06-9.06 14.04-21.1 14.04-33.9 0-14.02-11.4-25.43-25.42-25.43h-1.85c-14.02 0-25.42 11.41-25.42 25.43v2.95c0 4.48-3.63 8.11-8.11 8.11-4.48 0-8.11-3.63-8.11-8.11v-2.95c0-22.96 18.68-41.64 41.64-41.64h1.85c22.96 0 41.64 18.68 41.64 41.64 0 17.14-6.67 33.25-18.79 45.37-11.41 11.4-17.69 26.57-17.69 42.7 0 4.48-3.63 8.11-8.11 8.11-4.48 0-8.11-3.63-8.11-8.11z" stroke-dasharray="466.6582580997462,0.277312262113718" stroke-dashoffset="466.93557"/><path d="M20466.9 223.57c0-4.48 3.63-8.11 8.11-8.11 4.48 0 8.11 3.63 8.11 8.11 0 4.48-3.63 8.11-8.11 8.11-4.48 0-8.11-3.63-8.11-8.11z" stroke-dasharray="50.93519945951752,0.030268306920892597" stroke-dashoffset="50.965468"/></g><g fill="none" stroke="#2e3440" stroke-width="3"><path d="M20733.28 234.22c-24.5-24.5-37.99-57.07-37.99-91.72s13.49-67.22 37.99-91.72 57.07-37.99 91.72-37.99 67.22 13.49 91.72 37.99 37.99 57.07 37.99 91.72-13.49 67.22-37.99 91.72-57.07 37.99-91.72 37.99-67.22-13.49-91.72-37.99zm-21.78-91.72c0 62.58 50.92 113.5 113.5 113.5s113.5-50.92 113.5-113.5S20887.58 29 20825 29s-113.5 50.92-113.5 113.5z" stroke-dasharray="815.1167495094892,0.11946967710312581" stroke-dashoffset="815.236219"/><path d="M20816.89 191.14c0-20.46 7.97-39.7 22.44-54.17 9.06-9.06 14.04-21.1 14.04-33.9 0-14.02-11.4-25.43-25.42-25.43h-1.85c-14.02 0-25.42 11.41-25.42 25.43v2.95c0 4.48-3.63 8.11-8.11 8.11-4.48 0-8.11-3.63-8.11-8.11v-2.95c0-22.96 18.68-41.64 41.64-41.64h1.85c22.96 0 41.64 18.68 41.64 41.64 0 17.14-6.67 33.25-18.79 45.37-11.41 11.4-17.69 26.57-17.69 42.7 0 4.48-3.63 8.11-8.11 8.11-4.48 0-8.11-3.63-8.11-8.11z" stroke-dasharray="466.8671427816001,0.06842758025981084" stroke-dashoffset="466.93557"/><path d="M20816.9 223.57c0-4.48 3.63-8.11 8.11-8.11 4.48 0 8.11 3.63 8.11 8.11 0 4.48-3.63 8.11-8.11 8.11-4.48 0-8.11-3.63-8.11-8.11z" stroke-dasharray="50.957998976615094,0.007468789823324258" stroke-dashoffset="50.965468"/></g><g fill="none" stroke="#2e3440" stroke-width="3"><path d="M21083.28 234.22c-24.5-24.5-37.99-57.07-37.99-91.72s13.49-67.22 37.99-91.72 57.07-37.99 91.72-37.99 67.22 13.49 91.72 37.99 37.99 57.07 37.99 91.72-13.49 67.22-37.99 91.72-57.07 37.99-91.72 37.99-67.22-13.49-91.72-37.99zm-21.78-91.72c0 62.58 50.92 113.5 113.5 113.5s113.5-50.92 113.5-113.5S21237.58 29 21175 29s-113.5 50.92-113.5 113.5z"/><path d="M21166.89 191.14c0-20.46 7.97-39.7 22.44-54.17 9.06-9.06 14.04-21.1 14.04-33.9 0-14.02-11.4-25.43-25.42-25.43h-1.85c-14.02 0-25.42 11.41-25.42 25.43v2.95c0 4.48-3.63 8.11-8.11 8.11-4.48 0-8.11-3.63-8.11-8.11v-2.95c0-22.96 18.68-41.64 41.64-41.64h1.85c22.96 0 41.64 18.68 41.64 41.64 0 17.14-6.67 33.25-18.79 45.37-11.41 11.4-17.69 26.57-17.69 42.7 0 4.48-3.63 8.11-8.11 8.11-4.48 0-8.11-3.63-8.11-8.11zM21166.9 223.57c0-4.48 3.63-8.11 8.11-8.11 4.48 0 8.11 3.63 8.11 8.11 0 4.48-3.63 8.11-8.11 8.11-4.48 0-8.11-3.63-8.11-8.11z"/></g></svg>