<svg xmlns="http://www.w3.org/2000/svg" viewBox="0 0 21350 285" width="21350" height="285"><path d="M84.27 233.23c-24.23-24.24-37.58-56.46-37.58-90.73s13.35-66.49 37.58-90.73c24.24-24.23 56.46-37.58 90.73-37.58s66.49 13.35 90.73 37.58c24.23 24.24 37.58 56.46 37.58 90.73s-13.35 66.49-37.58 90.73c-24.24 24.23-56.46 37.58-90.73 37.58s-66.49-13.35-90.73-37.58zM66.74 142.5c0 59.69 48.57 108.26 108.26 108.26 59.69 0 108.26-48.57 108.26-108.26 0-59.69-48.57-108.26-108.26-108.26-59.69 0-108.26 48.57-108.26 108.26zm153.53 31.9c-3.92-3.92-10.27-3.92-14.18 0-17.59 17.58-46.21 17.58-63.79 0-8.52-8.52-13.22-19.85-13.22-31.9 0-12.05 4.7-23.38 13.22-31.9 17.58-17.58 46.2-17.58 63.79 0 3.91 3.92 10.26 3.92 14.18 0 3.91-3.91 3.91-10.26 0-14.17-25.41-25.41-66.75-25.41-92.15 0-12.31 12.3-19.08 28.67-19.08 46.07s6.77 33.77 19.08 46.07c12.7 12.7 29.39 19.06 46.07 19.06 16.69 0 33.37-6.36 46.08-19.06 3.91-3.91 3.91-10.26 0-14.17z" fill="none" stroke="#2e3440" stroke-width="4" stroke-dasharray="0,806.4232455727284" stroke-dashoffset="806.423246"/><path d="M434.27 233.23c-24.23-24.24-37.58-56.46-37.58-90.73s13.35-66.49 37.58-90.73c24.24-24.23 56.46-37.58 90.73-37.58s66.49 13.35 90.73 37.58c24.23 24.24 37.58 56.46 37.58 90.73s-13.35 66.49-37.58 90.73c-24.24 24.23-56.46 37.58-90.73 37.58s-66.49-13.35-90.73-37.58zm-17.53-90.73c0 59.69 48.57 108.26 108.26 108.26 59.69 0 108.26-48.57 108.26-108.26 0-59.69-48.57-108.26-108.26-108.26-59.69 0-108.26 48.57-108.26 108.26zm153.53 31.9c-3.92-3.92-10.27-3.92-14.18 0-17.59 17.58-46.21 17.58-63.79 0-8.52-8.52-13.22-19.85-13.22-31.9 0-12.05 4.7-23.38 13.22-31.9 17.58-17.58 46.2-17.58 63.79 0 3.91 3.92 10.26 3.92 14.18 0 3.91-3.91 3.91-10.26 0-14.17-25.41-25.41-66.75-25.41-92.15 0-12.31 12.3-19.08 28.67-19.08 46.07s6.77 33.77 19.08 46.07c12.7 12.7 29.39 19.06 46.07 19.06 16.69 0 33.37-6.36 46.08-19.06 3.91-3.91 3.91-10.26 0-14.17z" fill="none" stroke="#2e3440" stroke-width="4" stroke-dasharray="0.4823225516132334,805.9409230211152" stroke-dashoffset="806.423246"/><path d="M784.27 233.23c-24.23-24.24-37.58-56.46-37.58-90.73s13.35-66.49 37.58-90.73c24.24-24.23 56.46-37.58 90.73-37.58s66.49 13.35 90.73 37.58c24.23 24.24 37.58 56.46 37.58 90.73s-13.35 66.49-37.58 90.73c-24.24 24.23-56.46 37.58-90.73 37.58s-66.49-13.35-90.73-37.58zm-17.53-90.73c0 59.69 48.57 108.26 108.26 108.26 59.69 0 108.26-48.57 108.26-108.26 0-59.69-48.57-108.26-108.26-108.26-59.69 0-108.26 48.57-108.26 108.26zm153.53 31.9c-3.92-3.92-10.27-3.92-14.18 0-17.59 17.58-46.21 17.58-63.79 0-8.52-8.52-13.22-19.85-13.22-31.9 0-12.05 4.7-23.38 13.22-31.9 17.58-17.58 46.2-17.58 63.79 0 3.91 3.92 10.26 3.92 14.18 0 3.91-3.91 3.91-10.26 0-14.17-25.41-25.41-66.75-25.41-92.15 0-12.31 12.3-19.08 28.67-19.08 46.07s6.77 33.77 19.08 46.07c12.7 12.7 29.39 19.06 46.07 19.06 16.69 0 33.37-6.36 46.08-19.06 3.91-3.91 3.91-10.26 0-14.17z" fill="none" stroke="#2e3440" stroke-width="4" stroke-dasharray="1.9962752406584596,804.42697033207" stroke-dashoffset="806.423246"/><path d="M1134.27 233.23c-24.23-24.24-37.58-56.46-37.58-90.73s13.35-66.49 37.58-90.73c24.24-24.23 56.46-37.58 90.73-37.58s66.49 13.35 90.73 37.58c24.23 24.24 37.58 56.46 37.58 90.73s-13.35 66.49-37.58 90.73c-24.24 24.23-56.46 37.58-90.73 37.58s-66.49-13.35-90.73-37.58zm-17.53-90.73c0 59.69 48.57 108.26 108.26 108.26 59.69 0 108.26-48.57 108.26-108.26 0-59.69-48.57-108.26-108.26-108.26-59.69 0-108.26 48.57-108.26 108.26zm153.53 31.9c-3.92-3.92-10.27-3.92-14.18 0-17.59 17.58-46.21 17.58-63.79 0-8.52-8.52-13.22-19.85-13.22-31.9 0-12.05 4.7-23.38 13.22-31.9 17.58-17.58 46.2-17.58 63.79 0 3.91 3.92 10.26 3.92 14.18 0 3.91-3.91 3.91-10.26 0-14.17-25.41-25.41-66.75-25.41-92.15 0-12.31 12.3-19.08 28.67-19.08 46.07s6.77 33.77 19.08 46.07c12.7 12.7 29.39 19.06 46.07 19.06 16.69 0 33.37-6.36 46.08-19.06 3.91-3.91 3.91-10.26 0-14.17z" fill="none" stroke="#2e3440" stroke-width="4" stroke-dasharray="4.653233278292788,801.7700122944357" stroke-dashoffset="806.423246"/><path d="M1484.27 233.23c-24.23-24.24-37.58-56.46-37.58-90.73s13.35-66.49 37.58-90.73c24.24-24.23 56.46-37.58 90.73-37.58s66.49 13.35 90.73 37.58c24.23 24.24 37.58 56.46 37.58 90.73s-13.35 66.49-37.58 90.73c-24.24 24.23-56.46 37.58-90.73 37.58s-66.49-13.35-90.73-37.58zm-17.53-90.73c0 59.69 48.57 108.26 108.26 108.26 59.69 0 108.26-48.57 108.26-108.26 0-59.69-48.57-108.26-108.26-108.26-59.69 0-108.26 48.57-108.26 108.26zm153.53 31.9c-3.92-3.92-10.27-3.92-14.18 0-17.59 17.58-46.21 17.58-63.79 0-8.52-8.52-13.22-19.85-13.22-31.9 0-12.05 4.7-23.38 13.22-31.9 17.58-17.58 46.2-17.58 63.79 0 3.91 3.92 10.26 3.92 14.18 0 3.91-3.91 3.91-10.26 0-14.17-25.41-25.41-66.75-25.41-92.15 0-12.31 12.3-19.08 28.67-19.08 46.07s6.77 33.77 19.08 46.07c12.7 12.7 29.39 19.06 46.07 19.06 16.69 0 33.37-6.36 46.08-19.06 3.91-3.91 3.91-10.26 0-14.17z" fill="none" stroke="#2e3440" stroke-width="4" stroke-dasharray="8.580952067205013,797.8422935055233" stroke-dashoffset="806.423246"/><path d="M1834.27 233.23c-24.23-24.24-37.58-56.46-37.58-90.73s13.35-66.49 37.58-90.73c24.24-24.23 56.46-37.58 90.73-37.58s66.49 13.35 90.73 37.58c24.23 24.24 37.58 56.46 37.58 90.73s-13.35 66.49-37.58 90.73c-24.24 24.23-56.46 37.58-90.73 37.58s-66.49-13.35-90.73-37.58zm-17.53-90.73c0 59.69 48.57 108.26 108.26 108.26 59.69 0 108.26-48.57 108.26-108.26 0-59.69-48.57-108.26-108.26-108.26-59.69 0-108.26 48.57-108.26 108.26zm153.53 31.9c-3.92-3.92-10.27-3.92-14.18 0-17.59 17.58-46.21 17.58-63.79 0-8.52-8.52-13.22-19.85-13.22-31.9 0-12.05 4.7-23.38 13.22-31.9 17.58-17.58 46.2-17.58 63.79 0 3.91 3.92 10.26 3.92 14.18 0 3.91-3.91 3.91-10.26 0-14.17-25.41-25.41-66.75-25.41-92.15 0-12.31 12.3-19.08 28.67-19.08 46.07s6.77 33.77 19.08 46.07c12.7 12.7 29.39 19.06 46.07 19.06 16.69 0 33.37-6.36 46.08-19.06 3.91-3.91 3.91-10.26 0-14.17z" fill="none" stroke="#2e3440" stroke-width="4" stroke-dasharray="13.926047812208159,792.4971977605203" stroke-dashoffset="806.423246"/><path d="M2184.27 233.23c-24.23-24.24-37.58-56.46-37.58-90.73s13.35-66.49 37.58-90.73c24.24-24.23 56.46-37.58 90.73-37.58s66.49 13.35 90.73 37.58c24.23 24.24 37.58 56.46 37.58 90.73s-13.35 66.49-37.58 90.73c-24.24 24.23-56.46 37.58-90.73 37.58s-66.49-13.35-90.73-37.58zm-17.53-90.73c0 59.69 48.57 108.26 108.26 108.26 59.69 0 108.26-48.57 108.26-108.26 0-59.69-48.57-108.26-108.26-108.26-59.69 0-108.26 48.57-108.26 108.26zm153.53 31.9c-3.92-3.92-10.27-3.92-14.18 0-17.59 17.58-46.21 17.58-63.79 0-8.52-8.52-13.22-19.85-13.22-31.9 0-12.05 4.7-23.38 13.22-31.9 17.58-17.58 46.2-17.58 63.79 0 3.91 3.92 10.26 3.92 14.18 0 3.91-3.91 3.91-10.26 0-14.17-25.41-25.41-66.75-25.41-92.15 0-12.31 12.3-19.08 28.67-19.08 46.07s6.77 33.77 19.08 46.07c12.7 12.7 29.39 19.06 46.07 19.06 16.69 0 33.37-6.36 46.08-19.06 3.91-3.91 3.91-10.26 0-14.17z" fill="none" stroke="#2e3440" stroke-width="4" stroke-dasharray="20.856536409029072,785.5667091636994" stroke-dashoffset="806.423246"/><path d="M2534.27 233.23c-24.23-24.24-37.58-56.46-37.58-90.73s13.35-66.49 37.58-90.73c24.24-24.23 56.46-37.58 90.73-37.58s66.49 13.35 90.73 37.58c24.23 24.24 37.58 56.46 37.58 90.73s-13.35 66.49-37.58 90.73c-24.24 24.23-56.46 37.58-90.73 37.58s-66.49-13.35-90.73-37.58zm-17.53-90.73c0 59.69 48.57 108.26 108.26 108.26 59.69 0 108.26-48.57 108.26-108.26 0-59.69-48.57-108.26-108.26-108.26-59.69 0-108.26 48.57-108.26 108.26zm153.53 31.9c-3.92-3.92-10.27-3.92-14.18 0-17.59 17.58-46.21 17.58-63.79 0-8.52-8.52-13.22-19.85-13.22-31.9 0-12.05 4.7-23.38 13.22-31.9 17.58-17.58 46.2-17.58 63.79 0 3.91 3.92 10.26 3.92 14.18 0 3.91-3.91 3.91-10.26 0-14.17-25.41-25.41-66.75-25.41-92.15 0-12.31 12.3-19.08 28.67-19.08 46.07s6.77 33.77 19.08 46.07c12.7 12.7 29.39 19.06 46.07 19.06 16.69 0 33.37-6.36 46.08-19.06 3.91-3.91 3.91-10.26 0-14.17z" fill="none" stroke="#2e3440" stroke-width="4" stroke-dasharray="29.56409274214562,776.8591528305828" stroke-dashoffset="806.423246"/><path d="M2884.27 233.23c-24.23-24.24-37.58-56.46-37.58-90.73s13.35-66.49 37.58-90.73c24.24-24.23 56.46-37.58 90.73-37.58s66.49 13.35 90.73 37.58c24.23 24.24 37.58 56.46 37.58 90.73s-13.35 66.49-37.58 90.73c-24.24 24.23-56.46 37.58-90.73 37.58s-66.49-13.35-90.73-37.58zm-17.53-90.73c0 59.69 48.57 108.26 108.26 108.26 59.69 0 108.26-48.57 108.26-108.26 0-59.69-48.57-108.26-108.26-108.26-59.69 0-108.26 48.57-108.26 108.26zm153.53 31.9c-3.92-3.92-10.27-3.92-14.18 0-17.59 17.58-46.21 17.58-63.79 0-8.52-8.52-13.22-19.85-13.22-31.9 0-12.05 4.7-23.38 13.22-31.9 17.58-17.58 46.2-17.58 63.79 0 3.91 3.92 10.26 3.92 14.18 0 3.91-3.91 3.91-10.26 0-14.17-25.41-25.41-66.75-25.41-92.15 0-12.31 12.3-19.08 28.67-19.08 46.07s6.77 33.77 19.08 46.07c12.7 12.7 29.39 19.06 46.07 19.06 16.69 0 33.37-6.36 46.08-19.06 3.91-3.91 3.91-10.26 0-14.17z" fill="none" stroke="#2e3440" stroke-width="4" stroke-dasharray="40.265363400602624,766.1578821721257" stroke-dashoffset="806.423246"/><path d="M3234.27 233.23c-24.23-24.24-37.58-56.46-37.58-90.73s13.35-66.49 37.58-90.73c24.24-24.23 56.46-37.58 90.73-37.58s66.49 13.35 90.73 37.58c24.23 24.24 37.58 56.46 37.58 90.73s-13.35 66.49-37.58 90.73c-24.24 24.23-56.46 37.58-90.73 37.58s-66.49-13.35-90.73-37.58zm-17.53-90.73c0 59.69 48.57 108.26 108.26 108.26 59.69 0 108.26-48.57 108.26-108.26 0-59.69-48.57-108.26-108.26-108.26-59.69 0-108.26 48.57-108.26 108.26zm153.53 31.9c-3.92-3.92-10.27-3.92-14.18 0-17.59 17.58-46.21 17.58-63.79 0-8.52-8.52-13.22-19.85-13.22-31.9 0-12.05 4.7-23.38 13.22-31.9 17.58-17.58 46.2-17.58 63.79 0 3.91 3.92 10.26 3.92 14.18 0 3.91-3.91 3.91-10.26 0-14.17-25.41-25.41-66.75-25.41-92.15 0-12.31 12.3-19.08 28.67-19.08 46.07s6.77 33.77 19.08 46.07c12.7 12.7 29.39 19.06 46.07 19.06 16.69 0 33.37-6.36 46.08-19.06 3.91-3.91 3.91-10.26 0-14.17z" fill="none" stroke="#2e3440" stroke-width="4" stroke-dasharray="53.20110603448052,753.2221395382479" stroke-dashoffset="806.423246"/><path d="M3584.27 233.23c-24.23-24.24-37.58-56.46-37.58-90.73s13.35-66.49 37.58-90.73c24.24-24.23 56.46-37.58 90.73-37.58s66.49 13.35 90.73 37.58c24.23 24.24 37.58 56.46 37.58 90.73s-13.35 66.49-37.58 90.73c-24.24 24.23-56.46 37.58-90.73 37.58s-66.49-13.35-90.73-37.58zm-17.53-90.73c0 59.69 48.57 108.26 108.26 108.26 59.69 0 108.26-48.57 108.26-108.26 0-59.69-48.57-108.26-108.26-108.26-59.69 0-108.26 48.57-108.26 108.26zm153.53 31.9c-3.92-3.92-10.27-3.92-14.18 0-17.59 17.58-46.21 17.58-63.79 0-8.52-8.52-13.22-19.85-13.22-31.9 0-12.05 4.7-23.38 13.22-31.9 17.58-17.58 46.2-17.58 63.79 0 3.91 3.92 10.26 3.92 14.18 0 3.91-3.91 3.91-10.26 0-14.17-25.41-25.41-66.75-25.41-92.15 0-12.31 12.3-19.08 28.67-19.08 46.07s6.77 33.77 19.08 46.07c12.7 12.7 29.39 19.06 46.07 19.06 16.69 0 33.37-6.36 46.08-19.06 3.91-3.91 3.91-10.26 0-14.17z" fill="none" stroke="#2e3440" stroke-width="4" stroke-dasharray="68.631038692379,737.7922068803495" stroke-dashoffset="806.423246"/><path d="M3934.27 233.23c-24.23-24.24-37.58-56.46-37.58-90.73s13.35-66.49 37.58-90.73c24.24-24.23 56.46-37.58 90.73-37.58s66.49 13.35 90.73 37.58c24.23 24.24 37.58 56.46 37.58 90.73s-13.35 66.49-37.58 90.73c-24.24 24.23-56.46 37.58-90.73 37.58s-66.49-13.35-90.73-37.58zm-17.53-90.73c0 59.69 48.57 108.26 108.26 108.26 59.69 0 108.26-48.57 108.26-108.26 0-59.69-48.57-108.26-108.26-108.26-59.69 0-108.26 48.57-108.26 108.26zm153.53 31.9c-3.92-3.92-10.27-3.92-14.18 0-17.59 17.58-46.21 17.58-63.79 0-8.52-8.52-13.22-19.85-13.22-31.9 0-12.05 4.7-23.38 13.22-31.9 17.58-17.58 46.2-17.58 63.79 0 3.91 3.92 10.26 3.92 14.18 0 3.91-3.91 3.91-10.26 0-14.17-25.41-25.41-66.75-25.41-92.15 0-12.31 12.3-19.08 28.67-19.08 46.07s6.77 33.77 19.08 46.07c12.7 12.7 29.39 19.06 46.07 19.06 16.69 0 33.37-6.36 46.08-19.06 3.91-3.91 3.91-10.26 0-14.17z" fill="none" stroke="#2e3440" stroke-width="4" stroke-dasharray="86.82102132145307,719.6022242512753" stroke-dashoffset="806.423246"/><path d="M4284.27 233.23c-24.23-24.24-37.58-56.46-37.58-90.73s13.35-66.49 37.58-90.73c24.24-24.23 56.46-37.58 90.73-37.58s66.49 13.35 90.73 37.58c24.23 24.24 37.58 56.46 37.58 90.73s-13.35 66.49-37.58 90.73c-24.24 24.23-56.46 37.58-90.73 37.58s-66.49-13.35-90.73-37.58zm-17.53-90.73c0 59.69 48.57 108.26 108.26 108.26 59.69 0 108.26-48.57 108.26-108.26 0-59.69-48.57-108.26-108.26-108.26-59.69 0-108.26 48.57-108.26 108.26zm153.53 31.9c-3.92-3.92-10.27-3.92-14.18 0-17.59 17.58-46.21 17.58-63.79 0-8.52-8.52-13.22-19.85-13.22-31.9 0-12.05 4.7-23.38 13.22-31.9 17.58-17.58 46.2-17.58 63.79 0 3.91 3.92 10.26 3.92 14.18 0 3.91-3.91 3.91-10.26 0-14.17-25.41-25.41-66.75-25.41-92.15 0-12.31 12.3-19.08 28.67-19.08 46.07s6.77 33.77 19.08 46.07c12.7 12.7 29.39 19.06 46.07 19.06 16.69 0 33.37-6.36 46.08-19.06 3.91-3.91 3.91-10.26 0-14.17z" fill="none" stroke="#2e3440" stroke-width="4" stroke-dasharray="108.01779309087672,698.4054524818516" stroke-dashoffset="806.423246"/><path d="M4634.27 233.23c-24.23-24.24-37.58-56.46-37.58-90.73s13.35-66.49 37.58-90.73c24.24-24.23 56.46-37.58 90.73-37.58s66.49 13.35 90.73 37.58c24.23 24.24 37.58 56.46 37.58 90.73s-13.35 66.49-37.58 90.73c-24.24 24.23-56.46 37.58-90.73 37.58s-66.49-13.35-90.73-37.58zm-17.53-90.73c0 59.69 48.57 108.26 108.26 108.26 59.69 0 108.26-48.57 108.26-108.26 0-59.69-48.57-108.26-108.26-108.26-59.69 0-108.26 48.57-108.26 108.26zm153.53 31.9c-3.92-3.92-10.27-3.92-14.18 0-17.59 17.58-46.21 17.58-63.79 0-8.52-8.52-13.22-19.85-13.22-31.9 0-12.05 4.7-23.38 13.22-31.9 17.58-17.58 46.2-17.58 63.79 0 3.91 3.92 10.26 3.92 14.18 0 3.91-3.91 3.91-10.26 0-14.17-25.41-25.41-66.75-25.41-92.15 0-12.31 12.3-19.08 28.67-19.08 46.07s6.77 33.77 19.08 46.07c12.7 12.7 29.39 19.06 46.07 19.06 16.69 0 33.37-6.36 46.08-19.06 3.91-3.91 3.91-10.26 0-14.17z" fill="none" stroke="#2e3440" stroke-width="4" stroke-dasharray="132.4059370657436,674.0173085069848" stroke-dashoffset="806.423246"/><path d="M4984.27 233.23c-24.23-24.24-37.58-56.46-37.58-90.73s13.35-66.49 37.58-90.73c24.24-24.23 56.46-37.58 90.73-37.58s66.49 13.35 90.73 37.58c24.23 24.24 37.58 56.46 37.58 90.73s-13.35 66.49-37.58 90.73c-24.24 24.23-56.46 37.58-90.73 37.58s-66.49-13.35-90.73-37.58zm-17.53-90.73c0 59.69 48.57 108.26 108.26 108.26 59.69 0 108.26-48.57 108.26-108.26 0-59.69-48.57-108.26-108.26-108.26-59.69 0-108.26 48.57-108.26 108.26zm153.53 31.9c-3.92-3.92-10.27-3.92-14.18 0-17.59 17.58-46.21 17.58-63.79 0-8.52-8.52-13.22-19.85-13.22-31.9 0-12.05 4.7-23.38 13.22-31.9 17.58-17.58 46.2-17.58 63.79 0 3.91 3.92 10.26 3.92 14.18 0 3.91-3.91 3.91-10.26 0-14.17-25.41-25.41-66.75-25.41-92.15 0-12.31 12.3-19.08 28.67-19.08 46.07s6.77 33.77 19.08 46.07c12.7 12.7 29.39 19.06 46.07 19.06 16.69 0 33.37-6.36 46.08-19.06 3.91-3.91 3.91-10.26 0-14.17z" fill="none" stroke="#2e3440" stroke-width="4" stroke-dasharray="160.04441813581008,646.3788274369183" stroke-dashoffset="806.423246"/><path d="M5334.27 233.23c-24.23-24.24-37.58-56.46-37.58-90.73s13.35-66.49 37.58-90.73c24.24-24.23 56.46-37.58 90.73-37.58s66.49 13.35 90.73 37.58c24.23 24.24 37.58 56.46 37.58 90.73s-13.35 66.49-37.58 90.73c-24.24 24.23-56.46 37.58-90.73 37.58s-66.49-13.35-90.73-37.58zm-17.53-90.73c0 59.69 48.57 108.26 108.26 108.26 59.69 0 108.26-48.57 108.26-108.26 0-59.69-48.57-108.26-108.26-108.26-59.69 0-108.26 48.57-108.26 108.26zm153.53 31.9c-3.92-3.92-10.27-3.92-14.18 0-17.59 17.58-46.21 17.58-63.79 0-8.52-8.52-13.22-19.85-13.22-31.9 0-12.05 4.7-23.38 13.22-31.9 17.58-17.58 46.2-17.58 63.79 0 3.91 3.92 10.26 3.92 14.18 0 3.91-3.91 3.91-10.26 0-14.17-25.41-25.41-66.75-25.41-92.15 0-12.31 12.3-19.08 28.67-19.08 46.07s6.77 33.77 19.08 46.07c12.7 12.7 29.39 19.06 46.07 19.06 16.69 0 33.37-6.36 46.08-19.06 3.91-3.91 3.91-10.26 0-14.17z" fill="none" stroke="#2e3440" stroke-width="4" stroke-dasharray="190.78954708991333,615.6336984828151" stroke-dashoffset="806.423246"/><path d="M5684.27 233.23c-24.23-24.24-37.58-56.46-37.58-90.73s13.35-66.49 37.58-90.73c24.24-24.23 56.46-37.58 90.73-37.58s66.49 13.35 90.73 37.58c24.23 24.24 37.58 56.46 37.58 90.73s-13.35 66.49-37.58 90.73c-24.24 24.23-56.46 37.58-90.73 37.58s-66.49-13.35-90.73-37.58zm-17.53-90.73c0 59.69 48.57 108.26 108.26 108.26 59.69 0 108.26-48.57 108.26-108.26 0-59.69-48.57-108.26-108.26-108.26-59.69 0-108.26 48.57-108.26 108.26zm153.53 31.9c-3.92-3.92-10.27-3.92-14.18 0-17.59 17.58-46.21 17.58-63.79 0-8.52-8.52-13.22-19.85-13.22-31.9 0-12.05 4.7-23.38 13.22-31.9 17.58-17.58 46.2-17.58 63.79 0 3.91 3.92 10.26 3.92 14.18 0 3.91-3.91 3.91-10.26 0-14.17-25.41-25.41-66.75-25.41-92.15 0-12.31 12.3-19.08 28.67-19.08 46.07s6.77 33.77 19.08 46.07c12.7 12.7 29.39 19.06 46.07 19.06 16.69 0 33.37-6.36 46.08-19.06 3.91-3.91 3.91-10.26 0-14.17z" fill="none" stroke="#2e3440" stroke-width="4" stroke-dasharray="224.22883595113555,582.194409621593" stroke-dashoffset="806.423246"/><path d="M6034.27 233.23c-24.23-24.24-37.58-56.46-37.58-90.73s13.35-66.49 37.58-90.73c24.24-24.23 56.46-37.58 90.73-37.58s66.49 13.35 90.73 37.58c24.23 24.24 37.58 56.46 37.58 90.73s-13.35 66.49-37.58 90.73c-24.24 24.23-56.46 37.58-90.73 37.58s-66.49-13.35-90.73-37.58zm-17.53-90.73c0 59.69 48.57 108.26 108.26 108.26 59.69 0 108.26-48.57 108.26-108.26 0-59.69-48.57-108.26-108.26-108.26-59.69 0-108.26 48.57-108.26 108.26zm153.53 31.9c-3.92-3.92-10.27-3.92-14.18 0-17.59 17.58-46.21 17.58-63.79 0-8.52-8.52-13.22-19.85-13.22-31.9 0-12.05 4.7-23.38 13.22-31.9 17.58-17.58 46.2-17.58 63.79 0 3.91 3.92 10.26 3.92 14.18 0 3.91-3.91 3.91-10.26 0-14.17-25.41-25.41-66.75-25.41-92.15 0-12.31 12.3-19.08 28.67-19.08 46.07s6.77 33.77 19.08 46.07c12.7 12.7 29.39 19.06 46.07 19.06 16.69 0 33.37-6.36 46.08-19.06 3.91-3.91 3.91-10.26 0-14.17z" fill="none" stroke="#2e3440" stroke-width="4" stroke-dasharray="259.6666912291789,546.7565543435495" stroke-dashoffset="806.423246"/><path d="M6384.27 233.23c-24.23-24.24-37.58-56.46-37.58-90.73s13.35-66.49 37.58-90.73c24.24-24.23 56.46-37.58 90.73-37.58s66.49 13.35 90.73 37.58c24.23 24.24 37.58 56.46 37.58 90.73s-13.35 66.49-37.58 90.73c-24.24 24.23-56.46 37.58-90.73 37.58s-66.49-13.35-90.73-37.58zm-17.53-90.73c0 59.69 48.57 108.26 108.26 108.26 59.69 0 108.26-48.57 108.26-108.26 0-59.69-48.57-108.26-108.26-108.26-59.69 0-108.26 48.57-108.26 108.26zm153.53 31.9c-3.92-3.92-10.27-3.92-14.18 0-17.59 17.58-46.21 17.58-63.79 0-8.52-8.52-13.22-19.85-13.22-31.9 0-12.05 4.7-23.38 13.22-31.9 17.58-17.58 46.2-17.58 63.79 0 3.91 3.92 10.26 3.92 14.18 0 3.91-3.91 3.91-10.26 0-14.17-25.41-25.41-66.75-25.41-92.15 0-12.31 12.3-19.08 28.67-19.08 46.07s6.77 33.77 19.08 46.07c12.7 12.7 29.39 19.06 46.07 19.06 16.69 0 33.37-6.36 46.08-19.06 3.91-3.91 3.91-10.26 0-14.17z" fill="none" stroke="#2e3440" stroke-width="4" stroke-dasharray="296.19579716092295,510.2274484118055" stroke-dashoffset="806.423246"/><path d="M6734.27 233.23c-24.23-24.24-37.58-56.46-37.58-90.73s13.35-66.49 37.58-90.73c24.24-24.23 56.46-37.58 90.73-37.58s66.49 13.35 90.73 37.58c24.23 24.24 37.58 56.46 37.58 90.73s-13.35 66.49-37.58 90.73c-24.24 24.23-56.46 37.58-90.73 37.58s-66.49-13.35-90.73-37.58zm-17.53-90.73c0 59.69 48.57 108.26 108.26 108.26 59.69 0 108.26-48.57 108.26-108.26 0-59.69-48.57-108.26-108.26-108.26-59.69 0-108.26 48.57-108.26 108.26zm153.53 31.9c-3.92-3.92-10.27-3.92-14.18 0-17.59 17.58-46.21 17.58-63.79 0-8.52-8.52-13.22-19.85-13.22-31.9 0-12.05 4.7-23.38 13.22-31.9 17.58-17.58 46.2-17.58 63.79 0 3.91 3.92 10.26 3.92 14.18 0 3.91-3.91 3.91-10.26 0-14.17-25.41-25.41-66.75-25.41-92.15 0-12.31 12.3-19.08 28.67-19.08 46.07s6.77 33.77 19.08 46.07c12.7 12.7 29.39 19.06 46.07 19.06 16.69 0 33.37-6.36 46.08-19.06 3.91-3.91 3.91-10.26 0-14.17z" fill="none" stroke="#2e3440" stroke-width="4" stroke-dasharray="332.8443512582553,473.5788943144731" stroke-dashoffset="806.423246"/><path d="M7084.27 233.23c-24.23-24.24-37.58-56.46-37.58-90.73s13.35-66.49 37.58-90.73c24.24-24.23 56.46-37.58 90.73-37.58s66.49 13.35 90.73 37.58c24.23 24.24 37.58 56.46 37.58 90.73s-13.35 66.49-37.58 90.73c-24.24 24.23-56.46 37.58-90.73 37.58s-66.49-13.35-90.73-37.58zm-17.53-90.73c0 59.69 48.57 108.26 108.26 108.26 59.69 0 108.26-48.57 108.26-108.26 0-59.69-48.57-108.26-108.26-108.26-59.69 0-108.26 48.57-108.26 108.26zm153.53 31.9c-3.92-3.92-10.27-3.92-14.18 0-17.59 17.58-46.21 17.58-63.79 0-8.52-8.52-13.22-19.85-13.22-31.9 0-12.05 4.7-23.38 13.22-31.9 17.58-17.58 46.2-17.58 63.79 0 3.91 3.92 10.26 3.92 14.18 0 3.91-3.91 3.91-10.26 0-14.17-25.41-25.41-66.75-25.41-92.15 0-12.31 12.3-19.08 28.67-19.08 46.07s6.77 33.77 19.08 46.07c12.7 12.7 29.39 19.06 46.07 19.06 16.69 0 33.37-6.36 46.08-19.06 3.91-3.91 3.91-10.26 0-14.17z" fill="none" stroke="#2e3440" stroke-width="4" stroke-dasharray="368.73843206689827,437.68481350583016" stroke-dashoffset="806.423246"/><path d="M7434.27 233.23c-24.23-24.24-37.58-56.46-37.58-90.73s13.35-66.49 37.58-90.73c24.24-24.23 56.46-37.58 90.73-37.58s66.49 13.35 90.73 37.58c24.23 24.24 37.58 56.46 37.58 90.73s-13.35 66.49-37.58 90.73c-24.24 24.23-56.46 37.58-90.73 37.58s-66.49-13.35-90.73-37.58zm-17.53-90.73c0 59.69 48.57 108.26 108.26 108.26 59.69 0 108.26-48.57 108.26-108.26 0-59.69-48.57-108.26-108.26-108.26-59.69 0-108.26 48.57-108.26 108.26zm153.53 31.9c-3.92-3.92-10.27-3.92-14.18 0-17.59 17.58-46.21 17.58-63.79 0-8.52-8.52-13.22-19.85-13.22-31.9 0-12.05 4.7-23.38 13.22-31.9 17.58-17.58 46.2-17.58 63.79 0 3.91 3.92 10.26 3.92 14.18 0 3.91-3.91 3.91-10.26 0-14.17-25.41-25.41-66.75-25.41-92.15 0-12.31 12.3-19.08 28.67-19.08 46.07s6.77 33.77 19.08 46.07c12.7 12.7 29.39 19.06 46.07 19.06 16.69 0 33.37-6.36 46.08-19.06 3.91-3.91 3.91-10.26 0-14.17z" fill="none" stroke="#2e3440" stroke-width="4" stroke-dasharray="403.2116227863641,403.21162278636433" stroke-dashoffset="806.423246"/><path d="M7784.27 233.23c-24.23-24.24-37.58-56.46-37.58-90.73s13.35-66.49 37.58-90.73c24.24-24.23 56.46-37.58 90.73-37.58s66.49 13.35 90.73 37.58c24.23 24.24 37.58 56.46 37.58 90.73s-13.35 66.49-37.58 90.73c-24.24 24.23-56.46 37.58-90.73 37.58s-66.49-13.35-90.73-37.58zm-17.53-90.73c0 59.69 48.57 108.26 108.26 108.26 59.69 0 108.26-48.57 108.26-108.26 0-59.69-48.57-108.26-108.26-108.26-59.69 0-108.26 48.57-108.26 108.26zm153.53 31.9c-3.92-3.92-10.27-3.92-14.18 0-17.59 17.58-46.21 17.58-63.79 0-8.52-8.52-13.22-19.85-13.22-31.9 0-12.05 4.7-23.38 13.22-31.9 17.58-17.58 46.2-17.58 63.79 0 3.91 3.92 10.26 3.92 14.18 0 3.91-3.91 3.91-10.26 0-14.17-25.41-25.41-66.75-25.41-92.15 0-12.31 12.3-19.08 28.67-19.08 46.07s6.77 33.77 19.08 46.07c12.7 12.7 29.39 19.06 46.07 19.06 16.69 0 33.37-6.36 46.08-19.06 3.91-3.91 3.91-10.26 0-14.17z" fill="none" stroke="#2e3440" stroke-width="4" stroke-dasharray="435.83579625746114,370.5874493152673" stroke-dashoffset="806.423246"/><path d="M8134.27 233.23c-24.23-24.24-37.58-56.46-37.58-90.73s13.35-66.49 37.58-90.73c24.24-24.23 56.46-37.58 90.73-37.58s66.49 13.35 90.73 37.58c24.23 24.24 37.58 56.46 37.58 90.73s-13.35 66.49-37.58 90.73c-24.24 24.23-56.46 37.58-90.73 37.58s-66.49-13.35-90.73-37.58zm-17.53-90.73c0 59.69 48.57 108.26 108.26 108.26 59.69 0 108.26-48.57 108.26-108.26 0-59.69-48.57-108.26-108.26-108.26-59.69 0-108.26 48.57-108.26 108.26zm153.53 31.9c-3.92-3.92-10.27-3.92-14.18 0-17.59 17.58-46.21 17.58-63.79 0-8.52-8.52-13.22-19.85-13.22-31.9 0-12.05 4.7-23.38 13.22-31.9 17.58-17.58 46.2-17.58 63.79 0 3.91 3.92 10.26 3.92 14.18 0 3.91-3.91 3.91-10.26 0-14.17-25.41-25.41-66.75-25.41-92.15 0-12.31 12.3-19.08 28.67-19.08 46.07s6.77 33.77 19.08 46.07c12.7 12.7 29.39 19.06 46.07 19.06 16.69 0 33.37-6.36 46.08-19.06 3.91-3.91 3.91-10.26 0-14.17z" fill="none" stroke="#2e3440" stroke-width="4" stroke-dasharray="466.3921705786412,340.03107499408725" stroke-dashoffset="806.423246"/><path d="M8484.27 233.23c-24.23-24.24-37.58-56.46-37.58-90.73s13.35-66.49 37.58-90.73c24.24-24.23 56.46-37.58 90.73-37.58s66.49 13.35 90.73 37.58c24.23 24.24 37.58 56.46 37.58 90.73s-13.35 66.49-37.58 90.73c-24.24 24.23-56.46 37.58-90.73 37.58s-66.49-13.35-90.73-37.58zm-17.53-90.73c0 59.69 48.57 108.26 108.26 108.26 59.69 0 108.26-48.57 108.26-108.26 0-59.69-48.57-108.26-108.26-108.26-59.69 0-108.26 48.57-108.26 108.26zm153.53 31.9c-3.92-3.92-10.27-3.92-14.18 0-17.59 17.58-46.21 17.58-63.79 0-8.52-8.52-13.22-19.85-13.22-31.9 0-12.05 4.7-23.38 13.22-31.9 17.58-17.58 46.2-17.58 63.79 0 3.91 3.92 10.26 3.92 14.18 0 3.91-3.91 3.91-10.26 0-14.17-25.41-25.41-66.75-25.41-92.15 0-12.31 12.3-19.08 28.67-19.08 46.07s6.77 33.77 19.08 46.07c12.7 12.7 29.39 19.06 46.07 19.06 16.69 0 33.37-6.36 46.08-19.06 3.91-3.91 3.91-10.26 0-14.17z" fill="none" stroke="#2e3440" stroke-width="4" stroke-dasharray="494.8170669463894,311.60617862633904" stroke-dashoffset="806.423246"/><path d="M8834.27 233.23c-24.23-24.24-37.58-56.46-37.58-90.73s13.35-66.49 37.58-90.73c24.24-24.23 56.46-37.58 90.73-37.58s66.49 13.35 90.73 37.58c24.23 24.24 37.58 56.46 37.58 90.73s-13.35 66.49-37.58 90.73c-24.24 24.23-56.46 37.58-90.73 37.58s-66.49-13.35-90.73-37.58zm-17.53-90.73c0 59.69 48.57 108.26 108.26 108.26 59.69 0 108.26-48.57 108.26-108.26 0-59.69-48.57-108.26-108.26-108.26-59.69 0-108.26 48.57-108.26 108.26zm153.53 31.9c-3.92-3.92-10.27-3.92-14.18 0-17.59 17.58-46.21 17.58-63.79 0-8.52-8.52-13.22-19.85-13.22-31.9 0-12.05 4.7-23.38 13.22-31.9 17.58-17.58 46.2-17.58 63.79 0 3.91 3.92 10.26 3.92 14.18 0 3.91-3.91 3.91-10.26 0-14.17-25.41-25.41-66.75-25.41-92.15 0-12.31 12.3-19.08 28.67-19.08 46.07s6.77 33.77 19.08 46.07c12.7 12.7 29.39 19.06 46.07 19.06 16.69 0 33.37-6.36 46.08-19.06 3.91-3.91 3.91-10.26 0-14.17z" fill="none" stroke="#2e3440" stroke-width="4" stroke-dasharray="521.147892621071,285.27535295165734" stroke-dashoffset="806.423246"/><path d="M9184.27 233.23c-24.23-24.24-37.58-56.46-37.58-90.73s13.35-66.49 37.58-90.73c24.24-24.23 56.46-37.58 90.73-37.58s66.49 13.35 90.73 37.58c24.23 24.24 37.58 56.46 37.58 90.73s-13.35 66.49-37.58 90.73c-24.24 24.23-56.46 37.58-90.73 37.58s-66.49-13.35-90.73-37.58zm-17.53-90.73c0 59.69 48.57 108.26 108.26 108.26 59.69 0 108.26-48.57 108.26-108.26 0-59.69-48.57-108.26-108.26-108.26-59.69 0-108.26 48.57-108.26 108.26zm153.53 31.9c-3.92-3.92-10.27-3.92-14.18 0-17.59 17.58-46.21 17.58-63.79 0-8.52-8.52-13.22-19.85-13.22-31.9 0-12.05 4.7-23.38 13.22-31.9 17.58-17.58 46.2-17.58 63.79 0 3.91 3.92 10.26 3.92 14.18 0 3.91-3.91 3.91-10.26 0-14.17-25.41-25.41-66.75-25.41-92.15 0-12.31 12.3-19.08 28.67-19.08 46.07s6.77 33.77 19.08 46.07c12.7 12.7 29.39 19.06 46.07 19.06 16.69 0 33.37-6.36 46.08-19.06 3.91-3.91 3.91-10.26 0-14.17z" fill="none" stroke="#2e3440" stroke-width="4" stroke-dasharray="545.4805977810194,260.94264779170913" stroke-dashoffset="806.423246"/><path d="M9534.27 233.23c-24.23-24.24-37.58-56.46-37.58-90.73s13.35-66.49 37.58-90.73c24.24-24.23 56.46-37.58 90.73-37.58s66.49 13.35 90.73 37.58c24.23 24.24 37.58 56.46 37.58 90.73s-13.35 66.49-37.58 90.73c-24.24 24.23-56.46 37.58-90.73 37.58s-66.49-13.35-90.73-37.58zm-17.53-90.73c0 59.69 48.57 108.26 108.26 108.26 59.69 0 108.26-48.57 108.26-108.26 0-59.69-48.57-108.26-108.26-108.26-59.69 0-108.26 48.57-108.26 108.26zm153.53 31.9c-3.92-3.92-10.27-3.92-14.18 0-17.59 17.58-46.21 17.58-63.79 0-8.52-8.52-13.22-19.85-13.22-31.9 0-12.05 4.7-23.38 13.22-31.9 17.58-17.58 46.2-17.58 63.79 0 3.91 3.92 10.26 3.92 14.18 0 3.91-3.91 3.91-10.26 0-14.17-25.41-25.41-66.75-25.41-92.15 0-12.31 12.3-19.08 28.67-19.08 46.07s6.77 33.77 19.08 46.07c12.7 12.7 29.39 19.06 46.07 19.06 16.69 0 33.37-6.36 46.08-19.06 3.91-3.91 3.91-10.26 0-14.17z" fill="none" stroke="#2e3440" stroke-width="4" stroke-dasharray="567.9402929953981,238.48295257733037" stroke-dashoffset="806.423246"/><path d="M9884.27 233.23c-24.23-24.24-37.58-56.46-37.58-90.73s13.35-66.49 37.58-90.73c24.24-24.23 56.46-37.58 90.73-37.58s66.49 13.35 90.73 37.58c24.23 24.24 37.58 56.46 37.58 90.73s-13.35 66.49-37.58 90.73c-24.24 24.23-56.46 37.58-90.73 37.58s-66.49-13.35-90.73-37.58zm-17.53-90.73c0 59.69 48.57 108.26 108.26 108.26 59.69 0 108.26-48.57 108.26-108.26 0-59.69-48.57-108.26-108.26-108.26-59.69 0-108.26 48.57-108.26 108.26zm153.53 31.9c-3.92-3.92-10.27-3.92-14.18 0-17.59 17.58-46.21 17.58-63.79 0-8.52-8.52-13.22-19.85-13.22-31.9 0-12.05 4.7-23.38 13.22-31.9 17.58-17.58 46.2-17.58 63.79 0 3.91 3.92 10.26 3.92 14.18 0 3.91-3.91 3.91-10.26 0-14.17-25.41-25.41-66.75-25.41-92.15 0-12.31 12.3-19.08 28.67-19.08 46.07s6.77 33.77 19.08 46.07c12.7 12.7 29.39 19.06 46.07 19.06 16.69 0 33.37-6.36 46.08-19.06 3.91-3.91 3.91-10.26 0-14.17z" fill="none" stroke="#2e3440" stroke-width="4" stroke-dasharray="588.6626741668134,217.76057140591496" stroke-dashoffset="806.423246"/><path d="M10234.27 233.23c-24.23-24.24-37.58-56.46-37.58-90.73s13.35-66.49 37.58-90.73c24.24-24.23 56.46-37.58 90.73-37.58s66.49 13.35 90.73 37.58c24.23 24.24 37.58 56.46 37.58 90.73s-13.35 66.49-37.58 90.73c-24.24 24.23-56.46 37.58-90.73 37.58s-66.49-13.35-90.73-37.58zm-17.53-90.73c0 59.69 48.57 108.26 108.26 108.26 59.69 0 108.26-48.57 108.26-108.26 0-59.69-48.57-108.26-108.26-108.26-59.69 0-108.26 48.57-108.26 108.26zm153.53 31.9c-3.92-3.92-10.27-3.92-14.18 0-17.59 17.58-46.21 17.58-63.79 0-8.52-8.52-13.22-19.85-13.22-31.9 0-12.05 4.7-23.38 13.22-31.9 17.58-17.58 46.2-17.58 63.79 0 3.91 3.92 10.26 3.92 14.18 0 3.91-3.91 3.91-10.26 0-14.17-25.41-25.41-66.75-25.41-92.15 0-12.31 12.3-19.08 28.67-19.08 46.07s6.77 33.77 19.08 46.07c12.7 12.7 29.39 19.06 46.07 19.06 16.69 0 33.37-6.36 46.08-19.06 3.91-3.91 3.91-10.26 0-14.17z" fill="none" stroke="#2e3440" stroke-width="4" stroke-dasharray="607.7831024752774,198.6401430974511" stroke-dashoffset="806.423246"/><path d="M10584.27 233.23c-24.23-24.24-37.58-56.46-37.58-90.73s13.35-66.49 37.58-90.73c24.24-24.23 56.46-37.58 90.73-37.58s66.49 13.35 90.73 37.58c24.23 24.24 37.58 56.46 37.58 90.73s-13.35 66.49-37.58 90.73c-24.24 24.23-56.46 37.58-90.73 37.58s-66.49-13.35-90.73-37.58zm-17.53-90.73c0 59.69 48.57 108.26 108.26 108.26 59.69 0 108.26-48.57 108.26-108.26 0-59.69-48.57-108.26-108.26-108.26-59.69 0-108.26 48.57-108.26 108.26zm153.53 31.9c-3.92-3.92-10.27-3.92-14.18 0-17.59 17.58-46.21 17.58-63.79 0-8.52-8.52-13.22-19.85-13.22-31.9 0-12.05 4.7-23.38 13.22-31.9 17.58-17.58 46.2-17.58 63.79 0 3.91 3.92 10.26 3.92 14.18 0 3.91-3.91 3.91-10.26 0-14.17-25.41-25.41-66.75-25.41-92.15 0-12.31 12.3-19.08 28.67-19.08 46.07s6.77 33.77 19.08 46.07c12.7 12.7 29.39 19.06 46.07 19.06 16.69 0 33.37-6.36 46.08-19.06 3.91-3.91 3.91-10.26 0-14.17z" fill="none" stroke="#2e3440" stroke-width="4" stroke-dasharray="625.4306696509648,180.99257592176366" stroke-dashoffset="806.423246"/><path d="M10934.27 233.23c-24.23-24.24-37.58-56.46-37.58-90.73s13.35-66.49 37.58-90.73c24.24-24.23 56.46-37.58 90.73-37.58s66.49 13.35 90.73 37.58c24.23 24.24 37.58 56.46 37.58 90.73s-13.35 66.49-37.58 90.73c-24.24 24.23-56.46 37.58-90.73 37.58s-66.49-13.35-90.73-37.58zm-17.53-90.73c0 59.69 48.57 108.26 108.26 108.26 59.69 0 108.26-48.57 108.26-108.26 0-59.69-48.57-108.26-108.26-108.26-59.69 0-108.26 48.57-108.26 108.26zm153.53 31.9c-3.92-3.92-10.27-3.92-14.18 0-17.59 17.58-46.21 17.58-63.79 0-8.52-8.52-13.22-19.85-13.22-31.9 0-12.05 4.7-23.38 13.22-31.9 17.58-17.58 46.2-17.58 63.79 0 3.91 3.92 10.26 3.92 14.18 0 3.91-3.91 3.91-10.26 0-14.17-25.41-25.41-66.75-25.41-92.15 0-12.31 12.3-19.08 28.67-19.08 46.07s6.77 33.77 19.08 46.07c12.7 12.7 29.39 19.06 46.07 19.06 16.69 0 33.37-6.36 46.08-19.06 3.91-3.91 3.91-10.26 0-14.17z" fill="none" stroke="#2e3440" stroke-width="4" stroke-dasharray="641.7253335098836,164.6979120628448" stroke-dashoffset="806.423246"/><path d="M11284.27 233.23c-24.23-24.24-37.58-56.46-37.58-90.73s13.35-66.49 37.58-90.73c24.24-24.23 56.46-37.58 90.73-37.58s66.49 13.35 90.73 37.58c24.23 24.24 37.58 56.46 37.58 90.73s-13.35 66.49-37.58 90.73c-24.24 24.23-56.46 37.58-90.73 37.58s-66.49-13.35-90.73-37.58zm-17.53-90.73c0 59.69 48.57 108.26 108.26 108.26 59.69 0 108.26-48.57 108.26-108.26 0-59.69-48.57-108.26-108.26-108.26-59.69 0-108.26 48.57-108.26 108.26zm153.53 31.9c-3.92-3.92-10.27-3.92-14.18 0-17.59 17.58-46.21 17.58-63.79 0-8.52-8.52-13.22-19.85-13.22-31.9 0-12.05 4.7-23.38 13.22-31.9 17.58-17.58 46.2-17.58 63.79 0 3.91 3.92 10.26 3.92 14.18 0 3.91-3.91 3.91-10.26 0-14.17-25.41-25.41-66.75-25.41-92.15 0-12.31 12.3-19.08 28.67-19.08 46.07s6.77 33.77 19.08 46.07c12.7 12.7 29.39 19.06 46.07 19.06 16.69 0 33.37-6.36 46.08-19.06 3.91-3.91 3.91-10.26 0-14.17z" fill="none" stroke="#2e3440" stroke-width="4" stroke-dasharray="656.7768612654916,149.6463843072369" stroke-dashoffset="806.423246"/><path d="M11634.27 233.23c-24.23-24.24-37.58-56.46-37.58-90.73s13.35-66.49 37.58-90.73c24.24-24.23 56.46-37.58 90.73-37.58s66.49 13.35 90.73 37.58c24.23 24.24 37.58 56.46 37.58 90.73s-13.35 66.49-37.58 90.73c-24.24 24.23-56.46 37.58-90.73 37.58s-66.49-13.35-90.73-37.58zm-17.53-90.73c0 59.69 48.57 108.26 108.26 108.26 59.69 0 108.26-48.57 108.26-108.26 0-59.69-48.57-108.26-108.26-108.26-59.69 0-108.26 48.57-108.26 108.26zm153.53 31.9c-3.92-3.92-10.27-3.92-14.18 0-17.59 17.58-46.21 17.58-63.79 0-8.52-8.52-13.22-19.85-13.22-31.9 0-12.05 4.7-23.38 13.22-31.9 17.58-17.58 46.2-17.58 63.79 0 3.91 3.92 10.26 3.92 14.18 0 3.91-3.91 3.91-10.26 0-14.17-25.41-25.41-66.75-25.41-92.15 0-12.31 12.3-19.08 28.67-19.08 46.07s6.77 33.77 19.08 46.07c12.7 12.7 29.39 19.06 46.07 19.06 16.69 0 33.37-6.36 46.08-19.06 3.91-3.91 3.91-10.26 0-14.17z" fill="none" stroke="#2e3440" stroke-width="4" stroke-dasharray="670.6847889502411,135.73845662248732" stroke-dashoffset="806.423246"/><path d="M11984.27 233.23c-24.23-24.24-37.58-56.46-37.58-90.73s13.35-66.49 37.58-90.73c24.24-24.23 56.46-37.58 90.73-37.58s66.49 13.35 90.73 37.58c24.23 24.24 37.58 56.46 37.58 90.73s-13.35 66.49-37.58 90.73c-24.24 24.23-56.46 37.58-90.73 37.58s-66.49-13.35-90.73-37.58zm-17.53-90.73c0 59.69 48.57 108.26 108.26 108.26 59.69 0 108.26-48.57 108.26-108.26 0-59.69-48.57-108.26-108.26-108.26-59.69 0-108.26 48.57-108.26 108.26zm153.53 31.9c-3.92-3.92-10.27-3.92-14.18 0-17.59 17.58-46.21 17.58-63.79 0-8.52-8.52-13.22-19.85-13.22-31.9 0-12.05 4.7-23.38 13.22-31.9 17.58-17.58 46.2-17.58 63.79 0 3.91 3.92 10.26 3.92 14.18 0 3.91-3.91 3.91-10.26 0-14.17-25.41-25.41-66.75-25.41-92.15 0-12.31 12.3-19.08 28.67-19.08 46.07s6.77 33.77 19.08 46.07c12.7 12.7 29.39 19.06 46.07 19.06 16.69 0 33.37-6.36 46.08-19.06 3.91-3.91 3.91-10.26 0-14.17z" fill="none" stroke="#2e3440" stroke-width="4" stroke-dasharray="683.5389170866033,122.88432848612509" stroke-dashoffset="806.423246"/><path d="M12334.27 233.23c-24.23-24.24-37.58-56.46-37.58-90.73s13.35-66.49 37.58-90.73c24.24-24.23 56.46-37.58 90.73-37.58s66.49 13.35 90.73 37.58c24.23 24.24 37.58 56.46 37.58 90.73s-13.35 66.49-37.58 90.73c-24.24 24.23-56.46 37.58-90.73 37.58s-66.49-13.35-90.73-37.58zm-17.53-90.73c0 59.69 48.57 108.26 108.26 108.26 59.69 0 108.26-48.57 108.26-108.26 0-59.69-48.57-108.26-108.26-108.26-59.69 0-108.26 48.57-108.26 108.26zm153.53 31.9c-3.92-3.92-10.27-3.92-14.18 0-17.59 17.58-46.21 17.58-63.79 0-8.52-8.52-13.22-19.85-13.22-31.9 0-12.05 4.7-23.38 13.22-31.9 17.58-17.58 46.2-17.58 63.79 0 3.91 3.92 10.26 3.92 14.18 0 3.91-3.91 3.91-10.26 0-14.17-25.41-25.41-66.75-25.41-92.15 0-12.31 12.3-19.08 28.67-19.08 46.07s6.77 33.77 19.08 46.07c12.7 12.7 29.39 19.06 46.07 19.06 16.69 0 33.37-6.36 46.08-19.06 3.91-3.91 3.91-10.26 0-14.17z" fill="none" stroke="#2e3440" stroke-width="4" stroke-dasharray="695.4200596941668,111.00318587856171" stroke-dashoffset="806.423246"/><path d="M12684.27 233.23c-24.23-24.24-37.58-56.46-37.58-90.73s13.35-66.49 37.58-90.73c24.24-24.23 56.46-37.58 90.73-37.58s66.49 13.35 90.73 37.58c24.23 24.24 37.58 56.46 37.58 90.73s-13.35 66.49-37.58 90.73c-24.24 24.23-56.46 37.58-90.73 37.58s-66.49-13.35-90.73-37.58zm-17.53-90.73c0 59.69 48.57 108.26 108.26 108.26 59.69 0 108.26-48.57 108.26-108.26 0-59.69-48.57-108.26-108.26-108.26-59.69 0-108.26 48.57-108.26 108.26zm153.53 31.9c-3.92-3.92-10.27-3.92-14.18 0-17.59 17.58-46.21 17.58-63.79 0-8.52-8.52-13.22-19.85-13.22-31.9 0-12.05 4.7-23.38 13.22-31.9 17.58-17.58 46.2-17.58 63.79 0 3.91 3.92 10.26 3.92 14.18 0 3.91-3.91 3.91-10.26 0-14.17-25.41-25.41-66.75-25.41-92.15 0-12.31 12.3-19.08 28.67-19.08 46.07s6.77 33.77 19.08 46.07c12.7 12.7 29.39 19.06 46.07 19.06 16.69 0 33.37-6.36 46.08-19.06 3.91-3.91 3.91-10.26 0-14.17z" fill="none" stroke="#2e3440" stroke-width="4" stroke-dasharray="706.4008845584931,100.02236101423532" stroke-dashoffset="806.423246"/><path d="M13034.27 233.23c-24.23-24.24-37.58-56.46-37.58-90.73s13.35-66.49 37.58-90.73c24.24-24.23 56.46-37.58 90.73-37.58s66.49 13.35 90.73 37.58c24.23 24.24 37.58 56.46 37.58 90.73s-13.35 66.49-37.58 90.73c-24.24 24.23-56.46 37.58-90.73 37.58s-66.49-13.35-90.73-37.58zm-17.53-90.73c0 59.69 48.57 108.26 108.26 108.26 59.69 0 108.26-48.57 108.26-108.26 0-59.69-48.57-108.26-108.26-108.26-59.69 0-108.26 48.57-108.26 108.26zm153.53 31.9c-3.92-3.92-10.27-3.92-14.18 0-17.59 17.58-46.21 17.58-63.79 0-8.52-8.52-13.22-19.85-13.22-31.9 0-12.05 4.7-23.38 13.22-31.9 17.58-17.58 46.2-17.58 63.79 0 3.91 3.92 10.26 3.92 14.18 0 3.91-3.91 3.91-10.26 0-14.17-25.41-25.41-66.75-25.41-92.15 0-12.31 12.3-19.08 28.67-19.08 46.07s6.77 33.77 19.08 46.07c12.7 12.7 29.39 19.06 46.07 19.06 16.69 0 33.37-6.36 46.08-19.06 3.91-3.91 3.91-10.26 0-14.17z" fill="none" stroke="#2e3440" stroke-width="4" stroke-dasharray="716.546755348801,89.87649022392742" stroke-dashoffset="806.423246"/><path d="M13384.27 233.23c-24.23-24.24-37.58-56.46-37.58-90.73s13.35-66.49 37.58-90.73c24.24-24.23 56.46-37.58 90.73-37.58s66.49 13.35 90.73 37.58c24.23 24.24 37.58 56.46 37.58 90.73s-13.35 66.49-37.58 90.73c-24.24 24.23-56.46 37.58-90.73 37.58s-66.49-13.35-90.73-37.58zm-17.53-90.73c0 59.69 48.57 108.26 108.26 108.26 59.69 0 108.26-48.57 108.26-108.26 0-59.69-48.57-108.26-108.26-108.26-59.69 0-108.26 48.57-108.26 108.26zm153.53 31.9c-3.92-3.92-10.27-3.92-14.18 0-17.59 17.58-46.21 17.58-63.79 0-8.52-8.52-13.22-19.85-13.22-31.9 0-12.05 4.7-23.38 13.22-31.9 17.58-17.58 46.2-17.58 63.79 0 3.91 3.92 10.26 3.92 14.18 0 3.91-3.91 3.91-10.26 0-14.17-25.41-25.41-66.75-25.41-92.15 0-12.31 12.3-19.08 28.67-19.08 46.07s6.77 33.77 19.08 46.07c12.7 12.7 29.39 19.06 46.07 19.06 16.69 0 33.37-6.36 46.08-19.06 3.91-3.91 3.91-10.26 0-14.17z" fill="none" stroke="#2e3440" stroke-width="4" stroke-dasharray="725.9165291286123,80.50671644411618" stroke-dashoffset="806.423246"/><path d="M13734.27 233.23c-24.23-24.24-37.58-56.46-37.58-90.73s13.35-66.49 37.58-90.73c24.24-24.23 56.46-37.58 90.73-37.58s66.49 13.35 90.73 37.58c24.23 24.24 37.58 56.46 37.58 90.73s-13.35 66.49-37.58 90.73c-24.24 24.23-56.46 37.58-90.73 37.58s-66.49-13.35-90.73-37.58zm-17.53-90.73c0 59.69 48.57 108.26 108.26 108.26 59.69 0 108.26-48.57 108.26-108.26 0-59.69-48.57-108.26-108.26-108.26-59.69 0-108.26 48.57-108.26 108.26zm153.53 31.9c-3.92-3.92-10.27-3.92-14.18 0-17.59 17.58-46.21 17.58-63.79 0-8.52-8.52-13.22-19.85-13.22-31.9 0-12.05 4.7-23.38 13.22-31.9 17.58-17.58 46.2-17.58 63.79 0 3.91 3.92 10.26 3.92 14.18 0 3.91-3.91 3.91-10.26 0-14.17-25.41-25.41-66.75-25.41-92.15 0-12.31 12.3-19.08 28.67-19.08 46.07s6.77 33.77 19.08 46.07c12.7 12.7 29.39 19.06 46.07 19.06 16.69 0 33.37-6.36 46.08-19.06 3.91-3.91 3.91-10.26 0-14.17z" fill="none" stroke="#2e3440" stroke-width="4" stroke-dasharray="734.563287744476,71.85995782825242" stroke-dashoffset="806.423246"/><path d="M14084.27 233.23c-24.23-24.24-37.58-56.46-37.58-90.73s13.35-66.49 37.58-90.73c24.24-24.23 56.46-37.58 90.73-37.58s66.49 13.35 90.73 37.58c24.23 24.24 37.58 56.46 37.58 90.73s-13.35 66.49-37.58 90.73c-24.24 24.23-56.46 37.58-90.73 37.58s-66.49-13.35-90.73-37.58zm-17.53-90.73c0 59.69 48.57 108.26 108.26 108.26 59.69 0 108.26-48.57 108.26-108.26 0-59.69-48.57-108.26-108.26-108.26-59.69 0-108.26 48.57-108.26 108.26zm153.53 31.9c-3.92-3.92-10.27-3.92-14.18 0-17.59 17.58-46.21 17.58-63.79 0-8.52-8.52-13.22-19.85-13.22-31.9 0-12.05 4.7-23.38 13.22-31.9 17.58-17.58 46.2-17.58 63.79 0 3.91 3.92 10.26 3.92 14.18 0 3.91-3.91 3.91-10.26 0-14.17-25.41-25.41-66.75-25.41-92.15 0-12.31 12.3-19.08 28.67-19.08 46.07s6.77 33.77 19.08 46.07c12.7 12.7 29.39 19.06 46.07 19.06 16.69 0 33.37-6.36 46.08-19.06 3.91-3.91 3.91-10.26 0-14.17z" fill="none" stroke="#2e3440" stroke-width="4" stroke-dasharray="742.5349957178694,63.88824985485908" stroke-dashoffset="806.423246"/><path d="M14434.27 233.23c-24.23-24.24-37.58-56.46-37.58-90.73s13.35-66.49 37.58-90.73c24.24-24.23 56.46-37.58 90.73-37.58s66.49 13.35 90.73 37.58c24.23 24.24 37.58 56.46 37.58 90.73s-13.35 66.49-37.58 90.73c-24.24 24.23-56.46 37.58-90.73 37.58s-66.49-13.35-90.73-37.58zm-17.53-90.73c0 59.69 48.57 108.26 108.26 108.26 59.69 0 108.26-48.57 108.26-108.26 0-59.69-48.57-108.26-108.26-108.26-59.69 0-108.26 48.57-108.26 108.26zm153.53 31.9c-3.92-3.92-10.27-3.92-14.18 0-17.59 17.58-46.21 17.58-63.79 0-8.52-8.52-13.22-19.85-13.22-31.9 0-12.05 4.7-23.38 13.22-31.9 17.58-17.58 46.2-17.58 63.79 0 3.91 3.92 10.26 3.92 14.18 0 3.91-3.91 3.91-10.26 0-14.17-25.41-25.41-66.75-25.41-92.15 0-12.31 12.3-19.08 28.67-19.08 46.07s6.77 33.77 19.08 46.07c12.7 12.7 29.39 19.06 46.07 19.06 16.69 0 33.37-6.36 46.08-19.06 3.91-3.91 3.91-10.26 0-14.17z" fill="none" stroke="#2e3440" stroke-width="4" stroke-dasharray="749.875084995296,56.5481605774324" stroke-dashoffset="806.423246"/><path d="M14784.27 233.23c-24.23-24.24-37.58-56.46-37.58-90.73s13.35-66.49 37.58-90.73c24.24-24.23 56.46-37.58 90.73-37.58s66.49 13.35 90.73 37.58c24.23 24.24 37.58 56.46 37.58 90.73s-13.35 66.49-37.58 90.73c-24.24 24.23-56.46 37.58-90.73 37.58s-66.49-13.35-90.73-37.58zm-17.53-90.73c0 59.69 48.57 108.26 108.26 108.26 59.69 0 108.26-48.57 108.26-108.26 0-59.69-48.57-108.26-108.26-108.26-59.69 0-108.26 48.57-108.26 108.26zm153.53 31.9c-3.92-3.92-10.27-3.92-14.18 0-17.59 17.58-46.21 17.58-63.79 0-8.52-8.52-13.22-19.85-13.22-31.9 0-12.05 4.7-23.38 13.22-31.9 17.58-17.58 46.2-17.58 63.79 0 3.91 3.92 10.26 3.92 14.18 0 3.91-3.91 3.91-10.26 0-14.17-25.41-25.41-66.75-25.41-92.15 0-12.31 12.3-19.08 28.67-19.08 46.07s6.77 33.77 19.08 46.07c12.7 12.7 29.39 19.06 46.07 19.06 16.69 0 33.37-6.36 46.08-19.06 3.91-3.91 3.91-10.26 0-14.17z" fill="none" stroke="#2e3440" stroke-width="4" stroke-dasharray="756.6229708801909,49.80027469253753" stroke-dashoffset="806.423246"/><path d="M15134.27 233.23c-24.23-24.24-37.58-56.46-37.58-90.73s13.35-66.49 37.58-90.73c24.24-24.23 56.46-37.58 90.73-37.58s66.49 13.35 90.73 37.58c24.23 24.24 37.58 56.46 37.58 90.73s-13.35 66.49-37.58 90.73c-24.24 24.23-56.46 37.58-90.73 37.58s-66.49-13.35-90.73-37.58zm-17.53-90.73c0 59.69 48.57 108.26 108.26 108.26 59.69 0 108.26-48.57 108.26-108.26 0-59.69-48.57-108.26-108.26-108.26-59.69 0-108.26 48.57-108.26 108.26zm153.53 31.9c-3.92-3.92-10.27-3.92-14.18 0-17.59 17.58-46.21 17.58-63.79 0-8.52-8.52-13.22-19.85-13.22-31.9 0-12.05 4.7-23.38 13.22-31.9 17.58-17.58 46.2-17.58 63.79 0 3.91 3.92 10.26 3.92 14.18 0 3.91-3.91 3.91-10.26 0-14.17-25.41-25.41-66.75-25.41-92.15 0-12.31 12.3-19.08 28.67-19.08 46.07s6.77 33.77 19.08 46.07c12.7 12.7 29.39 19.06 46.07 19.06 16.69 0 33.37-6.36 46.08-19.06 3.91-3.91 3.91-10.26 0-14.17z" fill="none" stroke="#2e3440" stroke-width="4" stroke-dasharray="762.8145052655187,43.608740307209736" stroke-dashoffset="806.423246"/><path d="M15484.27 233.23c-24.23-24.24-37.58-56.46-37.58-90.73s13.35-66.49 37.58-90.73c24.24-24.23 56.46-37.58 90.73-37.58s66.49 13.35 90.73 37.58c24.23 24.24 37.58 56.46 37.58 90.73s-13.35 66.49-37.58 90.73c-24.24 24.23-56.46 37.58-90.73 37.58s-66.49-13.35-90.73-37.58zm-17.53-90.73c0 59.69 48.57 108.26 108.26 108.26 59.69 0 108.26-48.57 108.26-108.26 0-59.69-48.57-108.26-108.26-108.26-59.69 0-108.26 48.57-108.26 108.26zm153.53 31.9c-3.92-3.92-10.27-3.92-14.18 0-17.59 17.58-46.21 17.58-63.79 0-8.52-8.52-13.22-19.85-13.22-31.9 0-12.05 4.7-23.38 13.22-31.9 17.58-17.58 46.2-17.58 63.79 0 3.91 3.92 10.26 3.92 14.18 0 3.91-3.91 3.91-10.26 0-14.17-25.41-25.41-66.75-25.41-92.15 0-12.31 12.3-19.08 28.67-19.08 46.07s6.77 33.77 19.08 46.07c12.7 12.7 29.39 19.06 46.07 19.06 16.69 0 33.37-6.36 46.08-19.06 3.91-3.91 3.91-10.26 0-14.17z" fill="none" stroke="#2e3440" stroke-width="4" stroke-dasharray="768.4823738544966,37.9408717182318" stroke-dashoffset="806.423246"/><path d="M15834.27 233.23c-24.23-24.24-37.58-56.46-37.58-90.73s13.35-66.49 37.58-90.73c24.24-24.23 56.46-37.58 90.73-37.58s66.49 13.35 90.73 37.58c24.23 24.24 37.58 56.46 37.58 90.73s-13.35 66.49-37.58 90.73c-24.24 24.23-56.46 37.58-90.73 37.58s-66.49-13.35-90.73-37.58zm-17.53-90.73c0 59.69 48.57 108.26 108.26 108.26 59.69 0 108.26-48.57 108.26-108.26 0-59.69-48.57-108.26-108.26-108.26-59.69 0-108.26 48.57-108.26 108.26zm153.53 31.9c-3.92-3.92-10.27-3.92-14.18 0-17.59 17.58-46.21 17.58-63.79 0-8.52-8.52-13.22-19.85-13.22-31.9 0-12.05 4.7-23.38 13.22-31.9 17.58-17.58 46.2-17.58 63.79 0 3.91 3.92 10.26 3.92 14.18 0 3.91-3.91 3.91-10.26 0-14.17-25.41-25.41-66.75-25.41-92.15 0-12.31 12.3-19.08 28.67-19.08 46.07s6.77 33.77 19.08 46.07c12.7 12.7 29.39 19.06 46.07 19.06 16.69 0 33.37-6.36 46.08-19.06 3.91-3.91 3.91-10.26 0-14.17z" fill="none" stroke="#2e3440" stroke-width="4" stroke-dasharray="773.6564439591306,32.76680161359791" stroke-dashoffset="806.423246"/><path d="M16184.27 233.23c-24.23-24.24-37.58-56.46-37.58-90.73s13.35-66.49 37.58-90.73c24.24-24.23 56.46-37.58 90.73-37.58s66.49 13.35 90.73 37.58c24.23 24.24 37.58 56.46 37.58 90.73s-13.35 66.49-37.58 90.73c-24.24 24.23-56.46 37.58-90.73 37.58s-66.49-13.35-90.73-37.58zm-17.53-90.73c0 59.69 48.57 108.26 108.26 108.26 59.69 0 108.26-48.57 108.26-108.26 0-59.69-48.57-108.26-108.26-108.26-59.69 0-108.26 48.57-108.26 108.26zm153.53 31.9c-3.92-3.92-10.27-3.92-14.18 0-17.59 17.58-46.21 17.58-63.79 0-8.52-8.52-13.22-19.85-13.22-31.9 0-12.05 4.7-23.38 13.22-31.9 17.58-17.58 46.2-17.58 63.79 0 3.91 3.92 10.26 3.92 14.18 0 3.91-3.91 3.91-10.26 0-14.17-25.41-25.41-66.75-25.41-92.15 0-12.31 12.3-19.08 28.67-19.08 46.07s6.77 33.77 19.08 46.07c12.7 12.7 29.39 19.06 46.07 19.06 16.69 0 33.37-6.36 46.08-19.06 3.91-3.91 3.91-10.26 0-14.17z" fill="none" stroke="#2e3440" stroke-width="4" stroke-dasharray="778.3640690306391,28.059176542089343" stroke-dashoffset="806.423246"/><path d="M16534.27 233.23c-24.23-24.24-37.58-56.46-37.58-90.73s13.35-66.49 37.58-90.73c24.24-24.23 56.46-37.58 90.73-37.58s66.49 13.35 90.73 37.58c24.23 24.24 37.58 56.46 37.58 90.73s-13.35 66.49-37.58 90.73c-24.24 24.23-56.46 37.58-90.73 37.58s-66.49-13.35-90.73-37.58zm-17.53-90.73c0 59.69 48.57 108.26 108.26 108.26 59.69 0 108.26-48.57 108.26-108.26 0-59.69-48.57-108.26-108.26-108.26-59.69 0-108.26 48.57-108.26 108.26zm153.53 31.9c-3.92-3.92-10.27-3.92-14.18 0-17.59 17.58-46.21 17.58-63.79 0-8.52-8.52-13.22-19.85-13.22-31.9 0-12.05 4.7-23.38 13.22-31.9 17.58-17.58 46.2-17.58 63.79 0 3.91 3.92 10.26 3.92 14.18 0 3.91-3.91 3.91-10.26 0-14.17-25.41-25.41-66.75-25.41-92.15 0-12.31 12.3-19.08 28.67-19.08 46.07s6.77 33.77 19.08 46.07c12.7 12.7 29.39 19.06 46.07 19.06 16.69 0 33.37-6.36 46.08-19.06 3.91-3.91 3.91-10.26 0-14.17z" fill="none" stroke="#2e3440" stroke-width="4" stroke-dasharray="782.630355491965,23.79289008076346" stroke-dashoffset="806.423246"/><path d="M16884.27 233.23c-24.23-24.24-37.58-56.46-37.58-90.73s13.35-66.49 37.58-90.73c24.24-24.23 56.46-37.58 90.73-37.58s66.49 13.35 90.73 37.58c24.23 24.24 37.58 56.46 37.58 90.73s-13.35 66.49-37.58 90.73c-24.24 24.23-56.46 37.58-90.73 37.58s-66.49-13.35-90.73-37.58zm-17.53-90.73c0 59.69 48.57 108.26 108.26 108.26 59.69 0 108.26-48.57 108.26-108.26 0-59.69-48.57-108.26-108.26-108.26-59.69 0-108.26 48.57-108.26 108.26zm153.53 31.9c-3.92-3.92-10.27-3.92-14.18 0-17.59 17.58-46.21 17.58-63.79 0-8.52-8.52-13.22-19.85-13.22-31.9 0-12.05 4.7-23.38 13.22-31.9 17.58-17.58 46.2-17.58 63.79 0 3.91 3.92 10.26 3.92 14.18 0 3.91-3.91 3.91-10.26 0-14.17-25.41-25.41-66.75-25.41-92.15 0-12.31 12.3-19.08 28.67-19.08 46.07s6.77 33.77 19.08 46.07c12.7 12.7 29.39 19.06 46.07 19.06 16.69 0 33.37-6.36 46.08-19.06 3.91-3.91 3.91-10.26 0-14.17z" fill="none" stroke="#2e3440" stroke-width="4" stroke-dasharray="786.4783968170776,19.944848755650813" stroke-dashoffset="806.423246"/><path d="M17234.27 233.23c-24.23-24.24-37.58-56.46-37.58-90.73s13.35-66.49 37.58-90.73c24.24-24.23 56.46-37.58 90.73-37.58s66.49 13.35 90.73 37.58c24.23 24.24 37.58 56.46 37.58 90.73s-13.35 66.49-37.58 90.73c-24.24 24.23-56.46 37.58-90.73 37.58s-66.49-13.35-90.73-37.58zm-17.53-90.73c0 59.69 48.57 108.26 108.26 108.26 59.69 0 108.26-48.57 108.26-108.26 0-59.69-48.57-108.26-108.26-108.26-59.69 0-108.26 48.57-108.26 108.26zm153.53 31.9c-3.92-3.92-10.27-3.92-14.18 0-17.59 17.58-46.21 17.58-63.79 0-8.52-8.52-13.22-19.85-13.22-31.9 0-12.05 4.7-23.38 13.22-31.9 17.58-17.58 46.2-17.58 63.79 0 3.91 3.92 10.26 3.92 14.18 0 3.91-3.91 3.91-10.26 0-14.17-25.41-25.41-66.75-25.41-92.15 0-12.31 12.3-19.08 28.67-19.08 46.07s6.77 33.77 19.08 46.07c12.7 12.7 29.39 19.06 46.07 19.06 16.69 0 33.37-6.36 46.08-19.06 3.91-3.91 3.91-10.26 0-14.17z" fill="none" stroke="#2e3440" stroke-width="4" stroke-dasharray="789.9294791922887,16.493766380439705" stroke-dashoffset="806.423246"/><path d="M17584.27 233.23c-24.23-24.24-37.58-56.46-37.58-90.73s13.35-66.49 37.58-90.73c24.24-24.23 56.46-37.58 90.73-37.58s66.49 13.35 90.73 37.58c24.23 24.24 37.58 56.46 37.58 90.73s-13.35 66.49-37.58 90.73c-24.24 24.23-56.46 37.58-90.73 37.58s-66.49-13.35-90.73-37.58zm-17.53-90.73c0 59.69 48.57 108.26 108.26 108.26 59.69 0 108.26-48.57 108.26-108.26 0-59.69-48.57-108.26-108.26-108.26-59.69 0-108.26 48.57-108.26 108.26zm153.53 31.9c-3.92-3.92-10.27-3.92-14.18 0-17.59 17.58-46.21 17.58-63.79 0-8.52-8.52-13.22-19.85-13.22-31.9 0-12.05 4.7-23.38 13.22-31.9 17.58-17.58 46.2-17.58 63.79 0 3.91 3.92 10.26 3.92 14.18 0 3.91-3.91 3.91-10.26 0-14.17-25.41-25.41-66.75-25.41-92.15 0-12.31 12.3-19.08 28.67-19.08 46.07s6.77 33.77 19.08 46.07c12.7 12.7 29.39 19.06 46.07 19.06 16.69 0 33.37-6.36 46.08-19.06 3.91-3.91 3.91-10.26 0-14.17z" fill="none" stroke="#2e3440" stroke-width="4" stroke-dasharray="793.0032625300379,13.419983042690562" stroke-dashoffset="806.423246"/><path d="M17934.27 233.23c-24.23-24.24-37.58-56.46-37.58-90.73s13.35-66.49 37.58-90.73c24.24-24.23 56.46-37.58 90.73-37.58s66.49 13.35 90.73 37.58c24.23 24.24 37.58 56.46 37.58 90.73s-13.35 66.49-37.58 90.73c-24.24 24.23-56.46 37.58-90.73 37.58s-66.49-13.35-90.73-37.58zm-17.53-90.73c0 59.69 48.57 108.26 108.26 108.26 59.69 0 108.26-48.57 108.26-108.26 0-59.69-48.57-108.26-108.26-108.26-59.69 0-108.26 48.57-108.26 108.26zm153.53 31.9c-3.92-3.92-10.27-3.92-14.18 0-17.59 17.58-46.21 17.58-63.79 0-8.52-8.52-13.22-19.85-13.22-31.9 0-12.05 4.7-23.38 13.22-31.9 17.58-17.58 46.2-17.58 63.79 0 3.91 3.92 10.26 3.92 14.18 0 3.91-3.91 3.91-10.26 0-14.17-25.41-25.41-66.75-25.41-92.15 0-12.31 12.3-19.08 28.67-19.08 46.07s6.77 33.77 19.08 46.07c12.7 12.7 29.39 19.06 46.07 19.06 16.69 0 33.37-6.36 46.08-19.06 3.91-3.91 3.91-10.26 0-14.17z" fill="none" stroke="#2e3440" stroke-width="4" stroke-dasharray="795.7179400977285,10.705305474999898" stroke-dashoffset="806.423246"/><path d="M18284.27 233.23c-24.23-24.24-37.58-56.46-37.58-90.73s13.35-66.49 37.58-90.73c24.24-24.23 56.46-37.58 90.73-37.58s66.49 13.35 90.73 37.58c24.23 24.24 37.58 56.46 37.58 90.73s-13.35 66.49-37.58 90.73c-24.24 24.23-56.46 37.58-90.73 37.58s-66.49-13.35-90.73-37.58zm-17.53-90.73c0 59.69 48.57 108.26 108.26 108.26 59.69 0 108.26-48.57 108.26-108.26 0-59.69-48.57-108.26-108.26-108.26-59.69 0-108.26 48.57-108.26 108.26zm153.53 31.9c-3.92-3.92-10.27-3.92-14.18 0-17.59 17.58-46.21 17.58-63.79 0-8.52-8.52-13.22-19.85-13.22-31.9 0-12.05 4.7-23.38 13.22-31.9 17.58-17.58 46.2-17.58 63.79 0 3.91 3.92 10.26 3.92 14.18 0 3.91-3.91 3.91-10.26 0-14.17-25.41-25.41-66.75-25.41-92.15 0-12.31 12.3-19.08 28.67-19.08 46.07s6.77 33.77 19.08 46.07c12.7 12.7 29.39 19.06 46.07 19.06 16.69 0 33.37-6.36 46.08-19.06 3.91-3.91 3.91-10.26 0-14.17z" fill="none" stroke="#2e3440" stroke-width="4" stroke-dasharray="798.0903795759934,8.33286599673497" stroke-dashoffset="806.423246"/><path d="M18634.27 233.23c-24.23-24.24-37.58-56.46-37.58-90.73s13.35-66.49 37.58-90.73c24.24-24.23 56.46-37.58 90.73-37.58s66.49 13.35 90.73 37.58c24.23 24.24 37.58 56.46 37.58 90.73s-13.35 66.49-37.58 90.73c-24.24 24.23-56.46 37.58-90.73 37.58s-66.49-13.35-90.73-37.58zm-17.53-90.73c0 59.69 48.57 108.26 108.26 108.26 59.69 0 108.26-48.57 108.26-108.26 0-59.69-48.57-108.26-108.26-108.26-59.69 0-108.26 48.57-108.26 108.26zm153.53 31.9c-3.92-3.92-10.27-3.92-14.18 0-17.59 17.58-46.21 17.58-63.79 0-8.52-8.52-13.22-19.85-13.22-31.9 0-12.05 4.7-23.38 13.22-31.9 17.58-17.58 46.2-17.58 63.79 0 3.91 3.92 10.26 3.92 14.18 0 3.91-3.91 3.91-10.26 0-14.17-25.41-25.41-66.75-25.41-92.15 0-12.31 12.3-19.08 28.67-19.08 46.07s6.77 33.77 19.08 46.07c12.7 12.7 29.39 19.06 46.07 19.06 16.69 0 33.37-6.36 46.08-19.06 3.91-3.91 3.91-10.26 0-14.17z" fill="none" stroke="#2e3440" stroke-width="4" stroke-dasharray="800.1362479700557,6.286997602672759" stroke-dashoffset="806.423246"/><path d="M18984.27 233.23c-24.23-24.24-37.58-56.46-37.58-90.73s13.35-66.49 37.58-90.73c24.24-24.23 56.46-37.58 90.73-37.58s66.49 13.35 90.73 37.58c24.23 24.24 37.58 56.46 37.58 90.73s-13.35 66.49-37.58 90.73c-24.24 24.23-56.46 37.58-90.73 37.58s-66.49-13.35-90.73-37.58zm-17.53-90.73c0 59.69 48.57 108.26 108.26 108.26 59.69 0 108.26-48.57 108.26-108.26 0-59.69-48.57-108.26-108.26-108.26-59.69 0-108.26 48.57-108.26 108.26zm153.53 31.9c-3.92-3.92-10.27-3.92-14.18 0-17.59 17.58-46.21 17.58-63.79 0-8.52-8.52-13.22-19.85-13.22-31.9 0-12.05 4.7-23.38 13.22-31.9 17.58-17.58 46.2-17.58 63.79 0 3.91 3.92 10.26 3.92 14.18 0 3.91-3.91 3.91-10.26 0-14.17-25.41-25.41-66.75-25.41-92.15 0-12.31 12.3-19.08 28.67-19.08 46.07s6.77 33.77 19.08 46.07c12.7 12.7 29.39 19.06 46.07 19.06 16.69 0 33.37-6.36 46.08-19.06 3.91-3.91 3.91-10.26 0-14.17z" fill="none" stroke="#2e3440" stroke-width="4" stroke-dasharray="801.8701224599853,4.553123112743189" stroke-dashoffset="806.423246"/><path d="M19334.27 233.23c-24.23-24.24-37.58-56.46-37.58-90.73s13.35-66.49 37.58-90.73c24.24-24.23 56.46-37.58 90.73-37.58s66.49 13.35 90.73 37.58c24.23 24.24 37.58 56.46 37.58 90.73s-13.35 66.49-37.58 90.73c-24.24 24.23-56.46 37.58-90.73 37.58s-66.49-13.35-90.73-37.58zm-17.53-90.73c0 59.69 48.57 108.26 108.26 108.26 59.69 0 108.26-48.57 108.26-108.26 0-59.69-48.57-108.26-108.26-108.26-59.69 0-108.26 48.57-108.26 108.26zm153.53 31.9c-3.92-3.92-10.27-3.92-14.18 0-17.59 17.58-46.21 17.58-63.79 0-8.52-8.52-13.22-19.85-13.22-31.9 0-12.05 4.7-23.38 13.22-31.9 17.58-17.58 46.2-17.58 63.79 0 3.91 3.92 10.26 3.92 14.18 0 3.91-3.91 3.91-10.26 0-14.17-25.41-25.41-66.75-25.41-92.15 0-12.31 12.3-19.08 28.67-19.08 46.07s6.77 33.77 19.08 46.07c12.7 12.7 29.39 19.06 46.07 19.06 16.69 0 33.37-6.36 46.08-19.06 3.91-3.91 3.91-10.26 0-14.17z" fill="none" stroke="#2e3440" stroke-width="4" stroke-dasharray="803.3055889850202,3.117656587708167" stroke-dashoffset="806.423246"/><path d="M19684.27 233.23c-24.23-24.24-37.58-56.46-37.58-90.73s13.35-66.49 37.58-90.73c24.24-24.23 56.46-37.58 90.73-37.58s66.49 13.35 90.73 37.58c24.23 24.24 37.58 56.46 37.58 90.73s-13.35 66.49-37.58 90.73c-24.24 24.23-56.46 37.58-90.73 37.58s-66.49-13.35-90.73-37.58zm-17.53-90.73c0 59.69 48.57 108.26 108.26 108.26 59.69 0 108.26-48.57 108.26-108.26 0-59.69-48.57-108.26-108.26-108.26-59.69 0-108.26 48.57-108.26 108.26zm153.53 31.9c-3.92-3.92-10.27-3.92-14.18 0-17.59 17.58-46.21 17.58-63.79 0-8.52-8.52-13.22-19.85-13.22-31.9 0-12.05 4.7-23.38 13.22-31.9 17.58-17.58 46.2-17.58 63.79 0 3.91 3.92 10.26 3.92 14.18 0 3.91-3.91 3.91-10.26 0-14.17-25.41-25.41-66.75-25.41-92.15 0-12.31 12.3-19.08 28.67-19.08 46.07s6.77 33.77 19.08 46.07c12.7 12.7 29.39 19.06 46.07 19.06 16.69 0 33.37-6.36 46.08-19.06 3.91-3.91 3.91-10.26 0-14.17z" fill="none" stroke="#2e3440" stroke-width="4" stroke-dasharray="804.4553301079359,1.9679154647925483" stroke-dashoffset="806.423246"/><path d="M20034.27 233.23c-24.23-24.24-37.58-56.46-37.58-90.73s13.35-66.49 37.58-90.73c24.24-24.23 56.46-37.58 90.73-37.58s66.49 13.35 90.73 37.58c24.23 24.24 37.58 56.46 37.58 90.73s-13.35 66.49-37.58 90.73c-24.24 24.23-56.46 37.58-90.73 37.58s-66.49-13.35-90.73-37.58zm-17.53-90.73c0 59.69 48.57 108.26 108.26 108.26 59.69 0 108.26-48.57 108.26-108.26 0-59.69-48.57-108.26-108.26-108.26-59.69 0-108.26 48.57-108.26 108.26zm153.53 31.9c-3.92-3.92-10.27-3.92-14.18 0-17.59 17.58-46.21 17.58-63.79 0-8.52-8.52-13.22-19.85-13.22-31.9 0-12.05 4.7-23.38 13.22-31.9 17.58-17.58 46.2-17.58 63.79 0 3.91 3.92 10.26 3.92 14.18 0 3.91-3.91 3.91-10.26 0-14.17-25.41-25.41-66.75-25.41-92.15 0-12.31 12.3-19.08 28.67-19.08 46.07s6.77 33.77 19.08 46.07c12.7 12.7 29.39 19.06 46.07 19.06 16.69 0 33.37-6.36 46.08-19.06 3.91-3.91 3.91-10.26 0-14.17z" fill="none" stroke="#2e3440" stroke-width="4" stroke-dasharray="805.3312034922087,1.092042080519733" stroke-dashoffset="806.423246"/><path d="M20384.27 233.23c-24.23-24.24-37.58-56.46-37.58-90.73s13.35-66.49 37.58-90.73c24.24-24.23 56.46-37.58 90.73-37.58s66.49 13.35 90.73 37.58c24.23 24.24 37.58 56.46 37.58 90.73s-13.35 66.49-37.58 90.73c-24.24 24.23-56.46 37.58-90.73 37.58s-66.49-13.35-90.73-37.58zm-17.53-90.73c0 59.69 48.57 108.26 108.26 108.26 59.69 0 108.26-48.57 108.26-108.26 0-59.69-48.57-108.26-108.26-108.26-59.69 0-108.26 48.57-108.26 108.26zm153.53 31.9c-3.92-3.92-10.27-3.92-14.18 0-17.59 17.58-46.21 17.58-63.79 0-8.52-8.52-13.22-19.85-13.22-31.9 0-12.05 4.7-23.38 13.22-31.9 17.58-17.58 46.2-17.58 63.79 0 3.91 3.92 10.26 3.92 14.18 0 3.91-3.91 3.91-10.26 0-14.17-25.41-25.41-66.75-25.41-92.15 0-12.31 12.3-19.08 28.67-19.08 46.07s6.77 33.77 19.08 46.07c12.7 12.7 29.39 19.06 46.07 19.06 16.69 0 33.37-6.36 46.08-19.06 3.91-3.91 3.91-10.26 0-14.17z" fill="none" stroke="#2e3440" stroke-width="4" stroke-dasharray="805.9443121424105,0.47893343031791913" stroke-dashoffset="806.423246"/><path d="M20734.27 233.23c-24.23-24.24-37.58-56.46-37.58-90.73s13.35-66.49 37.58-90.73c24.24-24.23 56.46-37.58 90.73-37.58s66.49 13.35 90.73 37.58c24.23 24.24 37.58 56.46 37.58 90.73s-13.35 66.49-37.58 90.73c-24.24 24.23-56.46 37.58-90.73 37.58s-66.49-13.35-90.73-37.58zm-17.53-90.73c0 59.69 48.57 108.26 108.26 108.26 59.69 0 108.26-48.57 108.26-108.26 0-59.69-48.57-108.26-108.26-108.26-59.69 0-108.26 48.57-108.26 108.26zm153.53 31.9c-3.92-3.92-10.27-3.92-14.18 0-17.59 17.58-46.21 17.58-63.79 0-8.52-8.52-13.22-19.85-13.22-31.9 0-12.05 4.7-23.38 13.22-31.9 17.58-17.58 46.2-17.58 63.79 0 3.91 3.92 10.26 3.92 14.18 0 3.91-3.91 3.91-10.26 0-14.17-25.41-25.41-66.75-25.41-92.15 0-12.31 12.3-19.08 28.67-19.08 46.07s6.77 33.77 19.08 46.07c12.7 12.7 29.39 19.06 46.07 19.06 16.69 0 33.37-6.36 46.08-19.06 3.91-3.91 3.91-10.26 0-14.17z" fill="none" stroke="#2e3440" stroke-width="4" stroke-dasharray="806.3050674024146,0.11817817031382098" stroke-dashoffset="806.423246"/><path d="M21084.27 233.23c-24.23-24.24-37.58-56.46-37.58-90.73s13.35-66.49 37.58-90.73c24.24-24.23 56.46-37.58 90.73-37.58s66.49 13.35 90.73 37.58c24.23 24.24 37.58 56.46 37.58 90.73s-13.35 66.49-37.58 90.73c-24.24 24.23-56.46 37.58-90.73 37.58s-66.49-13.35-90.73-37.58zm-17.53-90.73c0 59.69 48.57 108.26 108.26 108.26 59.69 0 108.26-48.57 108.26-108.26 0-59.69-48.57-108.26-108.26-108.26-59.69 0-108.26 48.57-108.26 108.26zm153.53 31.9c-3.92-3.92-10.27-3.92-14.18 0-17.59 17.58-46.21 17.58-63.79 0-8.52-8.52-13.22-19.85-13.22-31.9 0-12.05 4.7-23.38 13.22-31.9 17.58-17.58 46.2-17.58 63.79 0 3.91 3.92 10.26 3.92 14.18 0 3.91-3.91 3.91-10.26 0-14.17-25.41-25.41-66.75-25.41-92.15 0-12.31 12.3-19.08 28.67-19.08 46.07s6.77 33.77 19.08 46.07c12.7 12.7 29.39 19.06 46.07 19.06 16.69 0 33.37-6.36 46.08-19.06 3.91-3.91 3.91-10.26 0-14.17z" fill="none" stroke="#2e3440" stroke-width="4"/></svg>